if (_typeface_js && _typeface_js.loadFace) _typeface_js.loadFace({"glyphs":{"¦":{"x_min":23.734375,"x_max":317.390625,"ha":298,"o":"m 242 525 q 222 513 235 519 q 196 502 210 508 q 168 491 182 496 l 147 485 l 122 505 l 198 1046 q 220 1058 208 1052 q 245 1068 232 1063 q 269 1078 257 1073 q 291 1084 281 1082 l 317 1065 l 242 525 m 140 -188 q 122 -199 134 -193 q 95 -210 109 -204 q 68 -220 82 -215 q 48 -227 55 -225 l 23 -206 l 99 327 q 119 338 107 333 q 143 349 131 344 q 167 359 155 354 q 189 367 179 363 l 217 345 l 140 -188 "},"Ő":{"x_min":51,"x_max":805.015625,"ha":795,"o":"m 622 512 q 611 619 622 569 q 579 706 600 669 q 526 764 558 743 q 454 785 495 785 q 379 765 413 785 q 318 713 345 746 q 272 637 292 680 q 240 547 252 594 q 221 451 227 499 q 215 360 215 403 q 225 244 215 297 q 258 153 236 192 q 309 94 279 115 q 380 73 340 73 q 458 93 423 73 q 519 148 493 114 q 566 228 546 183 q 597 322 585 273 q 616 420 610 371 q 622 512 622 470 m 784 525 q 774 427 784 476 q 748 329 765 377 q 707 236 731 281 q 651 152 682 191 q 587 84 623 116 q 512 29 552 52 q 428 -7 472 6 q 339 -21 385 -21 q 217 6 270 -21 q 126 82 163 34 q 70 194 89 130 q 51 328 51 257 q 59 428 51 379 q 83 522 67 476 q 121 611 99 569 q 170 690 143 653 q 233 762 198 728 q 309 820 267 795 q 397 860 350 845 q 498 875 444 875 q 624 847 571 875 q 713 771 678 819 q 766 659 749 723 q 784 525 784 596 m 411 908 q 387 917 401 909 q 364 933 374 925 l 493 1212 q 514 1209 499 1211 q 544 1204 528 1206 q 573 1199 560 1202 q 592 1195 587 1196 l 606 1157 l 411 908 m 610 908 q 586 917 600 909 q 563 933 573 925 l 691 1212 q 712 1209 698 1211 q 742 1204 727 1206 q 772 1199 758 1202 q 791 1195 786 1196 l 805 1157 l 610 908 "},"Ž":{"x_min":10.84375,"x_max":733.09375,"ha":722,"o":"m 216 88 l 503 88 q 529 98 517 88 q 554 129 541 108 q 581 182 566 150 q 613 255 595 213 l 665 241 q 655 186 661 219 q 643 118 649 153 q 632 51 638 83 q 624 0 627 19 l 28 0 l 10 35 l 531 768 l 285 768 q 261 756 275 768 q 231 723 246 744 q 200 673 215 702 q 173 607 185 643 l 120 620 l 177 867 q 208 859 194 863 q 234 856 221 856 q 262 856 248 856 q 295 856 277 856 l 717 856 l 733 820 l 216 88 m 499 925 l 406 925 l 265 1139 q 287 1164 274 1152 q 311 1184 301 1176 l 469 1056 l 658 1184 q 677 1164 666 1177 q 695 1139 689 1152 l 499 925 "},"Á":{"x_min":-33.90625,"x_max":768.359375,"ha":810,"o":"m 251 291 l 165 95 q 176 65 156 74 q 246 49 195 56 l 240 0 l -33 0 l -27 49 q 40 66 16 57 q 73 95 64 75 l 390 817 q 426 842 407 831 q 466 864 446 854 q 506 880 486 873 q 543 893 526 888 l 697 95 q 702 78 699 86 q 714 65 706 71 q 735 56 722 60 q 768 49 748 52 l 762 0 l 449 0 l 456 50 q 524 61 505 50 q 539 95 543 72 l 503 291 l 251 291 m 487 373 l 426 693 l 287 373 l 487 373 m 727 1068 l 407 908 q 389 928 398 914 q 375 955 381 941 l 615 1174 q 643 1159 627 1167 q 675 1141 659 1150 q 704 1124 691 1132 q 727 1110 718 1116 l 727 1068 "},"ĥ":{"x_min":48.515625,"x_max":711.359375,"ha":730,"o":"m 711 74 q 646 38 680 56 q 580 5 612 19 q 520 -18 547 -9 q 473 -28 492 -28 q 438 -6 454 -28 q 423 51 423 14 q 427 92 423 63 q 437 158 431 121 q 450 238 443 196 q 462 318 456 280 q 472 388 468 356 q 477 434 477 419 q 474 469 477 455 q 468 491 472 483 q 458 502 464 499 q 442 506 451 506 q 417 500 434 506 q 381 482 401 495 q 338 448 361 470 q 297 394 316 427 q 265 313 278 362 q 242 204 252 265 q 233 141 236 166 q 230 97 230 115 q 230 66 230 78 q 230 42 230 53 q 198 28 220 38 q 152 7 176 18 q 106 -13 127 -3 q 76 -28 84 -23 l 48 -2 q 63 87 54 34 q 82 200 72 139 q 103 329 92 262 q 124 465 114 397 q 144 596 135 532 q 160 714 153 660 q 171 809 167 768 q 176 872 176 850 q 173 897 176 888 q 167 910 171 906 q 158 916 163 915 q 148 918 153 918 q 129 914 141 918 q 105 908 117 911 q 74 899 91 904 l 64 946 q 129 973 92 959 q 200 1001 165 988 q 264 1022 235 1014 q 306 1031 293 1031 q 338 1018 325 1031 q 351 975 351 1006 q 347 923 351 959 q 337 842 343 888 q 323 745 330 797 q 308 645 315 694 q 293 555 300 596 q 283 490 287 514 q 432 602 362 569 q 563 635 503 635 q 601 630 584 635 q 628 613 617 625 q 645 579 639 601 q 651 525 651 558 q 646 469 651 502 q 636 399 642 436 q 622 324 629 363 q 608 251 615 286 q 598 186 602 215 q 594 137 594 156 q 600 106 594 114 q 618 98 606 98 q 653 103 637 98 q 693 120 668 109 l 711 74 m 688 1125 q 669 1100 679 1111 q 648 1084 659 1090 l 489 1203 l 301 1084 q 285 1100 295 1088 q 269 1125 275 1111 l 465 1334 l 548 1334 l 688 1125 "},"Î":{"x_min":8.8125,"x_max":511.34375,"ha":429,"o":"m 448 805 q 381 784 404 795 q 356 763 357 772 l 263 90 q 281 70 262 82 q 344 49 299 59 l 337 0 l 8 0 l 15 49 q 82 70 58 59 q 107 90 105 81 l 198 763 q 181 783 200 771 q 118 805 162 795 l 125 854 l 455 854 l 448 805 m 511 949 q 491 924 501 935 q 470 908 481 913 l 311 1027 l 124 908 q 108 924 118 912 q 91 949 98 935 l 288 1158 l 370 1158 l 511 949 "},"e":{"x_min":33,"x_max":560,"ha":587,"o":"m 270 499 q 214 410 236 460 q 192 294 192 360 q 298 349 258 324 q 357 395 337 373 q 383 437 377 416 q 390 479 390 457 q 376 527 390 511 q 343 543 362 543 q 328 539 337 543 q 309 531 320 536 q 289 517 299 526 q 270 499 278 509 m 560 515 q 555 475 560 496 q 537 431 551 454 q 499 382 524 408 q 434 330 475 357 q 334 275 393 303 q 193 217 275 246 q 207 158 198 184 q 230 114 217 132 q 259 86 243 96 q 291 77 274 77 q 375 103 320 77 q 513 195 430 129 q 521 186 517 193 q 531 172 526 180 q 539 157 536 164 q 544 147 543 150 q 443 65 488 99 q 360 11 398 32 q 290 -18 322 -9 q 227 -28 258 -28 q 165 -15 199 -28 q 102 24 132 -2 q 53 96 73 52 q 33 205 33 140 q 45 306 33 258 q 82 399 58 355 q 140 482 106 443 q 217 558 174 522 q 254 584 232 571 q 302 609 276 598 q 356 627 328 620 q 410 635 384 635 q 477 624 449 635 q 524 596 505 613 q 551 558 542 580 q 560 515 560 537 "},"»":{"x_min":31.265625,"x_max":611.09375,"ha":657,"o":"m 611 336 l 610 329 q 608 312 609 321 q 605 295 607 303 q 603 287 604 288 l 316 0 l 284 29 q 366 170 330 108 q 396 222 381 197 q 423 267 411 248 q 441 299 434 287 l 448 312 l 444 323 q 434 355 440 335 q 420 401 428 375 q 404 453 413 426 q 361 594 385 515 l 402 625 l 611 336 m 356 336 q 353 312 354 323 q 351 295 352 303 q 350 287 350 288 l 62 0 l 31 29 l 38 42 q 56 73 44 54 q 82 119 67 93 q 112 170 97 144 q 142 222 128 197 q 168 268 157 248 q 187 299 180 288 l 194 312 l 187 332 q 171 385 181 353 q 150 453 162 416 q 130 521 139 489 q 114 573 120 552 l 107 594 l 147 625 l 356 336 "},"Ĕ":{"x_min":-5.421875,"x_max":687.65625,"ha":684,"o":"m 642 206 q 627 144 635 177 q 612 83 619 112 q 598 32 604 54 q 587 0 592 10 l -5 0 l 1 49 q 68 70 45 59 q 93 90 92 81 l 185 763 q 168 783 187 771 q 105 805 149 795 l 111 855 l 665 855 l 687 833 q 678 789 684 815 q 664 734 672 762 q 649 682 657 707 q 636 644 642 657 l 589 644 q 586 740 594 707 q 554 773 578 773 l 343 773 l 305 498 l 556 498 l 574 474 q 559 452 568 465 q 540 427 550 439 q 521 403 531 414 q 504 386 512 392 q 485 403 495 396 q 460 415 474 411 q 424 421 445 419 q 374 424 403 424 l 295 424 l 254 124 q 257 106 253 114 q 273 93 260 99 q 311 84 286 87 q 377 81 336 81 l 440 81 q 489 88 468 81 q 528 112 511 96 q 562 156 546 129 q 598 223 579 183 l 642 206 m 676 1122 q 620 1030 651 1067 q 555 969 588 992 q 489 935 522 945 q 429 924 457 924 q 369 935 400 924 q 313 969 339 945 q 266 1030 286 993 q 233 1122 245 1068 q 245 1136 238 1128 q 259 1150 252 1143 q 273 1163 267 1157 q 286 1172 280 1169 q 313 1115 296 1138 q 352 1079 331 1093 q 396 1059 373 1065 q 438 1053 418 1053 q 485 1059 459 1053 q 537 1079 511 1065 q 588 1115 564 1093 q 632 1172 613 1138 q 642 1163 636 1169 q 655 1151 649 1158 q 667 1136 661 1143 q 676 1122 673 1128 "},"ò":{"x_min":26,"x_max":591,"ha":617,"o":"m 432 325 q 424 417 432 377 q 400 484 415 457 q 366 526 386 511 q 325 540 346 540 q 259 516 285 540 q 215 455 232 492 q 192 373 199 418 q 185 285 185 328 q 194 199 185 239 q 220 129 204 159 q 256 81 236 99 q 298 64 277 64 q 343 75 323 64 q 378 107 363 87 q 403 153 393 127 q 420 208 414 179 q 429 267 426 237 q 432 325 432 298 m 591 379 q 579 287 591 333 q 546 196 567 240 q 494 113 524 153 q 425 42 463 73 q 386 15 407 28 q 341 -7 364 2 q 295 -22 318 -17 q 252 -28 272 -28 q 157 -7 199 -28 q 86 46 115 12 q 41 129 57 81 q 26 233 26 177 q 35 327 26 282 q 65 415 45 373 q 117 496 85 457 q 194 569 149 535 q 233 595 212 583 q 278 616 255 607 q 325 629 301 624 q 371 635 349 635 q 465 615 424 635 q 534 563 506 596 q 576 482 562 529 q 591 379 591 435 m 430 715 q 401 700 417 707 q 374 691 386 693 l 178 937 l 206 971 q 233 977 214 973 q 275 984 253 980 q 318 991 298 988 q 346 995 338 995 l 430 715 "},"^":{"x_min":63.75,"x_max":579.15625,"ha":636,"o":"m 579 430 q 543 404 560 415 q 503 383 526 394 l 483 401 l 375 892 l 151 430 q 133 416 143 424 q 112 403 123 409 q 92 391 102 396 q 76 383 83 386 l 63 401 l 349 991 q 370 1008 358 999 q 396 1025 383 1016 q 421 1040 408 1033 q 442 1051 433 1046 l 579 430 "},"«":{"x_min":34.59375,"x_max":614.421875,"ha":657,"o":"m 288 288 q 291 312 289 301 q 294 329 292 322 q 296 338 295 337 l 583 625 l 614 594 l 607 582 q 589 550 600 570 q 562 505 577 531 q 532 453 547 480 q 502 402 517 427 q 476 357 488 377 q 458 325 465 337 q 452 314 451 314 l 538 29 l 497 0 l 288 288 m 34 288 q 37 312 35 301 q 40 329 39 322 q 42 338 41 337 l 328 625 l 360 594 l 353 582 q 335 550 346 570 q 308 505 323 531 q 278 453 294 480 q 248 402 263 427 q 222 357 233 377 q 203 325 210 337 q 197 314 196 314 l 284 29 l 243 0 l 34 288 "},"í":{"x_min":36.984375,"x_max":517.453125,"ha":385,"o":"m 364 74 q 299 37 332 55 q 235 4 265 19 q 177 -19 204 -10 q 131 -28 150 -28 q 92 -6 108 -28 q 77 51 77 14 q 81 106 77 71 q 93 182 86 141 q 108 268 99 223 q 122 353 116 313 q 134 425 129 394 q 139 474 139 457 q 136 499 139 490 q 131 512 134 508 q 122 518 128 517 q 111 520 117 520 q 95 517 105 520 q 74 511 85 515 q 49 503 62 508 l 36 549 q 101 577 65 562 q 171 605 137 592 q 233 626 205 618 q 274 635 261 635 q 303 622 293 635 q 314 577 314 609 q 309 523 314 558 q 297 445 304 488 q 281 357 289 403 q 265 269 273 312 q 253 192 258 227 q 249 137 249 157 q 253 107 249 116 q 269 98 257 98 q 288 99 279 98 q 306 103 297 100 q 326 110 316 106 q 351 120 337 114 l 364 74 m 517 927 l 261 691 q 238 703 250 694 q 216 725 225 713 l 374 995 l 400 990 q 439 983 419 987 q 477 974 459 978 q 501 968 495 970 l 517 927 "},"ˆ":{"x_min":74.59375,"x_max":504.5625,"ha":441,"o":"m 504 731 q 482 707 495 718 q 458 690 469 696 l 306 844 l 111 690 q 93 706 105 694 q 74 731 81 718 l 277 988 l 370 988 l 504 731 "},"ū":{"x_min":16.6875,"x_max":724.890625,"ha":747,"o":"m 724 72 q 670 35 697 53 q 617 3 642 17 q 569 -19 591 -10 q 531 -28 547 -28 q 501 -17 516 -28 q 472 13 485 -7 q 451 66 460 34 q 443 140 443 98 q 386 73 416 104 q 323 20 356 42 q 258 -15 291 -2 q 195 -28 225 -28 q 154 -17 175 -28 q 115 14 133 -6 q 86 66 98 35 q 75 138 75 97 q 78 187 75 159 q 86 247 81 215 q 97 311 91 278 q 108 375 103 345 q 116 432 113 406 q 120 474 120 457 q 117 499 120 490 q 112 512 115 508 q 103 518 108 517 q 92 520 98 520 q 75 517 85 520 q 53 511 64 515 q 27 503 41 508 l 16 549 q 82 577 45 562 q 155 605 119 592 q 219 626 190 618 q 260 635 248 635 q 287 622 280 635 q 294 577 294 609 q 289 526 294 558 q 279 457 285 494 q 267 380 273 420 q 254 303 260 340 q 244 234 248 265 q 240 182 240 202 q 251 124 240 144 q 276 105 262 105 q 305 114 287 105 q 345 144 322 123 q 395 196 368 164 q 452 274 421 229 q 461 330 456 302 q 470 385 466 359 q 477 435 474 412 q 481 474 481 458 q 479 499 481 490 q 474 513 477 508 q 466 519 470 517 q 455 520 462 520 q 439 517 449 520 q 420 511 430 515 q 396 503 408 508 l 384 549 q 449 577 412 562 q 519 605 485 592 q 581 626 553 618 q 621 635 609 635 q 646 622 640 635 q 653 577 653 609 q 649 528 653 558 q 640 466 645 499 q 628 396 634 432 q 617 325 622 359 q 608 261 612 291 q 604 208 604 230 q 614 122 604 146 q 640 98 623 98 q 673 102 658 98 q 712 116 688 106 l 724 72 m 722 869 q 714 849 720 861 q 701 825 708 837 q 688 801 695 812 q 678 785 682 790 l 200 785 l 184 806 q 192 825 187 813 q 204 848 197 836 q 217 872 211 860 q 227 890 223 884 l 705 890 l 722 869 "},"µ":{"x_min":-5.421875,"x_max":744.25,"ha":754,"o":"m 744 145 q 684 60 713 94 q 628 7 655 26 q 578 -20 602 -12 q 536 -28 555 -28 q 502 -14 517 -28 q 476 21 488 -1 q 458 74 465 44 q 452 138 452 104 q 356 15 404 58 q 258 -28 308 -28 q 191 -4 222 -28 q 138 61 160 19 q 137 -62 130 -6 q 157 -160 145 -118 q 182 -229 170 -202 q 199 -264 195 -255 q 178 -273 192 -267 q 146 -286 164 -279 q 109 -301 128 -293 q 72 -317 89 -309 q 41 -330 54 -324 q 22 -339 27 -336 l -5 -314 q 7 -228 0 -276 q 24 -124 14 -179 q 43 -11 33 -70 q 63 103 53 46 q 82 213 73 160 q 99 312 91 267 q 111 396 104 355 q 118 474 118 437 q 115 499 118 490 q 110 512 113 508 q 101 518 106 517 q 91 520 96 520 q 74 517 84 520 q 52 511 63 515 q 27 503 40 508 l 17 549 q 60 567 36 558 q 109 586 84 577 q 160 605 135 596 q 206 620 185 613 q 241 630 226 626 q 262 635 256 635 q 287 622 281 635 q 294 577 294 609 q 290 529 294 558 q 282 469 287 501 q 272 404 277 437 q 261 338 266 370 q 253 280 256 307 q 250 235 250 253 q 266 150 250 178 q 306 121 282 121 q 335 129 319 121 q 370 156 351 137 q 414 209 390 176 q 466 292 437 241 q 475 351 470 321 q 485 408 480 381 q 492 457 489 435 q 495 495 495 480 q 492 539 495 516 q 483 574 490 561 q 519 587 495 579 q 571 605 544 596 q 623 623 598 615 q 662 635 648 631 q 674 618 668 627 q 681 603 679 609 q 671 551 677 583 q 656 481 664 519 q 640 401 648 443 q 626 321 633 360 q 616 248 620 282 q 612 192 612 215 q 619 133 612 150 q 637 117 626 117 q 670 130 650 117 q 720 185 690 144 l 744 145 "},"č":{"x_min":48,"x_max":655.59375,"ha":592,"o":"m 614 557 q 580 525 599 543 q 540 491 560 507 q 501 464 519 475 q 472 453 483 453 q 450 466 461 453 q 426 495 439 480 q 396 524 412 511 q 361 538 380 538 q 295 512 324 538 q 247 448 267 487 q 218 359 228 408 q 208 262 208 310 q 215 184 208 218 q 235 126 222 150 q 266 89 248 102 q 305 77 283 77 q 393 103 342 77 q 517 190 444 130 q 525 179 520 187 q 535 165 530 172 q 545 151 540 157 q 551 142 549 144 q 454 61 498 94 q 372 8 410 28 q 302 -19 334 -11 q 239 -28 269 -28 q 177 -16 210 -28 q 114 23 143 -4 q 66 99 85 52 q 48 218 48 147 q 57 310 48 263 q 88 401 66 357 q 143 487 109 446 q 228 561 178 527 q 272 586 247 573 q 326 610 297 599 q 384 628 354 621 q 442 635 414 635 q 496 625 472 635 q 539 602 519 615 q 577 576 559 589 q 614 557 595 563 m 454 707 l 361 707 l 224 960 q 247 982 235 972 q 271 1000 259 993 l 422 850 l 618 1000 q 637 982 626 993 q 655 960 648 972 l 454 707 "},"’":{"x_min":90.203125,"x_max":328,"ha":325,"o":"m 328 876 q 309 790 328 833 q 263 708 291 747 q 199 635 234 669 q 130 578 164 601 l 91 612 q 122 651 106 629 q 149 696 137 673 q 169 743 162 719 q 177 789 177 767 q 153 840 177 823 q 96 857 130 857 l 90 907 q 108 920 94 912 q 141 935 122 927 q 180 951 159 943 q 220 965 201 959 q 255 975 240 972 q 279 978 271 979 q 312 941 297 966 q 328 876 328 916 "},"-":{"x_min":18.984375,"x_max":429.28125,"ha":460,"o":"m 429 372 q 421 355 426 365 q 410 334 416 345 q 399 313 404 323 q 391 299 394 304 l 36 299 l 18 320 q 26 337 21 328 q 36 358 31 347 q 48 377 42 368 q 58 393 54 387 l 410 393 l 429 372 "},"Q":{"x_min":51,"x_max":849.78125,"ha":814,"o":"m 622 513 q 611 620 622 570 q 579 706 600 669 q 526 764 558 743 q 454 786 495 786 q 379 766 413 786 q 318 713 345 746 q 272 637 292 680 q 240 547 252 594 q 221 452 227 500 q 215 361 215 403 q 225 245 215 297 q 258 153 236 192 q 309 94 279 115 q 380 73 340 73 q 458 94 423 73 q 519 148 493 114 q 566 228 546 183 q 597 322 585 273 q 616 420 610 371 q 622 513 622 470 m 849 -84 q 809 -139 830 -114 q 769 -182 788 -164 q 733 -210 750 -200 q 708 -221 717 -221 q 650 -210 678 -221 q 595 -183 622 -199 q 541 -143 568 -166 q 488 -99 514 -121 q 434 -55 461 -77 q 379 -17 407 -33 q 360 -19 370 -18 q 339 -21 350 -21 q 217 6 270 -21 q 126 82 163 34 q 70 194 89 130 q 51 329 51 257 q 59 428 51 379 q 83 523 67 477 q 121 611 99 569 q 170 690 143 653 q 233 762 198 728 q 309 821 267 796 q 397 860 350 846 q 498 875 444 875 q 624 847 571 875 q 713 772 678 819 q 766 660 749 724 q 784 525 784 596 q 774 427 784 477 q 748 329 765 378 q 707 236 731 281 q 651 152 682 191 q 579 77 619 112 q 493 19 539 42 q 557 -13 527 5 q 617 -48 588 -31 q 673 -76 646 -65 q 729 -88 701 -88 q 745 -86 737 -88 q 764 -79 753 -84 q 788 -65 774 -74 q 824 -40 802 -55 l 849 -84 "},"M":{"x_min":4.0625,"x_max":1112.875,"ha":1089,"o":"m 1106 805 q 1069 800 1091 805 q 1023 786 1047 795 l 937 90 q 957 70 935 82 q 1023 49 978 59 l 1016 0 l 690 0 l 697 49 q 767 70 740 59 q 794 90 793 81 l 863 647 l 508 0 l 449 0 l 273 646 l 191 90 q 209 70 190 82 q 272 49 228 59 l 266 0 l 4 0 l 10 49 q 77 70 54 59 q 102 90 101 81 l 203 781 q 161 800 183 795 q 120 805 139 805 l 127 854 l 345 854 q 356 852 351 854 q 364 844 360 850 q 372 827 368 838 q 382 797 377 815 l 537 233 l 847 797 q 865 828 857 817 q 878 845 872 839 q 889 852 884 851 q 900 854 894 854 l 1112 854 l 1106 805 "},"œ":{"x_min":26,"x_max":951,"ha":977,"o":"m 662 500 q 603 409 624 462 q 577 295 582 357 q 687 350 646 326 q 751 396 728 375 q 779 437 773 417 q 786 480 786 457 q 770 525 786 507 q 734 543 754 543 q 699 530 717 543 q 662 500 680 518 m 434 326 q 424 418 434 378 q 400 485 415 458 q 364 527 385 513 q 320 541 343 541 q 258 517 284 541 q 215 457 232 494 q 188 374 197 420 q 180 286 180 329 q 190 200 180 240 q 217 129 200 159 q 254 81 234 99 q 293 64 274 64 q 358 89 331 64 q 401 153 385 114 q 426 238 418 192 q 434 326 434 284 m 951 515 q 946 475 951 496 q 928 431 942 455 q 889 383 914 408 q 822 331 864 358 q 721 275 781 304 q 578 216 662 246 q 593 159 582 185 q 617 115 603 134 q 648 87 631 97 q 682 77 664 77 q 717 83 697 77 q 765 103 738 89 q 826 140 792 117 q 902 195 860 163 q 910 187 905 193 q 920 172 915 180 q 930 157 925 164 q 935 147 934 150 q 834 65 879 99 q 751 11 789 32 q 680 -18 713 -9 q 615 -28 647 -28 q 577 -22 598 -28 q 534 -4 556 -17 q 492 27 512 7 q 457 77 472 47 q 422 42 440 58 q 383 14 405 27 q 338 -7 361 1 q 291 -22 314 -17 q 249 -28 268 -28 q 156 -7 197 -28 q 85 46 114 12 q 41 129 57 81 q 26 233 26 177 q 35 327 26 281 q 65 413 45 372 q 116 494 85 455 q 192 569 148 533 q 231 595 209 583 q 277 615 253 607 q 324 629 301 624 q 367 635 348 635 q 486 602 439 635 q 557 514 533 570 q 607 559 580 537 q 645 584 623 571 q 691 609 666 598 q 744 627 717 620 q 801 635 772 635 q 865 624 837 635 q 913 597 894 613 q 941 558 932 580 q 951 515 951 537 "},"ě":{"x_min":33,"x_max":625.109375,"ha":587,"o":"m 270 499 q 214 410 236 460 q 192 294 192 360 q 298 349 258 324 q 357 395 337 373 q 383 437 377 416 q 390 479 390 457 q 376 527 390 511 q 343 543 362 543 q 328 539 337 543 q 309 531 320 536 q 289 517 299 526 q 270 499 278 509 m 560 515 q 555 475 560 496 q 537 431 551 454 q 499 382 524 408 q 434 330 475 357 q 334 275 393 303 q 193 217 275 246 q 207 158 198 184 q 230 114 217 132 q 259 86 243 96 q 291 77 274 77 q 375 103 320 77 q 513 195 430 129 q 521 186 517 193 q 531 172 526 180 q 539 157 536 164 q 544 147 543 150 q 443 65 488 99 q 360 11 398 32 q 290 -18 322 -9 q 227 -28 258 -28 q 165 -15 199 -28 q 102 24 132 -2 q 53 96 73 52 q 33 205 33 140 q 45 306 33 258 q 82 399 58 355 q 140 482 106 443 q 217 558 174 522 q 254 584 232 571 q 302 609 276 598 q 356 627 328 620 q 410 635 384 635 q 477 624 449 635 q 524 596 505 613 q 551 558 542 580 q 560 515 560 537 m 424 707 l 331 707 l 194 960 q 216 982 204 972 q 240 1000 228 993 l 392 850 l 587 1000 q 606 982 595 993 q 625 960 617 972 l 424 707 "},"ũ":{"x_min":16.6875,"x_max":724.890625,"ha":747,"o":"m 724 72 q 670 35 697 53 q 617 3 642 17 q 569 -19 591 -10 q 531 -28 547 -28 q 501 -17 516 -28 q 472 13 485 -7 q 451 66 460 34 q 443 140 443 98 q 386 73 416 104 q 323 20 356 42 q 258 -15 291 -2 q 195 -28 225 -28 q 154 -17 175 -28 q 115 14 133 -6 q 86 66 98 35 q 75 138 75 97 q 78 187 75 159 q 86 247 81 215 q 97 311 91 278 q 108 375 103 345 q 116 432 113 406 q 120 474 120 457 q 117 499 120 490 q 112 512 115 508 q 103 518 108 517 q 92 520 98 520 q 75 517 85 520 q 53 511 64 515 q 27 503 41 508 l 16 549 q 82 577 45 562 q 155 605 119 592 q 219 626 190 618 q 260 635 248 635 q 287 622 280 635 q 294 577 294 609 q 289 526 294 558 q 279 457 285 494 q 267 380 273 420 q 254 303 260 340 q 244 234 248 265 q 240 182 240 202 q 251 124 240 144 q 276 105 262 105 q 305 114 287 105 q 345 144 322 123 q 395 196 368 164 q 452 274 421 229 q 461 330 456 302 q 470 385 466 359 q 477 435 474 412 q 481 474 481 458 q 479 499 481 490 q 474 512 477 508 q 466 518 470 517 q 455 520 462 520 q 439 517 449 520 q 420 511 430 515 q 396 503 408 508 l 384 549 q 449 577 412 562 q 519 605 485 592 q 581 626 553 618 q 621 635 609 635 q 646 622 640 635 q 653 577 653 609 q 649 528 653 558 q 640 466 645 499 q 628 396 634 432 q 617 325 622 359 q 608 261 612 291 q 604 208 604 230 q 614 122 604 146 q 640 98 623 98 q 673 102 658 98 q 712 116 688 106 l 724 72 m 695 910 q 673 871 686 892 q 646 829 661 850 q 615 788 632 808 q 581 754 599 769 q 545 730 563 739 q 506 722 526 722 q 456 732 479 722 q 412 756 434 743 q 369 781 391 770 q 324 792 348 792 q 298 787 310 792 q 274 772 286 782 q 250 748 263 762 q 223 715 237 734 l 180 733 q 215 794 194 761 q 260 856 236 827 q 313 904 285 885 q 370 924 341 924 q 423 912 398 924 q 469 888 447 901 q 510 863 490 875 q 549 852 529 852 q 600 871 577 852 q 651 930 624 891 l 695 910 "},"ŭ":{"x_min":16.6875,"x_max":724.890625,"ha":747,"o":"m 724 72 q 670 35 697 53 q 617 3 642 17 q 569 -19 591 -10 q 531 -28 547 -28 q 501 -17 516 -28 q 472 13 485 -7 q 451 66 460 34 q 443 140 443 98 q 386 73 416 104 q 323 20 356 42 q 258 -15 291 -2 q 195 -28 225 -28 q 154 -17 175 -28 q 115 14 133 -6 q 86 66 98 35 q 75 138 75 97 q 78 187 75 159 q 86 247 81 215 q 97 311 91 278 q 108 375 103 345 q 116 432 113 406 q 120 474 120 457 q 117 499 120 490 q 112 512 115 508 q 103 518 108 517 q 92 520 98 520 q 75 517 85 520 q 53 511 64 515 q 27 503 41 508 l 16 549 q 82 577 45 562 q 155 605 119 592 q 219 626 190 618 q 260 635 248 635 q 287 622 280 635 q 294 577 294 609 q 289 526 294 558 q 279 457 285 494 q 267 380 273 420 q 254 303 260 340 q 244 234 248 265 q 240 182 240 202 q 251 124 240 144 q 276 105 262 105 q 305 114 287 105 q 345 144 322 123 q 395 196 368 164 q 452 274 421 229 q 461 330 456 302 q 470 385 466 359 q 477 435 474 412 q 481 474 481 458 q 479 499 481 490 q 474 513 477 508 q 466 519 470 517 q 455 520 462 520 q 439 517 449 520 q 420 511 430 515 q 396 503 408 508 l 384 549 q 449 577 412 562 q 519 605 485 592 q 581 626 553 618 q 621 635 609 635 q 646 622 640 635 q 653 577 653 609 q 649 528 653 558 q 640 466 645 499 q 628 396 634 432 q 617 325 622 359 q 608 261 612 291 q 604 208 604 230 q 614 122 604 146 q 640 98 623 98 q 673 102 658 98 q 712 116 688 106 l 724 72 m 677 905 q 620 813 652 850 q 556 752 589 775 q 490 718 523 728 q 430 707 458 707 q 371 718 401 707 q 314 752 340 728 q 267 813 288 776 q 235 905 246 851 q 246 919 239 911 q 260 933 253 926 q 275 946 268 940 q 287 955 281 952 q 315 898 297 921 q 353 862 332 876 q 397 842 374 848 q 439 836 419 836 q 486 842 460 836 q 538 862 512 848 q 589 898 565 876 q 632 955 614 921 q 643 946 637 952 q 656 934 649 941 q 668 919 662 926 q 677 905 674 911 "},"{":{"x_min":71,"x_max":535.015625,"ha":467,"o":"m 535 1032 q 484 996 507 1016 q 444 955 461 977 q 414 908 426 933 q 399 859 403 884 q 396 795 396 823 q 396 742 396 768 q 396 688 396 716 q 391 625 396 661 q 374 569 387 597 q 342 518 362 542 q 298 474 323 494 q 244 442 273 454 q 330 383 306 430 q 342 260 353 336 q 329 192 337 224 q 312 132 321 161 q 296 76 304 104 q 284 18 288 48 q 281 -31 281 -9 q 289 -75 281 -54 q 316 -114 298 -95 q 364 -152 334 -132 l 333 -214 q 236 -167 278 -191 q 167 -114 194 -143 q 129 -47 140 -84 q 125 38 118 -10 q 137 103 130 74 q 154 159 145 131 q 171 217 163 187 q 184 285 179 247 q 173 363 192 340 q 114 387 154 387 l 101 387 q 94 386 97 387 q 86 385 90 386 q 71 382 81 384 l 71 439 q 181 497 143 460 q 226 585 218 534 q 229 649 229 622 q 229 702 229 676 q 229 755 229 727 q 234 820 229 782 q 264 904 240 865 q 325 975 288 943 q 412 1035 363 1008 q 516 1085 460 1062 l 535 1032 "},"¼":{"x_min":48.265625,"x_max":811.546875,"ha":803,"o":"m 618 318 l 487 156 l 593 156 l 618 318 m 733 146 q 712 124 724 135 q 692 109 701 114 l 671 109 l 661 45 q 669 36 660 40 q 706 25 677 31 l 703 0 l 496 0 l 500 25 q 538 32 524 28 q 562 37 553 35 q 573 43 570 40 q 577 48 576 45 l 587 109 l 418 109 l 405 121 l 616 380 q 636 386 625 383 q 659 393 648 390 q 682 400 671 396 q 701 406 693 403 l 715 392 l 677 156 l 726 156 l 733 146 m 86 433 l 90 461 q 138 467 119 464 q 168 475 157 471 q 184 483 179 479 q 190 490 190 487 l 226 728 q 229 748 229 740 q 225 759 229 755 q 203 764 222 764 q 135 755 183 764 l 130 783 q 171 792 145 785 q 225 808 198 799 q 277 825 252 816 q 316 838 302 833 l 330 824 l 277 490 q 280 483 277 487 q 292 475 283 479 q 317 467 301 471 q 360 461 334 464 l 356 433 l 86 433 m 145 2 q 126 -4 137 -1 q 104 -10 116 -7 q 80 -15 92 -13 q 60 -19 69 -17 l 48 0 l 715 816 q 733 822 722 819 q 756 828 744 825 q 780 834 768 831 q 798 838 791 837 l 811 819 l 145 2 "},"#":{"x_min":28.484375,"x_max":680.875,"ha":632,"o":"m 569 662 l 667 662 l 680 645 q 672 626 678 637 q 661 602 667 614 q 649 579 655 590 q 640 563 643 569 l 530 563 l 469 410 l 568 410 l 580 392 q 573 374 578 385 q 562 351 568 362 q 551 328 556 339 q 542 312 545 318 l 431 312 l 354 115 q 337 106 347 110 q 316 98 327 102 l 293 92 q 273 86 282 88 l 259 99 l 343 312 l 232 312 l 155 115 q 139 106 149 110 q 117 98 128 102 l 94 92 q 75 86 84 88 l 61 99 l 144 312 l 40 312 l 28 328 q 36 346 31 335 q 47 369 41 357 q 58 392 52 381 q 68 410 64 403 l 183 410 l 243 563 l 140 563 l 126 579 q 134 598 129 587 q 145 621 139 609 q 157 644 151 633 q 166 662 163 655 l 282 662 l 356 848 q 374 857 363 853 q 395 864 384 861 q 416 870 406 867 q 434 876 426 872 l 450 861 l 371 662 l 480 662 l 554 848 q 572 857 562 853 q 594 864 583 861 q 615 870 604 867 q 632 876 625 872 l 648 861 l 569 662 m 271 410 l 381 410 l 442 563 l 332 563 l 271 410 "},"ꞌ":{"x_min":144,"x_max":323.71875,"ha":313,"o":"m 205 466 q 192 460 200 463 q 175 456 184 458 q 158 454 167 455 q 144 453 150 453 l 144 919 q 173 930 152 923 q 217 946 194 938 q 260 961 240 955 q 289 969 281 967 l 323 947 l 205 466 "},"Ⱡ":{"x_min":-5.421875,"x_max":636.125,"ha":673,"o":"m 465 452 l 299 452 l 288 367 l 457 367 l 475 345 l 443 285 l 276 285 l 255 130 q 258 108 254 118 q 275 93 262 99 q 309 84 287 87 q 366 81 331 81 l 436 81 q 486 88 465 81 q 524 112 507 96 q 557 156 541 129 q 592 223 573 183 l 636 206 q 621 144 630 177 q 606 83 613 112 q 592 32 598 54 q 581 0 585 10 l -5 0 l 1 49 q 68 70 45 59 q 93 90 92 81 l 120 285 l 16 285 l 0 305 q 5 319 1 311 l 13 336 q 22 353 18 345 q 29 367 27 361 l 131 367 l 143 452 l 37 452 l 21 472 q 27 485 23 477 l 35 502 q 44 519 40 511 q 51 533 48 527 l 153 533 l 185 763 q 168 783 187 771 q 105 805 149 795 l 111 854 l 442 854 l 435 805 q 367 784 391 795 q 342 763 343 772 l 310 533 l 478 533 l 496 511 l 465 452 "},"Ĳ":{"x_min":9.109375,"x_max":901.578125,"ha":861,"o":"m 448 805 q 381 784 405 795 q 356 763 357 772 l 264 90 q 281 70 262 82 q 344 49 300 59 l 338 0 l 9 0 l 15 49 q 82 70 58 59 q 107 90 106 81 l 199 763 q 181 783 200 771 q 118 805 163 795 l 125 854 l 455 854 l 448 805 m 893 805 q 826 784 850 795 q 801 763 802 772 l 717 139 q 685 9 706 63 q 637 -82 664 -44 q 580 -147 609 -120 q 522 -196 550 -174 q 480 -223 504 -210 q 430 -247 456 -237 q 379 -263 405 -257 q 333 -269 354 -269 q 284 -261 308 -269 q 241 -244 260 -254 q 210 -223 222 -234 q 199 -204 199 -212 q 206 -189 199 -199 q 224 -167 213 -180 q 249 -143 235 -155 q 275 -120 262 -130 q 300 -102 289 -109 q 316 -96 310 -96 q 333 -105 323 -96 q 357 -125 343 -114 q 388 -145 371 -136 q 426 -155 405 -155 q 460 -146 443 -155 q 495 -112 478 -138 q 526 -37 511 -86 q 552 90 541 10 l 644 763 q 641 772 645 767 q 624 782 637 776 q 590 793 612 787 q 531 805 568 799 l 538 854 l 901 854 l 893 805 "},"Ê":{"x_min":-5.421875,"x_max":687.65625,"ha":684,"o":"m 642 206 q 627 144 635 177 q 612 83 619 112 q 598 32 604 54 q 587 0 592 10 l -5 0 l 1 49 q 68 70 45 59 q 93 90 92 81 l 185 763 q 168 783 187 771 q 105 805 149 795 l 111 855 l 665 855 l 687 833 q 678 789 684 815 q 664 734 672 762 q 649 682 657 707 q 636 644 642 657 l 589 644 q 586 740 594 707 q 554 773 578 773 l 343 773 l 305 498 l 556 498 l 574 474 q 559 452 568 465 q 540 427 550 439 q 521 403 531 414 q 504 386 512 392 q 485 403 495 396 q 460 415 474 411 q 424 421 445 419 q 374 424 403 424 l 295 424 l 254 124 q 257 106 253 114 q 273 93 260 99 q 311 84 286 87 q 377 81 336 81 l 440 81 q 489 88 468 81 q 528 112 511 96 q 562 156 546 129 q 598 223 579 183 l 642 206 m 640 949 q 621 924 631 935 q 600 908 611 914 l 441 1027 l 253 908 q 237 924 247 912 q 221 949 227 935 l 417 1158 l 500 1158 l 640 949 "},")":{"x_min":-64.765625,"x_max":377,"ha":429,"o":"m 361 430 q 310 219 346 319 q 223 35 275 119 q 104 -111 171 -47 q -38 -213 38 -175 l -64 -162 q 22 -72 -19 -125 q 98 51 63 -19 q 159 212 133 122 q 201 410 185 301 q 216 600 216 508 q 205 771 216 691 q 169 918 194 851 q 104 1037 144 986 l 144 1088 q 265 979 213 1047 q 346 826 316 912 q 377 639 377 740 q 361 430 377 538 "},"Å":{"x_min":-33.546875,"x_max":768.84375,"ha":810,"o":"m 251 291 l 165 95 q 176 65 157 74 q 247 49 196 56 l 241 0 l -33 0 l -26 49 q 40 66 16 57 q 73 95 64 75 l 391 817 q 427 843 408 831 q 467 864 446 855 q 507 881 487 874 q 543 893 526 888 l 697 95 q 703 78 699 86 q 714 65 707 71 q 735 56 722 60 q 768 49 748 52 l 762 0 l 450 0 l 457 50 q 525 61 505 50 q 540 95 544 72 l 503 291 l 251 291 m 488 373 l 427 693 l 287 373 l 488 373 m 550 1074 q 540 1107 550 1095 q 516 1120 531 1120 q 492 1114 503 1120 q 473 1096 481 1108 q 461 1071 465 1085 q 457 1040 457 1056 q 467 1006 457 1019 q 492 993 477 993 q 515 999 504 993 q 533 1017 525 1005 q 545 1043 541 1028 q 550 1074 550 1058 m 640 1099 q 626 1037 640 1070 q 590 976 613 1004 q 535 931 567 949 q 468 912 504 912 q 426 921 444 912 q 396 943 408 929 q 378 974 384 957 q 372 1011 372 992 q 384 1077 372 1043 q 420 1139 397 1111 q 473 1185 443 1167 q 540 1203 504 1203 q 581 1194 563 1203 q 613 1172 600 1186 q 633 1139 626 1158 q 640 1099 640 1121 "},"¸":{"x_min":-111,"x_max":158,"ha":219,"o":"m 158 -150 q 134 -216 158 -186 q 73 -263 111 -246 q -12 -280 36 -280 q -111 -254 -60 -280 l -111 -208 q -59 -221 -83 -221 q -19 -216 -36 -221 q 6 -200 -2 -211 q 16 -177 16 -190 q 2 -154 16 -163 q -31 -146 -11 -146 q -13 -105 -21 -124 q 1 -69 -4 -86 q 12 -34 7 -51 q 22 1 18 -16 l 88 1 q 81 -37 85 -17 q 73 -68 76 -57 q 137 -92 116 -68 q 158 -150 158 -116 "},"a":{"x_min":26,"x_max":664.890625,"ha":669,"o":"m 395 256 q 404 317 399 285 q 414 381 409 350 q 424 442 419 413 q 433 491 429 470 q 392 523 413 509 q 349 538 370 538 q 297 524 320 538 q 254 488 273 510 q 222 437 236 466 q 198 377 207 408 q 184 315 189 346 q 180 257 180 284 q 185 190 180 219 q 199 143 190 162 q 220 115 209 125 q 245 106 232 106 q 306 144 267 106 q 395 256 345 183 m 664 72 q 607 33 636 51 q 554 1 579 15 q 510 -20 530 -12 q 478 -28 491 -28 q 452 -20 467 -28 q 424 5 437 -13 q 400 55 411 24 q 390 134 390 87 q 342 75 366 104 q 290 23 317 46 q 235 -14 263 0 q 180 -28 207 -28 q 129 -15 156 -28 q 79 25 101 -2 q 41 98 56 54 q 26 206 26 143 q 39 311 26 260 q 78 409 53 362 q 141 497 104 456 q 227 571 179 538 q 268 594 245 583 q 315 615 290 606 q 368 629 340 624 q 424 635 395 635 q 480 622 452 635 q 531 594 507 609 q 577 615 554 605 q 618 635 600 625 l 639 590 q 620 573 628 581 q 607 556 613 566 q 597 532 601 546 q 588 495 593 518 q 570 400 578 446 q 556 316 562 354 q 548 249 550 278 q 545 205 545 220 q 555 128 545 158 q 581 98 565 98 q 610 101 595 98 q 654 116 626 105 l 664 72 "},"=":{"x_min":29.15625,"x_max":568.984375,"ha":600,"o":"m 568 511 q 561 493 566 504 q 550 471 556 482 q 538 450 544 460 q 530 434 533 440 l 73 434 l 56 456 q 64 473 59 463 q 74 495 69 484 q 86 516 80 505 q 95 533 91 526 l 552 533 l 568 511 m 541 308 q 533 290 538 300 q 522 267 528 279 q 511 246 516 256 q 502 231 505 236 l 45 231 l 29 252 q 36 270 31 259 q 47 291 41 280 q 58 312 52 302 q 67 329 63 322 l 524 329 l 541 308 "},"˚":{"x_min":106,"x_max":373,"ha":317,"o":"m 283 856 q 273 890 283 877 q 249 903 264 903 q 225 896 236 903 q 207 878 214 890 q 195 853 199 867 q 191 822 191 838 q 201 788 191 801 q 226 775 211 775 q 248 781 238 775 q 266 799 258 788 q 278 825 274 810 q 283 856 283 840 m 373 882 q 359 819 373 852 q 323 759 346 786 q 269 713 300 731 q 201 695 238 695 q 160 703 177 695 q 130 725 142 711 q 112 757 118 739 q 106 793 106 774 q 118 859 106 825 q 154 921 131 893 q 206 967 176 949 q 273 985 237 985 q 315 976 297 985 q 346 954 334 968 q 366 921 359 940 q 373 882 373 903 "},"ú":{"x_min":16.6875,"x_max":724.890625,"ha":747,"o":"m 724 72 q 670 35 697 53 q 617 3 642 17 q 569 -19 591 -10 q 531 -28 547 -28 q 501 -17 516 -28 q 472 13 485 -7 q 451 66 460 34 q 443 140 443 98 q 386 73 416 104 q 323 20 356 42 q 258 -15 291 -2 q 195 -28 225 -28 q 154 -17 175 -28 q 115 14 133 -6 q 86 66 98 35 q 75 138 75 97 q 78 187 75 159 q 86 247 81 215 q 97 311 91 278 q 108 375 103 345 q 116 432 113 406 q 120 474 120 457 q 117 499 120 490 q 112 512 115 508 q 103 518 108 517 q 92 520 98 520 q 75 517 85 520 q 53 511 64 515 q 27 503 41 508 l 16 549 q 82 577 45 562 q 155 605 119 592 q 219 626 190 618 q 260 635 248 635 q 287 622 280 635 q 294 577 294 609 q 289 526 294 558 q 279 457 285 494 q 267 380 273 420 q 254 303 260 340 q 244 234 248 265 q 240 182 240 202 q 251 124 240 144 q 276 105 262 105 q 305 114 287 105 q 345 144 322 123 q 395 196 368 164 q 452 274 421 229 q 461 330 456 302 q 470 385 466 359 q 477 435 474 412 q 481 474 481 458 q 479 499 481 490 q 474 512 477 508 q 466 518 470 517 q 455 520 462 520 q 439 517 449 520 q 420 511 430 515 q 396 503 408 508 l 384 549 q 449 577 412 562 q 519 605 485 592 q 581 626 553 618 q 621 635 609 635 q 646 622 640 635 q 653 577 653 609 q 649 528 653 558 q 640 466 645 499 q 628 396 634 432 q 617 325 622 359 q 608 261 612 291 q 604 208 604 230 q 614 122 604 146 q 640 98 623 98 q 673 102 658 98 q 712 116 688 106 l 724 72 m 674 927 l 419 691 q 395 703 408 694 q 373 725 383 713 l 532 995 l 558 990 q 597 983 576 987 q 635 974 617 978 q 659 968 653 970 l 674 927 "},"¯":{"x_min":113.25,"x_max":652.40625,"ha":614,"o":"m 652 869 q 644 849 650 861 q 631 825 638 837 q 618 801 624 812 q 608 785 611 790 l 128 785 l 113 806 q 121 825 115 813 q 133 848 126 836 q 146 872 140 860 q 156 890 152 884 l 634 890 l 652 869 "},"Z":{"x_min":10.84375,"x_max":733.09375,"ha":722,"o":"m 216 88 l 503 88 q 529 98 517 88 q 554 129 541 108 q 581 182 566 150 q 613 255 595 213 l 665 241 q 655 186 661 219 q 643 118 649 153 q 632 51 638 83 q 624 0 627 19 l 28 0 l 10 35 l 531 768 l 285 768 q 261 756 275 768 q 231 723 246 744 q 200 673 215 702 q 173 607 185 643 l 120 620 l 177 867 q 208 859 194 862 q 234 856 221 856 q 262 856 248 856 q 295 856 277 856 l 717 856 l 733 820 l 216 88 "},"u":{"x_min":16.6875,"x_max":724.890625,"ha":747,"o":"m 724 72 q 670 35 697 53 q 617 3 642 17 q 569 -19 591 -10 q 531 -28 547 -28 q 501 -17 516 -28 q 472 13 485 -7 q 451 66 460 34 q 443 140 443 98 q 386 73 416 104 q 323 20 356 42 q 258 -15 291 -2 q 195 -28 225 -28 q 154 -17 175 -28 q 115 14 133 -6 q 86 66 98 35 q 75 138 75 97 q 78 187 75 159 q 86 247 81 215 q 97 311 91 278 q 108 375 103 345 q 116 432 113 406 q 120 474 120 457 q 117 499 120 490 q 112 512 115 508 q 103 518 108 517 q 92 520 98 520 q 75 517 85 520 q 53 511 64 515 q 27 503 41 508 l 16 549 q 82 577 45 562 q 155 605 119 592 q 219 626 190 618 q 260 635 248 635 q 287 622 280 635 q 294 577 294 609 q 289 526 294 558 q 279 457 285 494 q 267 380 273 420 q 254 303 260 340 q 244 234 248 265 q 240 182 240 202 q 251 124 240 144 q 276 105 262 105 q 305 114 287 105 q 345 144 322 123 q 395 196 368 164 q 452 274 421 229 q 461 330 456 302 q 470 385 466 359 q 477 435 474 412 q 481 474 481 458 q 479 499 481 490 q 474 512 477 508 q 466 518 470 517 q 455 520 462 520 q 439 517 449 520 q 420 511 430 515 q 396 503 408 508 l 384 549 q 449 577 412 562 q 519 605 485 592 q 581 626 553 618 q 621 635 609 635 q 646 622 640 635 q 653 577 653 609 q 649 528 653 558 q 640 466 645 499 q 628 396 634 432 q 617 325 622 359 q 608 261 612 291 q 604 208 604 230 q 614 122 604 146 q 640 98 623 98 q 673 102 658 98 q 712 116 688 106 l 724 72 "},"k":{"x_min":48.515625,"x_max":691,"ha":681,"o":"m 350 961 q 345 895 350 934 q 335 808 341 856 q 320 704 328 759 q 301 591 311 649 q 282 473 292 532 q 263 358 272 414 l 378 443 q 453 501 425 478 q 488 538 481 524 q 479 556 495 551 q 425 562 464 562 l 419 608 q 528 623 474 616 q 624 631 582 631 q 677 619 664 631 q 691 584 691 607 q 676 556 691 573 q 633 515 661 538 q 565 463 605 491 q 475 403 525 435 l 390 351 q 423 306 407 332 q 455 251 439 280 q 485 195 471 223 q 515 146 500 168 q 543 110 529 124 q 570 97 557 97 q 609 101 586 97 q 657 119 632 105 l 679 76 q 631 38 657 57 q 580 5 605 20 q 533 -17 555 -8 q 496 -27 511 -27 q 451 -6 473 -27 q 409 45 430 13 q 369 117 389 77 q 330 195 350 156 q 293 268 311 234 q 257 323 275 302 q 243 227 250 272 q 233 145 237 182 q 230 82 230 109 q 234 43 230 56 q 202 28 224 38 q 154 7 180 18 q 107 -13 129 -3 q 77 -28 85 -23 l 48 -2 q 58 59 51 17 q 74 158 64 101 q 94 283 83 215 q 117 422 106 351 q 139 561 128 492 q 157 690 149 630 q 170 797 165 750 q 176 870 176 844 q 173 896 176 887 q 167 911 171 906 q 157 916 163 915 q 143 918 151 918 q 126 914 138 918 q 103 908 114 911 q 74 899 89 904 l 62 946 q 128 973 91 959 q 202 1001 166 988 q 268 1022 238 1014 q 309 1031 297 1031 q 326 1028 319 1031 q 339 1019 334 1026 q 347 998 344 1012 q 350 961 350 984 "},"Ù":{"x_min":109.515625,"x_max":905.3125,"ha":860,"o":"m 898 805 q 834 784 855 795 q 812 763 813 772 l 753 347 q 708 189 741 258 q 629 73 676 120 q 522 3 581 27 q 395 -21 462 -21 q 289 -4 339 -21 q 201 45 239 12 q 141 125 163 78 q 119 236 119 173 q 125 314 119 272 l 188 763 q 171 783 190 771 q 109 805 153 795 l 115 854 l 442 854 l 435 805 q 368 784 392 795 q 343 763 345 772 l 284 346 q 279 306 281 326 q 278 269 278 287 q 319 126 278 174 q 445 78 360 78 q 522 97 489 78 q 579 147 556 115 q 618 223 603 179 q 639 318 632 267 l 701 763 q 698 772 702 767 q 686 783 695 778 q 662 794 677 789 q 625 805 647 800 l 632 855 l 905 855 l 898 805 m 634 955 q 614 928 625 941 q 592 908 603 914 l 305 1068 l 315 1110 q 345 1127 327 1118 q 381 1146 362 1137 q 416 1163 400 1155 q 442 1174 433 1170 l 634 955 "},"Ů":{"x_min":109.515625,"x_max":905.515625,"ha":860,"o":"m 898 805 q 834 784 856 795 q 812 763 813 772 l 753 347 q 708 189 741 258 q 629 73 676 120 q 522 3 582 27 q 395 -21 462 -21 q 289 -4 340 -21 q 201 45 239 12 q 141 125 163 78 q 119 236 119 173 q 125 314 119 272 l 188 763 q 171 783 190 771 q 109 805 153 795 l 115 854 l 442 854 l 435 805 q 368 784 392 795 q 343 763 345 772 l 284 346 q 279 306 281 326 q 278 269 278 287 q 319 126 278 174 q 445 78 360 78 q 523 97 489 78 q 580 147 556 115 q 618 223 603 179 q 639 318 632 267 l 702 763 q 699 772 702 767 q 686 783 695 778 q 662 794 677 789 q 626 805 647 800 l 632 855 l 905 855 l 898 805 m 589 1074 q 579 1107 589 1095 q 555 1120 569 1120 q 531 1114 542 1120 q 512 1096 520 1108 q 500 1071 504 1085 q 496 1040 496 1056 q 506 1006 496 1019 q 531 993 516 993 q 554 999 543 993 q 572 1017 564 1005 q 584 1043 580 1028 q 589 1074 589 1058 m 679 1099 q 665 1037 679 1070 q 629 976 652 1004 q 574 931 606 949 q 507 912 543 912 q 465 921 483 912 q 435 943 447 929 q 417 974 423 957 q 411 1011 411 992 q 423 1077 411 1043 q 459 1139 436 1111 q 512 1185 482 1167 q 579 1203 543 1203 q 621 1194 602 1203 q 652 1172 639 1186 q 672 1139 665 1158 q 679 1099 679 1121 "},"¢":{"x_min":60,"x_max":646.3125,"ha":631,"o":"m 215 345 q 234 245 215 283 q 282 191 254 207 l 340 615 q 287 572 311 601 q 248 506 264 544 q 223 427 231 469 q 215 345 215 385 m 430 715 q 442 715 436 715 q 454 715 448 715 q 514 703 486 715 q 567 678 543 692 q 612 651 592 664 q 646 635 632 638 q 626 616 638 628 q 602 590 615 604 q 575 563 589 577 q 549 538 561 549 q 525 520 536 527 q 508 513 515 513 q 492 525 501 513 q 473 555 483 538 q 448 589 462 571 q 417 616 434 607 l 356 180 q 394 192 375 183 q 434 215 413 201 q 480 250 455 230 q 537 296 505 270 q 544 285 539 292 q 555 270 550 278 q 565 256 560 263 q 571 246 569 249 q 500 184 532 211 q 442 138 469 157 q 391 105 415 118 q 343 85 367 92 l 332 3 q 301 -18 320 -8 q 266 -33 282 -28 l 253 -18 l 266 75 q 224 80 246 75 q 178 96 201 85 q 134 126 155 108 q 96 172 112 144 q 69 235 79 199 q 60 319 60 271 q 72 411 60 364 q 110 501 85 457 q 173 586 135 546 q 261 660 211 626 q 303 683 280 672 q 352 701 326 693 l 364 789 q 396 811 382 801 q 429 825 411 820 l 443 809 l 430 715 "},"é":{"x_min":33,"x_max":621.046875,"ha":587,"o":"m 270 499 q 214 410 236 460 q 192 294 192 360 q 298 349 258 324 q 357 395 337 373 q 383 437 377 416 q 390 479 390 457 q 376 527 390 511 q 343 543 362 543 q 328 539 337 543 q 309 531 320 536 q 289 517 299 526 q 270 499 278 509 m 560 515 q 555 475 560 496 q 537 431 551 454 q 499 382 524 408 q 434 330 475 357 q 334 275 393 303 q 193 217 275 246 q 207 158 198 184 q 230 114 217 132 q 259 86 243 96 q 291 77 274 77 q 375 103 320 77 q 513 195 430 129 q 521 186 517 193 q 531 172 526 180 q 539 157 536 164 q 544 147 543 150 q 443 65 488 99 q 360 11 398 32 q 290 -18 322 -9 q 227 -28 258 -28 q 165 -15 199 -28 q 102 24 132 -2 q 53 96 73 52 q 33 205 33 140 q 45 306 33 258 q 82 399 58 355 q 140 482 106 443 q 217 558 174 522 q 254 584 232 571 q 302 609 276 598 q 356 627 328 620 q 410 635 384 635 q 477 624 449 635 q 524 596 505 613 q 551 558 542 580 q 560 515 560 537 m 621 927 l 364 691 q 340 703 353 694 q 318 725 328 713 l 477 995 l 504 990 q 542 983 522 987 q 581 974 563 978 q 605 968 599 970 l 621 927 "},"B":{"x_min":-3,"x_max":695,"ha":739,"o":"m 695 279 q 666 159 695 213 q 589 65 638 104 q 474 4 540 26 q 333 -17 408 -17 q 299 -17 319 -17 q 256 -17 279 -17 q 207 -17 233 -17 q 157 -9 181 -17 q 35 0 99 -9 l -3 0 l -3 49 q 65 70 42 58 q 89 90 88 81 l 187 792 q 136 784 159 788 q 91 775 113 780 l 91 832 q 236 862 154 849 q 412 875 317 875 q 621 829 551 875 q 691 705 691 784 q 647 577 691 634 q 520 490 603 520 q 591 466 559 485 q 646 419 623 448 q 682 355 669 391 q 695 279 695 320 m 372 430 q 326 427 342 430 q 293 421 309 424 l 247 90 q 257 75 245 84 q 306 60 279 64 q 361 56 333 56 q 432 71 401 56 q 484 114 463 87 q 517 177 506 141 q 528 254 528 212 q 520 319 528 288 q 494 375 512 351 q 445 415 475 400 q 372 430 416 430 m 384 802 l 364 802 q 346 802 355 802 l 304 502 l 326 502 q 397 511 362 502 q 461 539 433 520 q 506 591 489 559 q 524 669 524 623 q 510 732 524 706 q 477 773 497 757 q 432 795 456 788 q 384 802 407 802 "},"…":{"x_min":30,"x_max":904,"ha":990,"o":"m 904 113 q 895 66 904 90 q 871 23 887 42 q 831 -8 855 4 q 777 -21 808 -21 q 715 0 735 -21 q 695 56 695 21 q 704 101 695 78 q 730 143 713 124 q 770 175 746 162 q 822 187 793 187 q 883 166 863 187 q 904 113 904 145 m 571 113 q 562 66 571 90 q 538 23 554 42 q 498 -8 522 4 q 444 -21 475 -21 q 382 0 402 -21 q 363 56 363 21 q 371 101 363 78 q 397 143 380 124 q 437 175 413 162 q 489 187 460 187 q 550 166 530 187 q 571 113 571 145 m 238 113 q 229 66 238 90 q 205 23 221 42 q 165 -8 189 4 q 111 -21 142 -21 q 49 0 69 -21 q 30 56 30 21 q 38 101 30 78 q 64 143 47 124 q 104 175 80 162 q 156 187 127 187 q 217 166 197 187 q 238 113 238 145 "},"ē":{"x_min":33,"x_max":669.1875,"ha":587,"o":"m 270 500 q 214 410 236 460 q 192 294 192 360 q 298 349 258 324 q 357 395 337 373 q 383 437 377 417 q 390 480 390 457 q 376 527 390 511 q 343 543 362 543 q 328 540 337 543 q 309 531 320 537 q 289 518 299 526 q 270 500 278 510 m 560 515 q 555 475 560 496 q 537 431 551 454 q 499 382 524 408 q 434 330 475 357 q 334 275 393 303 q 193 217 275 246 q 207 158 198 184 q 230 114 217 132 q 259 86 243 96 q 291 77 274 77 q 375 103 320 77 q 513 195 430 129 q 521 187 517 193 q 531 172 526 180 q 539 157 536 164 q 544 147 543 150 q 443 65 488 99 q 360 11 398 32 q 290 -18 322 -9 q 227 -28 258 -28 q 165 -15 199 -28 q 102 24 132 -2 q 53 96 73 52 q 33 205 33 141 q 45 306 33 258 q 82 399 58 355 q 140 483 106 443 q 217 559 174 523 q 254 585 232 571 q 302 609 276 598 q 356 627 328 620 q 410 635 384 635 q 477 624 449 635 q 524 596 505 613 q 551 558 542 580 q 560 515 560 537 m 669 869 q 661 849 667 861 q 648 825 654 837 q 634 801 641 812 q 625 785 628 790 l 145 785 l 129 806 q 137 825 132 813 q 150 848 143 836 q 162 872 156 860 q 173 890 169 884 l 651 890 l 669 869 "},"H":{"x_min":-5.421875,"x_max":925.015625,"ha":886,"o":"m 435 805 q 367 784 391 795 q 342 763 343 772 l 305 488 l 630 488 l 668 763 q 651 783 670 771 q 588 805 632 795 l 594 854 l 925 854 l 918 805 q 850 784 874 795 q 826 763 827 772 l 733 90 q 751 70 732 82 q 814 49 770 58 l 808 0 l 478 0 l 484 49 q 552 70 528 58 q 576 90 575 81 l 619 407 l 293 407 l 250 90 q 268 70 249 82 q 331 49 286 58 l 324 0 l -5 0 l 1 49 q 68 70 45 58 q 93 90 92 81 l 185 763 q 168 783 187 771 q 105 805 149 795 l 111 854 l 442 854 l 435 805 "},"î":{"x_min":36.984375,"x_max":491,"ha":385,"o":"m 364 74 q 299 37 332 55 q 235 4 265 19 q 177 -19 204 -10 q 131 -28 150 -28 q 92 -6 108 -28 q 77 51 77 14 q 81 106 77 71 q 93 182 86 141 q 108 268 99 223 q 122 353 116 313 q 134 425 129 394 q 139 474 139 457 q 136 499 139 490 q 131 512 134 508 q 122 518 128 517 q 111 520 117 520 q 95 517 105 520 q 74 511 85 515 q 49 503 62 508 l 36 549 q 101 577 65 562 q 171 605 137 592 q 233 626 205 618 q 274 635 261 635 q 303 622 293 635 q 314 577 314 609 q 309 523 314 558 q 297 445 304 488 q 281 357 289 403 q 265 269 273 312 q 253 192 258 227 q 249 137 249 157 q 253 107 249 116 q 269 98 257 98 q 288 99 279 98 q 306 103 297 100 q 326 110 316 106 q 351 120 337 114 l 364 74 m 491 731 q 468 707 481 718 q 444 691 455 696 l 293 845 l 98 691 q 80 706 92 695 q 61 731 68 718 l 264 988 l 356 988 l 491 731 "},"¥":{"x_min":14,"x_max":734.890625,"ha":632,"o":"m 728 770 q 664 752 686 762 q 632 726 643 743 l 402 347 l 401 341 l 562 341 l 575 326 l 544 261 l 391 261 l 369 97 q 372 87 368 93 q 386 75 376 81 q 413 62 396 69 q 458 49 431 55 l 452 0 l 107 0 l 114 49 q 161 62 142 55 q 192 75 180 69 q 209 86 204 81 q 215 97 214 92 l 236 261 l 62 261 l 51 277 q 56 290 52 281 q 65 309 60 299 q 74 328 69 319 q 80 341 78 337 l 247 341 l 249 351 q 218 456 235 402 q 181 558 200 509 q 142 651 161 607 q 104 726 122 694 q 94 740 99 734 q 78 749 88 746 q 53 754 68 753 q 14 756 37 756 l 14 805 q 58 811 33 807 q 107 819 82 815 q 154 825 132 822 q 188 827 176 827 q 219 819 203 827 q 243 796 235 811 q 280 723 262 762 q 316 641 298 683 q 349 553 333 598 q 377 463 364 508 l 536 726 q 533 753 547 743 q 473 770 519 764 l 480 819 l 734 819 l 728 770 "},"Ĥ":{"x_min":-5.421875,"x_max":925.015625,"ha":886,"o":"m 435 805 q 367 784 391 795 q 342 763 343 772 l 305 488 l 630 488 l 668 763 q 651 783 670 771 q 588 805 632 795 l 594 854 l 925 854 l 918 805 q 850 784 874 795 q 826 763 827 772 l 733 90 q 751 70 732 82 q 814 49 770 58 l 808 0 l 478 0 l 484 49 q 552 70 528 58 q 576 90 575 81 l 619 407 l 293 407 l 250 90 q 268 70 249 82 q 331 49 286 58 l 324 0 l -5 0 l 1 49 q 68 70 45 58 q 93 90 92 81 l 185 763 q 168 783 187 771 q 105 805 149 795 l 111 854 l 442 854 l 435 805 m 748 949 q 728 924 738 935 q 707 908 718 913 l 548 1027 l 360 908 q 344 923 354 912 q 328 949 335 935 l 524 1158 l 607 1158 l 748 949 "},"U":{"x_min":109.515625,"x_max":905.3125,"ha":860,"o":"m 898 805 q 834 784 855 795 q 812 763 813 772 l 753 347 q 708 189 741 258 q 629 73 676 120 q 522 3 581 27 q 395 -21 462 -21 q 289 -4 339 -21 q 201 45 239 12 q 141 125 163 78 q 119 236 119 173 q 125 314 119 272 l 188 763 q 171 783 190 771 q 109 805 153 795 l 115 854 l 442 854 l 435 805 q 368 784 392 795 q 343 763 345 772 l 284 346 q 279 306 281 326 q 278 269 278 287 q 319 126 278 174 q 445 78 360 78 q 522 97 489 78 q 579 147 556 115 q 618 223 603 179 q 639 318 632 267 l 701 763 q 698 772 702 767 q 686 783 695 778 q 662 794 677 789 q 625 805 647 800 l 632 855 l 905 855 l 898 805 "},"Ñ":{"x_min":-1.359375,"x_max":915.53125,"ha":858,"o":"m 909 805 q 840 785 862 798 q 817 763 819 773 l 710 -20 q 616 4 651 -14 q 566 54 582 23 l 263 625 l 190 90 q 193 81 189 86 q 206 69 196 75 q 231 58 215 63 q 270 49 246 52 l 263 0 l -1 0 l 5 49 q 73 68 52 55 q 96 90 94 81 l 187 756 q 107 805 153 797 l 113 854 l 286 854 q 304 853 297 854 q 316 846 310 852 q 327 830 322 841 q 343 801 333 820 l 650 223 l 724 763 q 721 773 724 767 q 709 784 718 778 q 684 795 700 790 q 644 805 668 801 l 650 855 l 915 855 l 909 805 m 788 1106 q 765 1067 778 1088 q 738 1025 753 1046 q 708 984 724 1004 q 673 950 691 965 q 636 926 655 935 q 598 918 617 918 q 548 928 571 918 q 504 952 525 939 q 461 977 482 966 q 416 988 440 988 q 390 983 402 988 q 366 968 378 978 q 342 944 354 958 q 315 911 329 930 l 271 930 q 306 990 286 957 q 351 1052 327 1023 q 404 1100 376 1081 q 461 1120 432 1120 q 514 1108 490 1120 q 559 1084 538 1097 q 600 1060 581 1071 q 640 1049 620 1049 q 692 1068 669 1049 q 742 1126 716 1087 l 788 1106 "},"F":{"x_min":-5.421875,"x_max":692.40625,"ha":646,"o":"m 552 474 q 536 450 545 463 q 517 424 526 436 q 498 402 507 412 q 482 386 489 392 q 462 403 473 396 q 438 415 452 411 q 404 421 423 419 q 360 424 385 424 l 295 424 l 250 90 q 253 82 249 86 q 269 72 258 77 q 301 61 281 67 q 350 49 320 55 l 343 0 l -5 0 l 1 49 q 68 70 45 59 q 93 90 92 81 l 185 763 q 168 783 187 771 q 105 805 149 795 l 111 855 l 672 855 l 692 833 q 683 789 689 815 q 670 734 677 762 q 655 682 663 707 q 642 644 648 657 l 594 644 q 592 740 600 707 q 560 773 583 773 l 343 773 l 305 498 l 533 498 l 552 474 "},"ā":{"x_min":26,"x_max":697.4375,"ha":669,"o":"m 395 256 q 404 317 399 285 q 414 381 409 350 q 424 442 419 413 q 433 491 429 470 q 392 524 413 509 q 349 538 370 538 q 297 524 320 538 q 254 488 273 510 q 222 437 236 466 q 198 377 207 408 q 184 315 189 346 q 180 257 180 284 q 185 190 180 219 q 199 143 190 162 q 220 115 209 125 q 245 106 232 106 q 306 144 267 106 q 395 256 345 183 m 664 72 q 607 33 636 51 q 554 1 579 15 q 510 -20 530 -12 q 478 -28 491 -28 q 452 -20 467 -28 q 424 5 437 -13 q 400 55 411 24 q 390 134 390 87 q 342 75 366 104 q 290 23 317 46 q 235 -14 263 0 q 180 -28 207 -28 q 129 -15 156 -28 q 79 25 101 -2 q 41 98 56 54 q 26 206 26 143 q 39 311 26 260 q 78 409 53 362 q 141 497 104 456 q 227 571 179 538 q 268 594 245 583 q 315 615 290 606 q 368 629 340 624 q 424 635 395 635 q 480 622 452 635 q 531 594 507 609 q 577 615 554 605 q 618 635 600 625 l 639 590 q 620 573 628 581 q 607 556 613 566 q 597 532 601 546 q 588 495 593 518 q 570 400 578 446 q 556 316 562 354 q 548 249 550 278 q 545 205 545 220 q 555 128 545 158 q 581 98 565 98 q 610 101 595 98 q 654 116 626 105 l 664 72 m 697 869 q 689 849 695 861 q 676 825 683 837 q 663 801 669 812 q 653 785 656 790 l 173 785 l 158 806 q 166 825 161 813 q 178 848 171 836 q 191 872 185 860 q 201 890 197 884 l 679 890 l 697 869 "},"Ĩ":{"x_min":8.8125,"x_max":564.921875,"ha":429,"o":"m 448 805 q 381 784 404 795 q 356 763 357 772 l 263 90 q 281 70 262 82 q 344 49 299 59 l 337 0 l 8 0 l 15 49 q 82 70 58 59 q 107 90 105 81 l 198 763 q 181 783 200 771 q 118 805 162 795 l 125 854 l 455 854 l 448 805 m 564 1106 q 542 1067 555 1088 q 515 1025 530 1046 q 484 984 501 1004 q 450 950 468 965 q 413 926 432 935 q 375 918 394 918 q 325 928 347 918 q 281 952 302 939 q 238 977 259 966 q 193 988 217 988 q 167 983 179 988 q 143 968 155 978 q 119 944 131 958 q 92 911 106 930 l 48 930 q 83 990 63 957 q 128 1052 104 1023 q 181 1100 153 1081 q 238 1120 208 1120 q 291 1108 267 1120 q 336 1084 315 1097 q 377 1060 358 1071 q 417 1049 397 1049 q 469 1068 446 1049 q 519 1126 493 1087 l 564 1106 "},"ă":{"x_min":26,"x_max":664.890625,"ha":669,"o":"m 395 256 q 404 317 399 285 q 414 381 409 350 q 424 442 419 413 q 433 491 429 470 q 392 523 413 509 q 349 538 370 538 q 297 524 320 538 q 254 488 273 510 q 222 437 236 466 q 198 377 207 408 q 184 315 189 346 q 180 257 180 284 q 185 190 180 219 q 199 143 190 162 q 220 115 209 125 q 245 106 232 106 q 306 144 267 106 q 395 256 345 183 m 664 72 q 607 33 636 51 q 554 1 579 15 q 510 -20 530 -12 q 478 -28 491 -28 q 452 -20 467 -28 q 424 5 437 -13 q 400 55 411 24 q 390 134 390 87 q 342 75 366 104 q 290 23 317 46 q 235 -14 263 0 q 180 -28 207 -28 q 129 -15 156 -28 q 79 25 101 -2 q 41 98 56 54 q 26 206 26 143 q 39 311 26 260 q 78 409 53 362 q 141 497 104 456 q 227 571 179 538 q 268 594 245 583 q 315 615 290 606 q 368 629 340 624 q 424 635 395 635 q 480 622 452 635 q 531 594 507 609 q 577 615 554 605 q 618 635 600 625 l 639 590 q 620 573 628 581 q 607 556 613 566 q 597 532 601 546 q 588 495 593 518 q 570 400 578 446 q 556 316 562 354 q 548 249 550 278 q 545 205 545 220 q 555 128 545 158 q 581 98 565 98 q 610 101 595 98 q 654 116 626 105 l 664 72 m 652 905 q 595 813 626 850 q 530 752 563 775 q 464 718 497 728 q 405 707 432 707 q 345 718 375 707 q 288 752 314 728 q 241 813 262 776 q 209 905 220 851 q 220 919 213 911 q 234 933 227 926 q 249 946 242 940 q 261 955 255 952 q 289 898 271 921 q 327 862 306 876 q 371 842 348 848 q 413 836 393 836 q 460 842 434 836 q 512 862 486 848 q 563 898 539 876 q 607 955 588 921 q 618 946 611 952 q 630 934 624 941 q 642 919 637 926 q 652 905 648 911 "},"*":{"x_min":-4.390625,"x_max":528.71875,"ha":502,"o":"m 300 827 l 454 952 l 471 938 q 493 917 481 928 q 514 896 504 906 q 528 880 524 886 l 518 842 l 325 770 l 484 705 q 479 681 483 697 q 470 647 475 664 q 460 613 465 629 q 452 590 455 598 l 417 577 l 290 711 l 290 522 q 268 511 282 518 q 237 498 253 505 q 207 487 221 492 q 186 480 192 481 l 162 504 l 224 710 l 70 586 q 53 600 64 590 q 30 621 42 610 q 9 642 19 632 q -4 658 0 652 l 7 696 l 200 767 l 40 833 l 46 857 q 55 891 50 873 q 64 924 60 909 q 72 947 68 940 l 106 961 l 235 827 l 235 1016 q 256 1026 242 1020 q 286 1039 270 1033 q 317 1051 302 1046 q 338 1059 331 1056 l 363 1034 l 300 827 "},"†":{"x_min":93.546875,"x_max":658.34375,"ha":620,"o":"m 658 754 q 639 721 652 743 q 612 674 627 699 q 582 627 597 650 q 558 591 568 604 q 522 614 540 604 q 485 631 504 624 q 446 644 466 639 q 402 650 426 648 q 405 555 402 604 q 423 461 409 507 q 369 318 390 386 q 339 185 349 250 q 335 106 335 146 q 347 25 335 66 q 326 12 341 20 q 292 -2 310 5 q 257 -17 274 -10 q 233 -26 241 -24 l 214 -7 q 233 40 224 15 q 250 90 242 65 q 263 140 258 116 q 271 185 269 165 q 278 319 278 252 q 264 461 278 387 q 307 555 290 507 q 334 650 324 604 q 221 631 276 645 q 108 591 166 617 l 93 626 q 112 659 99 638 q 140 705 125 681 q 169 753 155 730 q 193 788 184 775 q 229 766 212 776 q 265 749 247 756 q 303 737 283 742 q 347 730 323 733 q 341 830 347 785 q 317 923 335 875 q 352 943 330 931 q 398 967 374 955 q 443 989 421 979 q 475 1004 464 999 l 502 982 q 449 857 471 920 q 415 733 427 794 q 529 748 473 733 q 643 788 585 763 l 658 754 "},"°":{"x_min":126,"x_max":452,"ha":453,"o":"m 275 592 q 308 602 294 592 q 333 625 323 611 q 349 657 343 639 q 355 692 355 675 q 351 717 355 704 q 341 738 348 729 q 325 754 335 748 q 302 760 315 760 q 274 752 288 760 q 248 731 260 744 q 230 699 237 717 q 223 660 223 681 q 238 610 223 628 q 275 592 254 592 m 452 728 q 431 636 452 678 q 379 564 410 595 q 310 516 347 533 q 239 500 273 500 q 188 510 209 500 q 152 539 166 521 q 132 578 138 556 q 126 622 126 600 q 145 711 126 669 q 196 784 165 753 q 264 834 227 816 q 337 853 302 853 q 385 843 364 853 q 422 815 407 833 q 444 775 437 798 q 452 728 452 753 "},"å":{"x_min":26,"x_max":664.25,"ha":668,"o":"m 395 256 q 404 317 399 285 q 414 381 409 350 q 424 442 419 413 q 433 491 429 470 q 391 523 413 509 q 349 538 370 538 q 297 524 320 538 q 254 488 273 510 q 221 437 236 466 q 198 377 207 408 q 184 315 189 346 q 180 257 180 284 q 185 190 180 219 q 199 143 190 162 q 220 115 209 125 q 245 106 232 106 q 306 144 267 106 q 395 256 345 183 m 664 72 q 607 33 635 51 q 554 1 578 15 q 510 -20 529 -12 q 478 -28 490 -28 q 452 -20 467 -28 q 424 5 437 -13 q 400 55 411 24 q 390 134 390 87 q 342 75 367 104 q 291 23 318 46 q 236 -14 264 0 q 180 -28 208 -28 q 129 -15 156 -28 q 79 25 102 -2 q 41 98 56 54 q 26 206 26 143 q 39 311 26 260 q 78 409 53 362 q 141 497 104 456 q 227 571 179 538 q 268 594 245 583 q 315 615 290 606 q 368 629 340 624 q 423 635 395 635 q 479 622 452 635 q 531 594 507 609 q 576 615 553 605 q 618 635 599 625 l 639 590 q 620 573 627 581 q 607 556 612 566 q 597 532 601 546 q 588 495 593 518 q 570 400 578 446 q 556 316 562 354 q 548 249 550 278 q 545 205 545 220 q 555 128 545 158 q 581 98 565 98 q 610 101 594 98 q 653 116 626 105 l 664 72 m 461 857 q 451 890 461 877 q 427 903 442 903 q 403 897 414 903 q 385 879 393 890 q 373 853 377 868 q 369 822 369 839 q 378 788 369 801 q 404 775 388 775 q 426 781 415 775 q 444 799 436 788 q 456 825 452 810 q 461 857 461 840 m 551 882 q 537 819 551 852 q 501 759 524 786 q 447 713 478 731 q 380 695 415 695 q 338 703 356 695 q 308 725 320 712 q 290 757 296 739 q 284 793 284 775 q 296 860 284 826 q 332 922 309 894 q 385 967 354 949 q 451 986 415 986 q 493 977 474 986 q 524 955 511 969 q 544 922 537 941 q 551 882 551 903 "},"0":{"x_min":22,"x_max":609,"ha":633,"o":"m 443 548 q 435 640 443 602 q 415 703 428 679 q 386 738 402 727 q 348 749 369 749 q 286 723 312 749 q 241 653 260 696 q 211 556 223 610 q 192 449 199 502 q 186 347 186 395 q 186 268 186 299 q 209 116 186 164 q 284 68 233 68 q 340 91 315 68 q 383 154 365 115 q 414 242 402 192 q 435 346 427 293 q 443 452 443 399 q 443 548 443 504 m 609 531 q 588 339 609 430 q 516 160 568 247 q 466 89 494 122 q 403 31 438 56 q 329 -6 369 7 q 244 -21 290 -21 q 152 3 193 -21 q 82 70 110 28 q 37 168 53 113 q 22 286 22 224 q 26 386 22 339 q 42 477 31 433 q 69 564 52 521 q 110 652 86 607 q 159 724 131 690 q 223 783 188 758 q 299 823 258 808 q 386 838 340 838 q 474 816 433 838 q 545 754 515 794 q 592 658 575 715 q 609 531 609 601 "},"ō":{"x_min":26,"x_max":660.84375,"ha":617,"o":"m 432 326 q 424 417 432 377 q 400 485 415 457 q 366 526 386 512 q 325 540 346 540 q 259 517 285 540 q 215 456 232 493 q 192 374 199 419 q 185 285 185 328 q 194 199 185 239 q 220 129 204 159 q 256 81 236 99 q 298 64 277 64 q 343 75 323 64 q 378 107 363 87 q 403 153 393 127 q 420 208 414 179 q 429 268 426 237 q 432 326 432 298 m 591 379 q 579 287 591 333 q 546 196 567 240 q 494 113 524 153 q 425 42 463 73 q 386 15 407 28 q 341 -7 364 2 q 295 -22 318 -17 q 252 -28 272 -28 q 157 -7 199 -28 q 86 46 115 12 q 41 129 57 81 q 26 233 26 177 q 35 327 26 282 q 65 415 45 373 q 117 496 85 457 q 194 569 149 535 q 233 595 212 583 q 278 616 255 607 q 325 629 301 624 q 371 635 349 635 q 465 615 424 635 q 534 563 506 596 q 576 482 562 529 q 591 379 591 435 m 660 869 q 652 849 658 861 q 639 825 646 837 q 626 801 633 812 q 616 785 620 790 l 137 785 l 121 806 q 129 825 124 813 q 142 848 135 836 q 155 872 148 860 q 165 890 161 884 l 643 890 l 660 869 "},"”":{"x_min":90.203125,"x_max":628,"ha":630,"o":"m 328 876 q 309 790 328 833 q 263 708 291 747 q 199 635 234 669 q 130 578 164 601 l 91 612 q 122 651 106 629 q 149 696 137 673 q 169 743 162 719 q 177 789 177 767 q 153 840 177 823 q 96 857 130 857 l 90 907 q 108 920 94 912 q 141 935 122 927 q 180 951 159 943 q 220 965 201 959 q 255 975 240 972 q 279 978 271 979 q 312 941 297 966 q 328 876 328 916 m 628 876 q 610 790 628 833 q 563 708 592 747 q 500 635 535 669 q 431 578 465 601 l 392 612 q 422 651 407 629 q 450 696 438 673 q 469 743 462 719 q 477 789 477 767 q 454 840 477 823 q 397 857 431 857 l 391 907 q 410 920 396 912 q 442 935 424 927 q 481 951 460 943 q 522 965 502 959 q 556 975 541 972 q 579 978 572 979 q 612 941 597 966 q 628 876 628 916 "},"ŵ":{"x_min":-7.875,"x_max":943,"ha":941,"o":"m 943 583 q 938 543 943 565 q 922 491 933 521 q 892 420 911 461 q 844 324 873 380 q 776 197 816 269 q 685 30 737 124 q 664 18 679 26 q 630 1 648 10 q 597 -16 613 -7 q 574 -27 581 -24 l 546 -1 q 531 112 539 56 q 515 218 523 167 q 499 312 507 269 q 481 387 490 355 q 462 326 475 363 q 429 243 449 289 q 383 145 409 198 q 326 37 357 93 q 303 25 320 34 q 265 5 285 16 q 227 -15 245 -5 q 203 -27 209 -24 l 176 -1 q 167 82 172 37 q 157 174 163 127 q 148 266 152 220 q 138 350 143 311 q 129 417 133 388 q 122 460 125 446 q 112 489 118 478 q 100 506 106 500 q 87 514 93 512 q 74 516 80 516 q 57 513 68 516 q 34 507 46 511 q 7 499 21 504 l -7 544 q 54 576 21 559 q 117 605 87 592 q 171 626 147 618 q 206 635 195 635 q 235 612 225 635 q 255 542 244 590 q 263 499 259 527 q 272 436 268 471 q 281 362 276 401 q 290 287 286 323 q 297 222 294 252 q 300 175 300 192 q 351 282 327 228 q 394 388 376 337 q 423 481 412 438 q 435 555 435 525 q 467 582 448 568 q 505 607 486 596 q 542 627 524 619 q 569 635 559 635 q 576 623 572 635 q 586 594 581 612 q 597 552 592 576 q 609 502 603 528 q 619 452 614 477 q 628 407 624 427 q 638 343 633 375 q 649 279 644 310 q 658 219 654 248 q 665 166 662 191 q 773 377 736 294 q 810 501 810 460 q 800 523 810 515 q 772 532 790 532 q 746 529 763 532 q 715 522 730 526 l 698 567 q 751 595 723 582 q 803 616 778 607 q 850 630 828 625 q 886 635 871 635 q 907 633 897 635 q 925 626 917 631 q 938 610 933 620 q 943 583 943 600 m 771 731 q 748 707 761 718 q 725 691 736 696 l 573 845 l 378 691 q 360 706 372 695 q 341 731 348 718 l 544 988 l 637 988 l 771 731 "},"ö":{"x_min":26,"x_max":601,"ha":617,"o":"m 432 326 q 424 417 432 377 q 400 484 415 457 q 366 526 386 512 q 325 540 346 540 q 259 516 285 540 q 215 456 232 493 q 192 373 199 419 q 185 285 185 328 q 194 199 185 239 q 220 129 204 159 q 256 81 236 99 q 298 64 277 64 q 343 75 323 64 q 378 107 363 87 q 403 153 393 127 q 420 208 414 179 q 429 268 426 237 q 432 326 432 298 m 591 379 q 579 287 591 333 q 546 196 567 240 q 494 113 524 153 q 425 42 463 73 q 386 15 408 28 q 341 -7 364 2 q 295 -22 318 -17 q 252 -28 273 -28 q 157 -7 199 -28 q 86 46 115 12 q 41 129 57 81 q 26 233 26 177 q 35 327 26 282 q 65 415 45 373 q 117 496 85 457 q 194 569 149 535 q 233 595 212 583 q 278 616 255 607 q 325 629 301 624 q 371 635 349 635 q 465 615 424 635 q 534 563 506 596 q 576 482 562 529 q 591 379 591 435 m 339 861 q 331 818 339 840 q 310 777 324 795 q 276 747 296 759 q 230 735 256 735 q 182 755 198 735 q 167 803 167 776 q 174 845 167 822 q 195 886 181 867 q 229 917 209 904 q 275 930 249 930 q 303 924 291 930 q 323 908 315 918 q 334 886 330 899 q 339 861 339 874 m 601 861 q 593 818 601 840 q 572 777 586 795 q 538 747 558 759 q 492 735 517 735 q 445 755 461 735 q 430 803 430 776 q 437 845 430 822 q 458 886 444 867 q 492 917 472 904 q 536 930 511 930 q 565 924 553 930 q 585 908 577 918 q 596 886 592 899 q 601 861 601 874 "},"Õ":{"x_min":51,"x_max":784,"ha":795,"o":"m 622 512 q 611 619 622 569 q 579 706 600 669 q 526 764 558 743 q 454 785 495 785 q 379 765 413 785 q 318 713 345 746 q 272 637 292 680 q 240 547 252 594 q 221 451 227 499 q 215 360 215 403 q 225 244 215 297 q 258 153 236 192 q 309 94 279 115 q 380 73 340 73 q 458 93 423 73 q 519 148 493 114 q 566 228 546 183 q 597 322 585 273 q 616 420 610 371 q 622 512 622 470 m 784 525 q 774 427 784 476 q 748 329 765 377 q 707 236 731 281 q 651 152 682 191 q 587 84 623 116 q 512 29 552 52 q 428 -7 472 6 q 339 -21 385 -21 q 217 6 270 -21 q 126 82 163 34 q 70 194 89 130 q 51 328 51 257 q 59 428 51 379 q 83 522 67 476 q 121 611 99 569 q 170 690 143 653 q 233 762 198 728 q 309 820 267 795 q 397 860 350 845 q 498 875 444 875 q 624 847 571 875 q 713 771 678 819 q 766 659 749 723 q 784 525 784 596 m 764 1106 q 742 1067 754 1088 q 715 1025 729 1046 q 684 984 700 1004 q 650 950 668 965 q 613 926 632 935 q 574 918 594 918 q 524 928 547 918 q 480 952 501 939 q 437 977 459 966 q 392 988 416 988 q 366 983 378 988 q 342 968 354 978 q 318 944 330 958 q 291 911 305 930 l 247 930 q 283 990 262 957 q 328 1052 303 1023 q 380 1100 352 1081 q 437 1120 408 1120 q 490 1108 466 1120 q 536 1084 514 1097 q 577 1060 557 1071 q 617 1049 596 1049 q 669 1068 645 1049 q 718 1126 692 1087 l 764 1106 "},"ć":{"x_min":48,"x_max":651.515625,"ha":592,"o":"m 614 557 q 580 525 599 543 q 540 491 560 507 q 501 464 519 475 q 472 453 483 453 q 450 466 461 453 q 426 495 439 480 q 396 524 412 511 q 361 538 380 538 q 295 512 324 538 q 247 448 267 487 q 218 359 228 408 q 208 262 208 310 q 215 184 208 218 q 235 126 222 150 q 266 89 248 102 q 305 77 283 77 q 393 103 342 77 q 517 190 444 130 q 525 179 520 187 q 535 165 530 172 q 545 151 540 157 q 551 142 549 144 q 454 61 498 94 q 372 8 410 28 q 302 -19 334 -11 q 239 -28 269 -28 q 177 -16 210 -28 q 114 23 143 -4 q 66 99 85 52 q 48 218 48 147 q 57 310 48 263 q 88 401 66 357 q 143 487 109 446 q 228 561 178 527 q 272 586 247 573 q 326 610 297 599 q 384 628 354 621 q 442 635 414 635 q 496 625 472 635 q 539 602 519 615 q 577 576 559 589 q 614 557 595 563 m 651 927 l 395 691 q 371 703 384 694 q 349 725 359 713 l 508 995 l 534 990 q 573 983 553 987 q 611 974 593 978 q 635 968 629 970 l 651 927 "},"þ":{"x_min":-11.75,"x_max":654,"ha":698,"o":"m 426 515 q 396 505 414 515 q 355 476 377 496 q 309 425 333 456 q 261 355 284 395 l 234 191 q 262 160 245 176 q 299 132 280 144 q 339 112 318 119 q 376 104 359 104 q 424 119 400 104 q 463 168 448 134 q 479 215 473 191 q 489 264 485 239 q 493 312 493 288 q 493 355 493 335 q 486 427 493 397 q 469 477 479 457 q 448 505 459 496 q 426 515 436 515 m 347 967 q 342 916 347 954 q 331 819 338 879 q 311 680 323 759 q 284 502 299 600 q 352 573 321 547 q 411 613 384 599 q 461 630 437 626 q 505 635 484 635 q 562 621 535 635 q 609 581 589 607 q 642 515 630 554 q 654 425 654 476 q 648 352 654 391 q 632 273 643 314 q 603 192 620 233 q 563 112 586 151 q 526 60 547 86 q 482 15 506 35 q 432 -16 458 -4 q 378 -28 406 -28 q 341 -19 362 -28 q 300 4 321 -11 q 257 42 278 20 q 217 92 236 64 l 202 3 q 183 -115 190 -65 q 173 -197 176 -165 q 170 -249 170 -230 q 174 -278 170 -268 q 141 -289 163 -281 q 93 -307 118 -297 q 46 -326 68 -317 q 15 -339 24 -335 l -11 -314 q 13 -175 0 -253 q 42 -10 26 -97 q 73 169 57 77 q 103 352 88 262 q 130 526 117 442 q 153 678 143 609 q 168 798 163 748 q 174 872 174 848 q 171 897 174 888 q 163 910 168 906 q 151 916 158 915 q 137 918 145 918 q 120 914 131 918 q 99 908 109 911 q 74 899 87 904 l 62 946 q 128 973 91 959 q 201 1001 165 988 q 266 1022 237 1014 q 308 1031 295 1031 q 340 1016 334 1031 q 347 967 347 1001 "},"]":{"x_min":-58.328125,"x_max":466.578125,"ha":458,"o":"m 283 -228 l -33 -228 l -58 -203 q -51 -184 -55 -195 q -41 -162 -46 -173 q -31 -142 -36 -152 q -24 -129 -27 -133 l 153 -129 l 310 988 l 138 988 l 113 1011 q 119 1029 115 1019 q 128 1050 123 1039 q 138 1070 133 1060 q 145 1085 142 1079 l 466 1085 l 283 -228 "},"ĭ":{"x_min":36.984375,"x_max":520.15625,"ha":385,"o":"m 364 74 q 299 37 332 55 q 235 4 265 19 q 177 -19 204 -10 q 131 -28 150 -28 q 92 -6 108 -28 q 77 51 77 14 q 81 106 77 71 q 93 182 86 141 q 108 268 99 223 q 122 353 116 313 q 134 425 129 394 q 139 474 139 457 q 136 499 139 490 q 131 512 134 508 q 122 518 128 517 q 111 520 117 520 q 95 517 105 520 q 74 511 85 515 q 49 503 62 508 l 36 549 q 101 577 65 562 q 171 605 137 592 q 233 626 205 618 q 274 635 261 635 q 303 622 293 635 q 314 577 314 609 q 309 523 314 558 q 297 445 304 488 q 281 357 289 403 q 265 269 273 312 q 253 192 258 227 q 249 137 249 157 q 253 107 249 116 q 269 98 257 98 q 288 99 279 98 q 306 103 297 100 q 326 110 316 106 q 351 120 337 114 l 364 74 m 520 905 q 463 813 495 850 q 398 752 432 775 q 333 718 365 728 q 273 707 300 707 q 213 718 243 707 q 156 752 183 728 q 109 813 130 776 q 77 905 89 851 q 89 919 82 911 q 103 933 95 926 q 117 946 110 940 q 129 955 124 952 q 157 898 139 921 q 195 862 174 876 q 239 842 217 848 q 281 836 261 836 q 328 842 302 836 q 381 862 354 848 q 432 898 407 876 q 475 955 456 921 q 486 946 480 952 q 498 934 492 941 q 511 919 505 926 q 520 905 516 911 "},"8":{"x_min":22,"x_max":606,"ha":632,"o":"m 261 637 q 270 595 261 613 q 295 561 279 576 q 332 534 311 546 q 377 509 353 521 q 429 574 407 537 q 451 661 451 610 q 427 734 451 709 q 362 759 403 759 q 322 748 340 759 q 290 720 304 738 q 268 681 276 703 q 261 637 261 660 m 417 232 q 406 291 417 266 q 380 335 396 316 q 341 368 363 354 q 294 395 318 382 q 250 351 270 374 q 216 303 231 329 q 194 248 202 277 q 187 185 187 219 q 195 134 187 156 q 216 95 203 111 q 249 71 230 79 q 288 63 267 63 q 341 78 317 63 q 382 116 365 92 q 408 171 399 140 q 417 232 417 201 m 606 679 q 591 614 606 643 q 554 560 577 584 q 502 514 531 535 q 445 475 473 493 q 496 441 471 460 q 539 399 521 423 q 569 343 558 374 q 581 269 581 311 q 554 159 581 211 q 482 66 527 106 q 380 2 438 26 q 261 -21 323 -21 q 153 -5 199 -21 q 79 36 108 10 q 36 97 50 63 q 22 169 22 131 q 39 252 22 213 q 86 323 57 290 q 152 382 115 355 q 229 429 189 409 q 185 458 206 442 q 148 494 164 473 q 123 540 132 514 q 114 603 114 567 q 137 695 114 652 q 200 770 160 738 q 292 820 240 802 q 402 838 344 838 q 494 826 455 838 q 557 793 532 814 q 594 743 582 772 q 606 679 606 713 "},"꞊":{"x_min":25.765625,"x_max":429.953125,"ha":452,"o":"m 429 415 q 421 397 427 408 q 410 375 416 387 q 399 354 404 364 q 391 339 394 345 l 68 339 l 52 360 q 59 378 54 368 q 70 400 64 389 q 81 420 75 410 q 91 437 87 430 l 413 437 l 429 415 m 403 240 q 395 222 400 233 q 384 200 389 211 q 372 179 378 189 q 364 164 366 169 l 41 164 l 25 185 q 32 203 27 192 q 43 224 37 213 q 54 245 49 235 q 64 262 60 255 l 385 262 l 403 240 "},"R":{"x_min":-5.625,"x_max":786.5625,"ha":776,"o":"m 380 802 q 364 802 372 802 q 348 802 356 802 l 304 477 q 336 470 320 471 q 369 469 351 469 q 437 480 404 469 q 495 513 470 491 q 536 566 521 534 q 551 638 551 597 q 535 720 551 688 q 494 770 519 751 q 439 795 468 788 q 380 802 409 802 m 786 78 q 728 44 760 61 q 668 16 697 28 q 617 -2 639 4 q 585 -10 594 -10 q 562 -6 574 -10 q 540 5 551 -3 q 518 32 529 15 q 496 78 506 50 l 374 396 q 333 396 355 396 q 294 402 312 396 l 252 90 q 271 70 250 82 q 335 49 292 58 l 328 0 l -5 0 l 1 49 q 67 69 43 58 q 92 90 90 80 l 186 787 q 136 779 160 783 q 90 770 111 774 l 90 831 q 157 850 120 841 q 236 864 195 858 q 323 871 278 871 q 414 871 368 871 q 541 857 485 871 q 635 816 597 843 q 693 749 673 789 q 714 656 714 709 q 699 586 714 623 q 656 515 684 550 q 588 453 629 481 q 494 409 547 425 l 644 144 q 665 118 654 127 q 689 108 675 110 q 722 111 703 107 q 768 125 741 116 l 786 78 "},"Ż":{"x_min":10.8125,"x_max":733.171875,"ha":722,"o":"m 216 88 l 503 88 q 529 98 517 88 q 554 129 541 108 q 581 182 567 150 q 613 255 595 213 l 665 241 q 655 186 661 219 q 644 118 649 153 q 632 51 638 83 q 624 0 627 19 l 28 0 l 10 35 l 531 768 l 285 768 q 261 756 275 768 q 231 723 246 744 q 200 673 215 702 q 173 607 185 643 l 120 620 l 177 867 q 208 859 194 862 q 234 856 221 856 q 262 856 248 856 q 295 856 277 856 l 717 856 l 733 820 l 216 88 m 546 1052 q 538 1009 546 1031 q 517 968 531 987 q 483 937 503 949 q 438 926 463 926 q 390 946 405 926 q 375 993 375 967 q 382 1036 375 1014 q 403 1077 389 1058 q 437 1108 417 1096 q 482 1120 457 1120 q 510 1115 498 1120 q 530 1099 522 1109 q 541 1078 537 1090 q 546 1052 546 1065 "},"o":{"x_min":26,"x_max":591,"ha":617,"o":"m 432 326 q 424 418 432 377 q 400 485 415 458 q 366 526 386 512 q 325 541 346 541 q 259 517 285 541 q 215 456 232 493 q 192 374 199 419 q 185 285 185 329 q 194 199 185 239 q 220 129 204 159 q 256 81 236 99 q 298 64 277 64 q 343 75 323 64 q 378 107 363 87 q 403 153 393 127 q 420 208 414 179 q 429 268 426 237 q 432 326 432 298 m 591 379 q 579 287 591 333 q 546 196 567 240 q 494 113 524 153 q 425 42 463 73 q 386 15 407 28 q 341 -7 364 2 q 295 -22 318 -17 q 252 -28 272 -28 q 157 -7 199 -28 q 86 46 115 12 q 41 129 57 81 q 26 233 26 177 q 35 327 26 282 q 65 415 45 373 q 117 496 85 457 q 194 569 149 535 q 233 595 212 583 q 278 616 255 607 q 325 629 301 624 q 371 635 349 635 q 465 615 424 635 q 534 563 506 596 q 576 482 562 529 q 591 379 591 435 "},"5":{"x_min":4.890625,"x_max":617.96875,"ha":632,"o":"m 617 805 q 596 777 609 793 q 567 743 582 760 q 539 713 552 727 q 517 694 525 700 l 249 694 q 238 648 244 674 q 225 597 232 623 q 212 549 218 572 q 200 511 205 526 q 263 531 225 523 q 339 539 301 539 q 437 520 396 539 q 506 471 478 501 q 547 402 533 440 q 561 323 561 363 q 551 241 561 282 q 524 162 542 200 q 478 90 506 124 q 415 32 451 56 q 334 -6 379 7 q 235 -21 289 -21 q 174 -13 205 -21 q 114 6 143 -6 q 56 41 84 20 q 4 88 28 61 l 42 149 q 99 109 73 125 q 149 85 126 94 q 193 72 172 76 q 235 69 215 69 q 303 87 272 69 q 357 135 335 105 q 392 205 379 165 q 405 291 405 246 q 395 351 405 324 q 370 398 386 379 q 329 428 353 417 q 275 439 305 439 q 186 423 225 439 q 110 379 147 407 l 82 402 q 101 460 91 426 q 121 532 111 493 q 143 610 132 570 q 163 688 154 650 q 180 759 172 726 q 192 816 188 793 l 522 816 q 553 818 539 816 q 576 822 567 820 q 596 829 588 825 l 617 805 "},"õ":{"x_min":26,"x_max":633.71875,"ha":617,"o":"m 432 326 q 424 417 432 377 q 400 485 415 457 q 366 526 386 512 q 325 540 346 540 q 259 516 285 540 q 215 456 232 493 q 192 373 199 419 q 185 285 185 328 q 194 199 185 239 q 220 129 204 159 q 256 81 236 99 q 298 64 277 64 q 343 75 323 64 q 378 107 363 87 q 403 153 393 127 q 420 208 414 179 q 429 268 426 237 q 432 326 432 298 m 591 379 q 579 287 591 333 q 546 196 567 240 q 494 113 524 153 q 425 42 463 73 q 386 15 407 28 q 341 -7 364 2 q 295 -22 318 -17 q 252 -28 272 -28 q 157 -7 199 -28 q 86 46 115 12 q 41 129 57 81 q 26 233 26 177 q 35 327 26 282 q 65 415 45 373 q 117 496 85 457 q 194 569 149 535 q 233 595 212 583 q 278 616 255 607 q 325 629 301 624 q 371 635 349 635 q 465 615 424 635 q 534 563 506 596 q 576 482 562 529 q 591 379 591 435 m 633 910 q 611 871 624 892 q 584 829 599 850 q 553 788 569 808 q 519 754 537 769 q 482 730 501 739 q 443 722 463 722 q 394 732 416 722 q 349 756 371 743 q 307 781 328 770 q 262 792 285 792 q 236 787 248 792 q 212 772 224 782 q 188 748 200 762 q 161 715 175 734 l 117 733 q 152 794 131 761 q 198 856 173 827 q 250 904 222 885 q 307 924 278 924 q 360 912 336 924 q 406 888 384 901 q 447 864 427 875 q 487 853 466 853 q 538 872 515 853 q 588 930 561 891 l 633 910 "},",":{"x_min":-8.453125,"x_max":254,"ha":324,"o":"m 254 79 q 244 20 254 51 q 217 -43 234 -11 q 177 -106 200 -75 q 130 -165 154 -138 q 79 -216 105 -193 q 30 -252 53 -238 l -8 -218 q 68 -109 42 -163 q 95 -15 95 -55 q 90 10 95 -2 q 77 32 86 22 q 53 47 67 42 q 18 50 39 52 l 18 103 q 39 117 25 109 q 71 133 53 125 q 108 149 88 142 q 146 162 127 157 q 180 172 164 168 q 205 176 195 176 q 226 161 218 169 q 241 141 235 152 q 250 115 247 130 q 254 79 254 100 "},"d":{"x_min":26,"x_max":670.171875,"ha":691,"o":"m 399 258 q 414 361 405 302 q 434 485 424 420 q 393 521 415 505 q 347 538 372 538 q 295 524 318 538 q 253 488 272 510 q 220 437 234 466 q 197 377 207 408 q 184 314 188 346 q 180 256 180 283 q 200 143 180 180 q 250 105 221 105 q 274 113 259 105 q 307 139 288 121 q 349 186 326 157 q 399 258 372 216 m 670 70 q 613 33 641 50 q 560 1 584 15 q 515 -19 535 -11 q 480 -28 494 -28 q 454 -19 469 -28 q 427 7 440 -11 q 403 58 413 27 q 394 136 394 90 q 283 14 337 56 q 182 -28 229 -28 q 128 -14 156 -28 q 77 29 100 0 q 40 104 55 58 q 26 213 26 150 q 39 317 26 267 q 77 414 52 368 q 140 499 103 459 q 225 571 177 539 q 267 594 244 583 q 315 614 290 605 q 366 629 340 624 q 416 635 392 635 q 435 631 425 635 q 456 621 445 627 q 467 699 462 661 q 477 769 473 736 q 483 828 481 801 q 486 872 486 854 q 483 897 486 888 q 476 910 481 906 q 467 916 472 915 q 455 918 461 918 q 438 914 449 918 q 415 908 427 911 q 387 899 402 904 l 377 946 q 447 978 411 962 q 516 1005 484 993 q 574 1023 549 1016 q 612 1031 600 1031 q 647 1018 635 1031 q 660 975 660 1006 q 655 907 660 948 q 642 814 650 865 q 625 704 634 763 q 604 587 615 646 q 584 470 594 527 q 566 363 574 413 q 554 274 559 313 q 549 212 549 235 q 559 127 549 155 q 585 99 569 99 q 619 102 603 99 q 658 116 634 106 l 670 70 "},"Ꞌ":{"x_min":172,"x_max":357.8125,"ha":336,"o":"m 234 520 q 221 514 229 517 q 204 510 213 512 q 187 508 196 509 q 172 507 178 507 l 172 986 q 202 998 180 990 q 248 1014 223 1006 q 294 1029 272 1022 q 323 1037 316 1035 l 357 1015 l 234 520 "},"\"":{"x_min":153,"x_max":582.640625,"ha":604,"o":"m 225 579 q 210 574 220 576 q 191 570 201 571 q 170 568 180 569 q 153 567 160 567 l 153 917 q 181 929 161 921 q 226 945 202 937 q 270 961 249 954 q 299 969 291 967 l 328 950 l 225 579 m 479 579 q 464 574 473 576 q 445 570 455 571 q 424 568 434 569 q 407 567 414 567 l 407 917 q 435 929 415 921 q 480 945 456 937 q 524 961 503 954 q 552 969 545 967 l 582 950 l 479 579 "},"˙":{"x_min":117,"x_max":288,"ha":247,"o":"m 288 861 q 280 817 288 840 q 259 777 273 795 q 225 746 245 758 q 180 735 205 735 q 132 755 147 735 q 117 802 117 775 q 124 844 117 822 q 145 885 131 867 q 179 917 159 904 q 224 929 199 929 q 252 923 240 929 q 272 908 264 918 q 283 886 279 899 q 288 861 288 874 "},"ê":{"x_min":33,"x_max":594.59375,"ha":587,"o":"m 270 499 q 214 410 236 460 q 192 294 192 360 q 298 349 258 324 q 357 395 337 373 q 383 437 377 416 q 390 479 390 457 q 376 527 390 511 q 343 543 362 543 q 328 539 337 543 q 309 531 320 536 q 289 517 299 526 q 270 499 278 509 m 560 515 q 555 475 560 496 q 537 431 551 454 q 499 382 524 408 q 434 330 475 357 q 334 275 393 303 q 193 217 275 246 q 207 158 198 184 q 230 114 217 132 q 259 86 243 96 q 291 77 274 77 q 375 103 320 77 q 513 195 430 129 q 521 186 517 193 q 531 172 526 180 q 539 157 536 164 q 544 147 543 150 q 443 65 488 99 q 360 11 398 32 q 290 -18 322 -9 q 227 -28 258 -28 q 165 -15 199 -28 q 102 24 132 -2 q 53 96 73 52 q 33 205 33 140 q 45 306 33 258 q 82 399 58 355 q 140 482 106 443 q 217 558 174 522 q 254 584 232 571 q 302 609 276 598 q 356 627 328 620 q 410 635 384 635 q 477 624 449 635 q 524 596 505 613 q 551 558 542 580 q 560 515 560 537 m 594 731 q 572 707 585 718 q 548 691 559 696 l 396 845 l 201 691 q 183 706 195 695 q 164 731 171 718 l 366 988 l 460 988 l 594 731 "},"„":{"x_min":15.1875,"x_max":553,"ha":656,"o":"m 253 72 q 234 -14 253 28 q 188 -96 216 -57 q 124 -169 159 -135 q 55 -226 89 -202 l 16 -192 q 47 -153 31 -175 q 74 -108 62 -131 q 94 -61 87 -85 q 102 -14 102 -37 q 78 35 102 18 q 21 52 55 52 l 15 103 q 33 115 19 108 q 66 131 47 123 q 105 147 84 139 q 145 161 126 155 q 180 171 165 167 q 204 174 196 174 q 237 137 221 161 q 253 72 253 112 m 553 72 q 535 -14 553 28 q 488 -96 517 -57 q 425 -169 460 -135 q 356 -226 390 -202 l 317 -192 q 347 -153 332 -175 q 375 -108 363 -131 q 394 -61 387 -85 q 402 -14 402 -37 q 379 35 402 19 q 322 52 356 52 l 316 103 q 335 115 321 108 q 367 131 349 123 q 406 147 385 139 q 447 161 427 155 q 481 171 466 167 q 504 174 497 174 q 537 137 522 161 q 553 72 553 112 "},"Â":{"x_min":-33.90625,"x_max":768.359375,"ha":810,"o":"m 251 291 l 165 95 q 176 65 156 74 q 246 49 195 56 l 240 0 l -33 0 l -27 49 q 40 66 16 57 q 73 95 64 75 l 390 817 q 426 842 407 831 q 466 864 446 854 q 506 880 486 873 q 543 893 526 888 l 697 95 q 702 78 699 86 q 714 65 706 71 q 735 56 722 60 q 768 49 748 52 l 762 0 l 449 0 l 456 50 q 524 61 505 50 q 539 95 543 72 l 503 291 l 251 291 m 487 373 l 426 693 l 287 373 l 487 373 m 703 949 q 684 924 694 935 q 663 908 674 913 l 504 1027 l 316 908 q 300 923 310 912 q 284 949 290 935 l 480 1158 l 563 1158 l 703 949 "},"ė":{"x_min":33,"x_max":560,"ha":587,"o":"m 270 499 q 214 410 236 460 q 192 294 192 360 q 298 349 258 324 q 357 395 337 373 q 383 437 377 416 q 390 479 390 457 q 376 527 390 511 q 343 543 362 543 q 328 539 337 543 q 309 531 320 536 q 289 517 299 526 q 270 499 278 509 m 560 515 q 555 475 560 496 q 537 431 551 454 q 499 382 524 408 q 434 330 475 357 q 334 275 393 303 q 193 217 275 246 q 207 158 198 184 q 230 114 217 132 q 259 86 243 96 q 291 77 274 77 q 375 103 320 77 q 512 195 430 129 q 521 186 517 193 q 531 172 526 180 q 539 157 536 164 q 544 147 542 150 q 443 65 488 99 q 360 11 398 32 q 290 -18 322 -9 q 227 -28 258 -28 q 165 -15 199 -28 q 102 24 132 -2 q 53 96 73 52 q 33 205 33 140 q 45 306 33 258 q 82 399 58 355 q 140 482 106 443 q 217 558 174 522 q 254 584 231 571 q 302 609 276 598 q 356 627 328 620 q 410 635 384 635 q 477 624 449 635 q 524 596 505 613 q 551 558 542 580 q 560 515 560 537 m 472 861 q 464 818 472 840 q 443 777 457 795 q 409 747 429 759 q 364 735 389 735 q 316 755 332 735 q 301 803 301 776 q 308 845 301 822 q 329 886 315 867 q 363 917 343 904 q 408 930 383 930 q 436 924 424 930 q 456 908 448 918 q 467 886 463 899 q 472 861 472 874 "},"Í":{"x_min":8.421875,"x_max":534,"ha":429,"o":"m 447 805 q 380 784 404 795 q 355 763 357 772 l 263 90 q 280 70 262 82 q 344 49 299 59 l 337 0 l 8 0 l 15 49 q 81 70 57 59 q 106 90 105 81 l 198 763 q 181 783 199 771 q 118 805 162 795 l 125 854 l 454 854 l 447 805 m 534 1068 l 214 908 q 196 928 205 914 q 182 955 188 941 l 422 1174 q 450 1159 435 1167 q 482 1141 466 1150 q 511 1124 498 1132 q 534 1110 525 1116 l 534 1068 "},"´":{"x_min":109.859375,"x_max":411.65625,"ha":411,"o":"m 411 927 l 155 691 q 131 703 144 694 q 109 725 119 713 l 268 995 l 294 990 q 333 983 313 987 q 371 974 354 978 q 396 968 389 970 l 411 927 "},"Ú":{"x_min":109.515625,"x_max":906.03125,"ha":861,"o":"m 899 805 q 835 784 856 795 q 813 763 814 772 l 754 347 q 709 189 741 258 q 629 73 676 120 q 522 3 582 27 q 395 -21 463 -21 q 289 -4 340 -21 q 201 45 239 12 q 141 125 163 78 q 119 236 119 173 q 125 314 119 272 l 188 763 q 171 783 190 771 q 109 805 153 795 l 115 854 l 442 854 l 435 805 q 369 784 392 795 q 343 763 345 772 l 284 346 q 279 306 281 326 q 278 269 278 287 q 319 126 278 174 q 445 78 360 78 q 523 97 489 78 q 580 147 556 115 q 618 223 604 179 q 640 318 633 267 l 702 763 q 699 772 703 767 q 686 783 695 778 q 663 794 678 789 q 626 805 648 800 l 633 855 l 906 855 l 899 805 m 767 1068 l 447 908 q 429 928 437 914 q 414 955 420 941 l 654 1174 q 683 1159 667 1167 q 715 1141 699 1150 q 744 1125 731 1133 q 767 1110 758 1116 l 767 1068 "},"Ŷ":{"x_min":81,"x_max":855.46875,"ha":793,"o":"m 543 0 l 188 0 l 195 49 q 244 62 224 55 q 276 75 264 69 q 293 87 288 82 q 300 98 299 93 l 336 361 q 301 470 321 414 q 260 581 281 527 q 216 681 238 634 q 175 760 194 727 q 164 774 170 768 q 148 783 159 779 q 122 788 138 787 q 81 790 106 790 l 81 839 q 124 847 100 843 q 174 854 149 851 q 220 860 198 858 q 255 862 242 862 q 287 854 270 862 q 312 831 303 846 q 352 751 331 797 q 393 656 373 706 q 431 555 413 607 q 462 459 449 504 l 650 760 q 647 788 662 778 q 586 805 633 798 l 593 855 l 855 855 l 848 805 q 810 796 826 800 q 782 787 794 792 q 763 775 771 781 q 749 760 755 768 l 492 354 l 457 98 q 460 88 456 94 q 474 75 464 82 q 503 62 485 69 q 550 49 521 55 l 543 0 m 706 949 q 686 924 696 935 q 665 908 676 913 l 506 1027 l 319 908 q 303 924 312 912 q 286 949 293 935 l 483 1158 l 565 1158 l 706 949 "},"ŝ":{"x_min":-13,"x_max":549.5,"ha":533,"o":"m 533 572 q 507 538 522 556 q 478 504 493 520 q 451 477 464 488 q 432 467 439 467 q 408 481 421 467 q 378 512 395 495 q 342 543 362 529 q 298 557 322 557 q 240 538 260 557 q 221 486 221 518 q 248 430 221 454 q 331 378 276 406 q 385 347 358 364 q 433 309 412 330 q 468 259 455 287 q 481 195 481 231 q 467 135 481 164 q 432 82 454 106 q 380 37 409 57 q 318 2 350 16 q 253 -20 286 -12 q 190 -28 220 -28 q 110 -17 147 -28 q 45 9 73 -6 q 2 43 18 25 q -13 76 -13 62 q -3 106 -13 85 q 19 148 6 127 q 45 186 32 170 q 66 202 58 202 q 79 191 72 202 q 95 164 85 180 q 116 129 104 148 q 145 95 129 111 q 184 68 162 79 q 234 57 206 57 q 305 82 279 57 q 331 146 331 106 q 319 189 331 169 q 288 226 308 208 q 245 257 269 243 q 195 285 221 272 q 136 322 159 303 q 98 360 112 341 q 78 400 84 379 q 73 442 73 421 q 98 520 73 485 q 161 581 123 556 q 245 621 199 607 q 333 635 291 635 q 398 626 370 635 q 449 607 426 618 q 492 586 472 597 q 533 572 512 576 m 549 731 q 527 707 540 718 q 503 691 514 696 l 351 845 l 157 691 q 138 706 151 695 q 119 731 126 718 l 322 988 l 415 988 l 549 731 "},"Ý":{"x_min":81,"x_max":855.140625,"ha":793,"o":"m 543 0 l 188 0 l 195 49 q 244 62 224 55 q 276 75 264 69 q 293 87 288 82 q 299 98 299 93 l 335 361 q 301 470 321 414 q 259 581 281 527 q 216 681 238 634 q 175 760 194 727 q 164 774 170 768 q 148 783 158 779 q 122 788 138 787 q 81 790 106 790 l 81 839 q 124 847 100 843 q 174 854 149 851 q 220 860 198 858 q 255 862 242 862 q 287 854 270 862 q 312 831 303 846 q 352 751 331 797 q 393 656 373 706 q 431 555 413 607 q 462 459 449 504 l 650 760 q 647 788 661 778 q 585 805 633 798 l 592 855 l 855 855 l 848 805 q 810 796 826 800 q 782 787 794 792 q 762 775 771 781 q 749 760 754 768 l 492 354 l 457 98 q 460 88 456 94 q 474 75 463 82 q 503 62 484 69 q 550 49 521 55 l 543 0 m 729 1068 l 409 908 q 391 928 400 914 q 377 955 383 941 l 617 1174 q 645 1159 630 1167 q 677 1141 661 1150 q 706 1124 693 1132 q 729 1110 720 1116 l 729 1068 "},"Ĉ":{"x_min":41,"x_max":729.234375,"ha":704,"o":"m 728 807 q 726 795 730 805 q 714 770 722 785 q 697 738 707 755 q 677 706 687 721 q 658 678 667 691 q 642 661 648 666 l 602 671 q 579 713 592 693 q 548 749 566 733 q 507 773 530 764 q 456 783 484 783 q 404 775 429 783 q 352 746 379 767 q 281 662 309 713 q 235 557 252 612 q 211 447 218 502 q 204 350 204 392 q 222 226 204 276 q 270 146 241 176 q 333 103 299 116 q 397 91 367 91 q 436 94 414 91 q 486 109 458 98 q 547 139 513 120 q 623 189 581 158 q 630 181 627 188 q 638 166 634 174 q 644 152 641 158 q 648 143 646 145 q 557 66 602 97 q 472 16 513 35 q 394 -9 431 -1 q 324 -18 356 -18 q 214 4 265 -18 q 124 68 162 26 q 63 171 85 110 q 41 311 41 232 q 54 441 41 375 q 95 570 68 507 q 165 689 123 632 q 263 791 207 746 q 318 826 288 810 q 380 852 348 841 q 446 869 413 863 q 512 875 480 875 q 577 869 545 875 q 639 855 610 864 q 690 833 667 845 q 728 807 714 821 m 695 949 q 676 924 686 935 q 654 908 665 913 l 496 1027 l 308 908 q 292 923 302 912 q 275 949 282 935 l 472 1158 l 555 1158 l 695 949 "},"Ö":{"x_min":51,"x_max":784,"ha":795,"o":"m 622 512 q 611 619 622 569 q 579 706 600 669 q 526 764 558 743 q 454 785 495 785 q 379 765 413 785 q 318 713 345 746 q 272 637 292 680 q 240 547 252 594 q 221 451 227 499 q 215 360 215 403 q 225 244 215 297 q 258 153 236 192 q 309 94 279 115 q 380 73 340 73 q 458 93 423 73 q 519 148 493 114 q 566 228 546 183 q 597 322 585 273 q 616 420 610 371 q 622 512 622 470 m 784 525 q 774 427 784 476 q 748 329 765 377 q 707 236 731 281 q 651 152 682 191 q 587 84 623 116 q 512 29 552 52 q 428 -7 472 6 q 339 -21 385 -21 q 217 6 270 -21 q 126 82 163 34 q 70 194 89 130 q 51 328 51 257 q 59 428 51 379 q 83 522 67 476 q 121 611 99 569 q 170 690 143 653 q 233 762 198 728 q 309 820 267 795 q 397 860 350 845 q 498 875 444 875 q 624 847 571 875 q 713 771 678 819 q 766 659 749 723 q 784 525 784 596 m 464 1052 q 456 1009 464 1031 q 435 968 449 986 q 400 937 421 949 q 355 925 380 925 q 307 946 322 925 q 292 993 292 967 q 299 1036 292 1014 q 320 1077 306 1058 q 354 1108 334 1096 q 399 1120 374 1120 q 448 1099 432 1120 q 464 1052 464 1079 m 726 1052 q 718 1009 726 1031 q 697 968 711 987 q 663 937 683 949 q 617 926 642 926 q 570 946 586 926 q 555 993 555 967 q 562 1036 555 1014 q 583 1077 569 1058 q 617 1108 597 1096 q 661 1120 636 1120 q 710 1100 694 1120 q 726 1052 726 1079 "},"z":{"x_min":-12.203125,"x_max":531.6875,"ha":532,"o":"m 531 593 q 464 516 494 553 q 409 445 435 480 q 360 376 383 411 q 311 305 337 341 q 257 228 286 268 q 193 142 229 187 q 211 147 202 145 q 229 151 219 149 q 248 153 239 153 q 283 147 262 153 q 326 135 303 141 q 370 122 348 128 q 410 117 392 117 q 424 119 416 117 q 442 129 432 121 q 462 151 451 136 q 486 190 474 165 l 526 166 q 491 91 507 124 q 454 34 474 57 q 411 -1 435 10 q 354 -13 387 -13 q 295 -6 324 -13 q 239 9 266 0 q 189 24 212 17 q 149 32 166 32 q 95 18 127 32 q 12 -20 63 4 l -12 13 q 55 98 21 53 q 121 189 88 143 q 184 279 153 234 q 242 363 214 323 q 294 436 270 403 q 338 494 318 470 l 181 494 q 153 490 165 494 q 130 475 141 486 q 111 447 120 465 q 92 400 103 429 l 48 411 q 63 475 54 442 q 78 539 71 508 q 91 595 86 569 q 100 635 97 620 q 135 626 113 631 q 181 620 158 620 l 512 620 l 531 593 "},"Ř":{"x_min":-5.625,"x_max":786.5625,"ha":776,"o":"m 380 802 q 364 802 372 802 q 348 802 356 802 l 304 477 q 336 470 320 471 q 369 469 351 469 q 437 480 404 469 q 495 513 470 491 q 536 566 521 534 q 551 638 551 597 q 535 720 551 688 q 494 770 519 751 q 439 795 468 788 q 380 802 409 802 m 786 78 q 728 44 760 61 q 668 16 697 28 q 617 -2 639 4 q 585 -10 594 -10 q 562 -6 574 -10 q 540 5 551 -3 q 518 32 529 15 q 496 78 506 50 l 374 396 q 333 396 355 396 q 294 402 312 396 l 252 90 q 271 70 250 82 q 335 49 292 58 l 328 0 l -5 0 l 1 49 q 67 69 43 58 q 92 90 90 80 l 186 787 q 136 779 160 783 q 90 770 111 774 l 90 831 q 157 850 120 841 q 236 864 195 858 q 323 871 278 871 q 414 871 368 871 q 541 857 485 871 q 635 816 597 843 q 693 749 673 789 q 714 656 714 709 q 699 586 714 623 q 656 515 684 550 q 588 453 629 481 q 494 409 547 425 l 644 144 q 665 118 654 127 q 689 108 675 110 q 722 111 703 107 q 768 125 741 116 l 786 78 m 495 924 l 402 924 l 261 1138 q 284 1163 271 1151 q 307 1183 297 1175 l 466 1055 l 654 1183 q 674 1163 663 1176 q 692 1138 685 1151 l 495 924 "},"ã":{"x_min":26,"x_max":670.3125,"ha":669,"o":"m 395 256 q 404 317 399 285 q 414 381 409 350 q 424 442 419 413 q 433 491 429 470 q 392 523 413 509 q 349 537 370 537 q 297 524 320 537 q 254 488 273 510 q 222 437 236 466 q 198 377 207 408 q 184 315 189 346 q 180 257 180 284 q 185 190 180 219 q 199 143 190 162 q 220 115 209 125 q 245 106 232 106 q 306 144 267 106 q 395 256 345 183 m 664 72 q 607 33 636 51 q 554 1 579 15 q 510 -20 530 -12 q 478 -28 491 -28 q 452 -20 467 -28 q 424 5 437 -13 q 400 55 411 24 q 390 134 390 87 q 342 75 366 104 q 290 23 317 46 q 235 -14 263 0 q 180 -28 207 -28 q 129 -15 156 -28 q 79 25 101 -2 q 41 98 56 54 q 26 206 26 143 q 39 311 26 260 q 78 409 53 362 q 141 497 104 456 q 227 571 179 538 q 268 594 245 583 q 315 615 290 606 q 368 629 340 624 q 424 635 395 635 q 480 622 452 635 q 531 594 507 609 q 577 615 554 605 q 618 635 600 625 l 639 590 q 620 573 628 581 q 607 556 613 566 q 597 532 601 546 q 588 495 593 518 q 570 400 578 446 q 556 316 562 354 q 548 249 550 278 q 545 205 545 220 q 555 128 545 158 q 581 98 565 98 q 610 101 595 98 q 654 116 626 105 l 664 72 m 670 910 q 648 871 660 892 q 621 829 635 850 q 590 788 606 808 q 555 754 573 769 q 518 730 537 739 q 480 722 499 722 q 430 732 453 722 q 386 756 407 743 q 343 781 364 770 q 298 792 322 792 q 272 787 284 792 q 248 772 260 782 q 224 748 236 762 q 197 715 211 734 l 154 733 q 189 794 168 761 q 234 856 209 827 q 287 904 259 885 q 343 924 314 924 q 396 912 372 924 q 442 888 421 901 q 483 864 464 875 q 523 853 503 853 q 575 872 551 853 q 625 930 598 891 l 670 910 "},"Ň":{"x_min":-1.359375,"x_max":915.53125,"ha":858,"o":"m 909 805 q 840 785 862 798 q 817 763 819 773 l 710 -20 q 616 4 651 -14 q 566 54 582 23 l 263 625 l 190 90 q 193 81 189 86 q 206 69 196 75 q 231 58 215 63 q 270 49 246 52 l 263 0 l -1 0 l 5 49 q 73 68 52 55 q 96 90 94 81 l 187 756 q 107 805 153 797 l 113 854 l 286 854 q 304 853 297 854 q 316 846 310 852 q 327 830 322 841 q 343 801 333 820 l 650 223 l 724 763 q 721 773 724 767 q 709 784 718 778 q 684 795 700 790 q 644 805 668 801 l 650 855 l 915 855 l 909 805 m 569 925 l 476 925 l 335 1139 q 358 1164 345 1152 q 381 1184 371 1176 l 540 1056 l 729 1184 q 748 1164 737 1177 q 766 1139 759 1152 l 569 925 "},"æ":{"x_min":5,"x_max":891,"ha":898,"o":"m 604 499 q 545 407 565 458 q 525 294 525 355 q 631 348 591 323 q 692 395 671 372 q 720 439 713 417 q 727 484 727 460 q 711 527 727 512 q 676 543 696 543 q 643 531 664 543 q 604 499 622 519 m 378 254 q 379 266 379 260 q 381 277 380 272 q 390 332 385 303 q 399 389 394 361 q 407 443 403 418 q 414 487 411 468 q 370 522 393 506 q 326 538 347 538 q 274 524 297 538 q 231 488 250 510 q 197 437 212 466 q 173 377 183 408 q 158 314 163 346 q 154 257 154 283 q 160 188 154 217 q 176 141 166 160 q 198 114 186 123 q 223 106 210 106 q 284 144 243 106 q 378 254 325 183 m 589 606 q 573 593 579 598 q 560 581 566 587 q 550 567 554 575 q 541 547 545 559 q 556 561 548 554 q 572 573 564 567 q 610 597 588 585 q 654 616 631 608 q 701 630 678 625 q 746 635 725 635 q 808 624 781 635 q 853 597 835 613 q 881 558 872 580 q 891 515 891 537 q 886 475 891 496 q 869 430 882 453 q 831 382 856 407 q 766 330 806 357 q 665 275 725 303 q 523 215 606 246 q 538 155 527 181 q 563 112 549 129 q 593 85 577 94 q 623 77 609 77 q 707 103 652 77 q 844 196 762 130 q 853 187 848 194 q 862 172 857 180 q 870 157 866 164 q 875 147 874 150 q 772 66 819 99 q 687 11 726 32 q 617 -18 648 -9 q 558 -28 585 -28 q 510 -18 537 -28 q 457 11 483 -8 q 410 65 431 32 q 380 145 389 98 q 328 78 356 110 q 271 23 300 47 q 213 -14 242 0 q 156 -28 183 -28 q 107 -15 133 -28 q 58 25 80 -2 q 20 98 35 54 q 5 206 5 143 q 18 311 5 260 q 56 409 31 362 q 119 497 82 456 q 205 571 156 538 q 246 594 223 583 q 293 615 268 606 q 345 629 318 624 q 400 635 372 635 q 450 625 428 635 q 491 603 472 615 q 521 619 504 611 q 560 635 538 627 l 589 606 "},"ĩ":{"x_min":22.75,"x_max":538.46875,"ha":385,"o":"m 364 74 q 299 37 332 55 q 235 4 265 19 q 177 -19 204 -10 q 131 -28 150 -28 q 92 -6 108 -28 q 77 51 77 14 q 81 106 77 71 q 93 182 86 141 q 108 268 99 223 q 122 353 116 313 q 134 425 129 394 q 139 474 139 457 q 136 499 139 490 q 131 512 134 508 q 122 518 128 517 q 111 520 117 520 q 95 517 105 520 q 74 511 85 515 q 49 503 62 508 l 36 549 q 101 577 65 562 q 171 605 137 592 q 233 626 205 618 q 274 635 261 635 q 303 622 293 635 q 314 577 314 609 q 309 523 314 558 q 297 445 304 488 q 281 357 289 403 q 265 269 273 312 q 253 192 258 227 q 249 137 249 157 q 253 107 249 116 q 269 98 257 98 q 288 99 279 98 q 306 103 297 100 q 326 110 316 106 q 351 120 337 114 l 364 74 m 538 910 q 516 871 529 892 q 489 829 503 850 q 458 788 474 808 q 424 754 442 769 q 387 730 406 739 q 348 722 368 722 q 299 732 321 722 q 255 756 276 743 q 212 781 233 770 q 167 792 191 792 q 141 787 153 792 q 117 772 129 782 q 92 748 105 762 q 66 715 80 734 l 22 733 q 57 794 36 761 q 103 856 78 827 q 155 904 127 885 q 212 924 183 924 q 265 912 241 924 q 311 888 289 901 q 351 864 332 875 q 391 853 371 853 q 443 872 419 853 q 493 930 466 891 l 538 910 "},"É":{"x_min":-5.34375,"x_max":687.734375,"ha":684,"o":"m 642 206 q 627 144 635 177 q 612 83 619 112 q 598 32 605 54 q 588 0 592 10 l -5 0 l 1 49 q 68 70 45 59 q 93 90 92 81 l 185 763 q 168 783 187 771 q 105 805 149 795 l 111 855 l 666 855 l 687 833 q 678 789 684 815 q 664 734 672 762 q 649 682 657 707 q 636 644 642 657 l 589 644 q 586 740 594 707 q 554 773 578 773 l 343 773 l 305 498 l 556 498 l 574 474 q 559 452 568 465 q 540 427 550 439 q 521 403 531 414 q 504 386 512 392 q 485 403 495 396 q 460 415 474 411 q 424 421 445 419 q 374 424 403 424 l 295 424 l 255 124 q 257 106 253 114 q 273 93 260 99 q 311 84 286 87 q 377 81 336 81 l 440 81 q 490 88 468 81 q 529 112 511 96 q 562 156 546 129 q 598 223 579 183 l 642 206 m 664 1068 l 344 908 q 326 928 335 914 q 312 955 318 941 l 552 1174 q 580 1159 565 1167 q 612 1141 596 1150 q 641 1125 628 1133 q 664 1110 655 1116 l 664 1068 "},"~":{"x_min":50.859375,"x_max":644.265625,"ha":667,"o":"m 644 525 q 601 456 626 491 q 547 391 576 420 q 486 342 518 361 q 425 324 455 324 q 371 341 399 324 q 317 378 344 358 q 261 415 289 398 q 206 433 233 433 q 145 406 175 433 q 82 322 115 379 l 50 341 q 94 409 69 374 q 148 474 119 445 q 208 523 177 504 q 269 542 239 542 q 326 525 298 542 q 382 488 354 508 q 435 450 409 467 q 487 434 461 434 q 548 460 517 434 q 613 542 579 486 l 644 525 "},"Ċ":{"x_min":41,"x_max":729.5625,"ha":705,"o":"m 729 807 q 726 795 730 805 q 714 770 722 785 q 697 738 707 755 q 677 706 687 721 q 658 678 667 691 q 643 661 649 666 l 602 671 q 579 713 592 693 q 548 749 566 733 q 507 773 530 764 q 457 783 484 783 q 404 775 430 783 q 352 746 379 767 q 281 662 309 713 q 235 557 252 612 q 211 447 218 502 q 204 350 204 392 q 223 226 204 276 q 270 146 242 176 q 333 103 299 116 q 398 91 367 91 q 437 94 415 91 q 486 109 459 98 q 548 139 514 120 q 624 189 582 158 q 631 181 627 188 q 638 166 634 174 q 644 152 641 158 q 648 143 647 145 q 558 66 602 97 q 472 16 513 35 q 394 -9 431 -1 q 325 -18 356 -18 q 214 4 266 -18 q 124 68 163 26 q 63 171 85 110 q 41 311 41 232 q 54 441 41 375 q 95 570 68 507 q 165 689 123 632 q 264 791 207 746 q 318 826 288 810 q 381 852 348 841 q 446 869 413 863 q 512 875 480 875 q 578 869 545 875 q 639 855 610 864 q 691 833 668 845 q 729 807 714 821 m 578 1052 q 570 1009 578 1031 q 549 968 563 987 q 515 937 535 949 q 470 926 495 926 q 422 946 437 926 q 407 993 407 967 q 414 1036 407 1014 q 435 1077 421 1058 q 469 1108 449 1096 q 514 1120 489 1120 q 542 1114 530 1120 q 562 1099 554 1109 q 573 1077 569 1090 q 578 1052 578 1065 "},"³":{"x_min":50.828125,"x_max":443,"ha":448,"o":"m 443 825 q 435 784 443 803 q 413 748 427 764 q 381 720 399 732 q 340 702 362 708 q 384 689 366 699 q 414 664 403 679 q 431 631 426 649 q 437 595 437 613 q 418 521 437 556 q 370 461 400 487 q 297 420 339 435 q 210 406 256 406 q 172 410 193 406 q 130 422 152 414 q 88 442 109 430 q 50 472 67 455 l 75 524 q 142 484 111 496 q 204 471 172 471 q 244 479 225 471 q 277 500 263 486 q 300 534 292 514 q 309 580 309 555 q 302 617 309 603 q 286 640 296 631 q 263 652 276 648 q 236 656 250 656 q 218 656 224 656 q 198 653 212 656 l 198 697 q 256 717 232 705 q 293 745 279 730 q 312 778 307 760 q 318 815 318 795 q 316 834 318 825 q 309 851 314 843 q 296 862 305 858 q 275 867 288 867 q 254 862 264 867 q 236 849 244 857 q 225 829 229 840 q 223 803 221 817 q 201 793 214 797 q 174 784 188 788 q 145 777 160 780 q 119 775 131 775 l 107 800 q 126 838 110 817 q 169 877 143 859 q 231 908 196 895 q 307 921 267 921 q 373 912 347 921 q 415 889 399 903 q 436 858 430 875 q 443 825 443 841 "},"¡":{"x_min":-40.46875,"x_max":275,"ha":324,"o":"m 66 499 q 74 544 66 521 q 100 587 83 568 q 140 619 116 606 q 192 631 163 631 q 254 610 233 631 q 275 556 275 589 q 266 510 275 534 q 241 467 258 486 q 202 435 225 448 q 148 423 178 423 q 86 444 106 423 q 66 499 66 465 m 170 -285 q 129 -305 154 -294 q 77 -328 104 -316 q 27 -349 51 -339 q -11 -363 3 -359 l -40 -342 l 101 331 q 135 349 114 340 q 172 362 156 357 l 170 348 l 170 -285 "},"[":{"x_min":33.90625,"x_max":558.8125,"ha":491,"o":"m 558 1062 q 552 1043 556 1054 q 541 1021 547 1032 q 531 1001 536 1010 q 524 988 526 992 l 346 988 l 192 -129 l 366 -129 l 390 -154 q 384 -171 388 -161 q 374 -192 379 -181 q 364 -212 369 -202 q 356 -228 360 -221 l 33 -228 l 218 1085 l 535 1085 l 558 1062 "},"%":{"x_min":54,"x_max":886,"ha":940,"o":"m 756 281 q 740 365 756 339 q 701 390 724 390 q 665 375 680 390 q 638 338 649 361 q 619 287 627 315 q 607 229 611 258 q 603 175 603 201 q 603 132 603 149 q 616 54 603 79 q 659 29 630 29 q 689 41 676 29 q 714 74 703 53 q 733 120 725 94 q 746 174 741 146 q 753 230 751 203 q 756 281 756 258 m 886 270 q 869 167 886 219 q 820 72 852 114 q 741 4 788 30 q 633 -22 694 -22 q 566 -8 597 -22 q 514 29 536 5 q 480 83 492 52 q 469 148 469 114 q 486 252 469 200 q 536 346 503 304 q 617 414 569 388 q 725 441 664 441 q 789 429 760 441 q 840 394 818 417 q 873 341 861 372 q 886 270 886 309 m 181 3 q 161 -4 174 0 q 133 -10 148 -7 q 106 -16 119 -13 q 84 -21 93 -19 l 71 0 l 758 813 q 778 820 765 816 q 805 827 791 824 q 833 833 819 831 q 854 838 846 836 l 868 818 l 181 3 m 342 681 q 337 730 342 710 q 326 764 333 751 q 308 783 318 777 q 286 789 298 789 q 250 774 265 789 q 223 737 234 760 q 204 685 212 714 q 192 628 196 657 q 188 574 188 600 q 188 531 188 548 q 201 453 188 477 q 244 428 215 428 q 275 440 261 428 q 299 473 288 453 q 318 519 311 493 q 331 573 326 545 q 339 629 337 601 q 342 681 342 657 m 470 670 q 453 566 470 618 q 404 472 436 514 q 326 403 373 429 q 218 377 279 377 q 151 390 182 377 q 99 427 121 404 q 65 481 77 450 q 54 547 54 512 q 71 651 54 598 q 121 745 88 703 q 202 813 154 786 q 310 839 249 839 q 374 828 345 839 q 424 793 403 816 q 458 740 446 771 q 470 670 470 708 "},"P":{"x_min":-5.296875,"x_max":738,"ha":721,"o":"m 738 637 q 713 528 738 580 q 645 437 688 477 q 546 375 603 398 q 426 353 489 353 q 373 359 400 353 q 329 376 347 365 l 317 446 q 359 430 340 437 q 401 424 377 424 q 473 437 441 424 q 527 475 505 450 q 562 534 550 499 q 574 614 574 570 q 557 707 574 671 q 512 765 540 744 q 447 795 484 787 q 372 803 411 803 l 360 803 q 350 802 355 803 l 251 91 q 254 82 250 87 q 270 72 258 77 q 301 61 281 66 q 354 49 322 55 l 348 0 l -5 0 l 1 49 q 67 70 44 59 q 91 91 90 81 l 188 787 q 140 780 164 784 q 91 770 116 775 l 91 831 q 163 850 124 842 q 242 865 202 859 q 324 872 283 872 q 405 872 366 872 q 545 857 483 872 q 650 812 607 842 q 715 739 693 783 q 738 637 738 695 "},"_":{"x_min":-21.015625,"x_max":536.4375,"ha":625,"o":"m 536 -111 q 529 -128 534 -118 q 519 -149 524 -138 q 508 -170 514 -160 q 499 -187 503 -180 l -4 -187 l -21 -163 q -14 -147 -18 -157 q -4 -126 -9 -137 q 7 -105 1 -115 l 17 -88 l 519 -88 l 536 -111 "},"Ŕ":{"x_min":-5.625,"x_max":786.5625,"ha":776,"o":"m 380 802 q 364 802 372 802 q 348 802 356 802 l 304 477 q 336 470 320 471 q 369 469 351 469 q 437 480 404 469 q 495 513 470 491 q 536 566 521 534 q 551 638 551 597 q 535 720 551 688 q 494 770 519 751 q 439 795 468 788 q 380 802 409 802 m 786 78 q 728 44 760 61 q 668 16 697 28 q 617 -2 639 4 q 585 -10 594 -10 q 562 -6 574 -10 q 540 5 551 -3 q 518 32 529 15 q 496 78 506 50 l 374 396 q 333 396 355 396 q 294 402 312 396 l 252 90 q 271 70 250 82 q 335 49 292 58 l 328 0 l -5 0 l 1 49 q 67 69 43 58 q 92 90 90 80 l 186 787 q 136 779 160 783 q 90 770 111 774 l 90 831 q 157 850 120 841 q 236 864 195 858 q 323 871 278 871 q 414 871 368 871 q 541 857 485 871 q 635 816 597 843 q 693 749 673 789 q 714 656 714 709 q 699 586 714 623 q 656 515 684 550 q 588 453 629 481 q 494 409 547 425 l 644 144 q 665 118 654 127 q 689 108 675 110 q 722 111 703 107 q 768 125 741 116 l 786 78 m 683 1067 l 363 907 q 345 927 354 913 q 331 954 337 941 l 571 1173 q 600 1158 584 1166 q 631 1141 615 1150 q 660 1124 647 1132 q 683 1110 674 1116 l 683 1067 "},"ñ":{"x_min":21.203125,"x_max":715.3125,"ha":732,"o":"m 715 74 q 651 38 684 56 q 585 5 617 19 q 527 -18 554 -9 q 483 -28 500 -28 q 444 -6 460 -28 q 429 51 429 14 q 433 92 429 63 q 443 158 437 121 q 456 238 449 196 q 469 318 463 280 q 479 388 475 356 q 484 434 484 419 q 476 490 484 474 q 448 506 469 506 q 423 500 439 506 q 387 481 406 494 q 346 446 367 468 q 304 393 324 425 q 273 315 284 360 q 250 204 262 270 q 241 151 245 173 q 236 109 238 128 q 235 75 235 91 q 235 42 235 59 q 204 28 226 38 q 158 7 182 18 q 112 -13 133 -3 q 82 -28 90 -23 l 55 -2 q 73 92 64 43 q 90 188 82 140 q 105 281 98 236 q 116 364 112 326 q 124 431 121 402 q 127 476 127 460 q 125 501 127 492 q 120 514 123 510 q 112 520 116 519 q 101 522 107 522 q 84 519 95 522 q 61 512 73 516 q 34 503 49 508 l 21 551 q 86 578 49 563 q 159 605 124 593 q 222 626 194 618 q 260 635 250 635 q 275 631 269 635 q 285 620 281 628 q 290 597 289 612 q 292 558 292 582 q 292 525 292 544 q 288 490 292 507 q 434 599 362 564 q 567 635 506 635 q 605 630 588 635 q 633 613 622 626 q 650 580 644 601 q 657 527 657 559 q 652 470 657 503 q 642 401 648 438 q 628 325 636 364 q 614 251 620 286 q 604 186 608 215 q 600 137 600 156 q 606 106 600 114 q 624 98 612 98 q 654 103 639 98 q 697 120 669 108 l 715 74 m 693 910 q 671 871 684 892 q 644 829 659 850 q 613 788 630 808 q 579 754 597 769 q 542 730 561 739 q 504 722 523 722 q 454 732 477 722 q 410 756 431 743 q 367 781 388 770 q 322 792 346 792 q 296 787 308 792 q 272 772 284 782 q 248 748 260 762 q 221 715 235 734 l 177 733 q 212 794 192 761 q 258 856 233 827 q 310 904 283 885 q 367 924 338 924 q 420 912 396 924 q 466 888 445 901 q 507 864 487 875 q 547 853 526 853 q 598 872 575 853 q 648 930 622 891 l 693 910 "},"‚":{"x_min":15.1875,"x_max":253,"ha":359,"o":"m 253 72 q 234 -14 253 28 q 188 -96 216 -57 q 124 -169 159 -135 q 55 -226 89 -202 l 16 -192 q 47 -153 31 -175 q 74 -108 62 -131 q 94 -61 87 -85 q 102 -14 102 -37 q 78 35 102 18 q 21 52 55 52 l 15 103 q 33 115 19 108 q 66 131 47 123 q 105 147 84 139 q 145 161 126 155 q 180 171 165 167 q 204 174 196 174 q 237 137 221 161 q 253 72 253 112 "},"ˋ":{"x_min":134.953125,"x_max":387.234375,"ha":252,"o":"m 387 715 q 358 700 373 707 q 330 691 342 693 l 134 937 l 162 971 q 189 977 170 973 q 231 984 209 980 q 274 991 254 988 q 303 995 294 995 l 387 715 "},"Æ":{"x_min":-26.453125,"x_max":1052.515625,"ha":1041,"o":"m 552 757 q 548 768 552 765 q 538 771 545 772 q 524 764 531 770 q 510 746 516 758 l 383 498 l 516 498 l 552 757 m 1008 206 q 993 144 1001 177 q 978 83 986 112 q 965 32 971 54 q 954 0 958 10 l 364 0 l 370 49 q 436 70 413 59 q 461 90 459 81 l 506 424 l 347 424 l 179 95 q 182 65 168 75 q 240 49 195 55 l 233 0 l -26 0 l -19 49 q 42 65 18 55 q 77 95 66 75 l 409 748 q 413 767 415 760 q 401 782 411 775 q 371 793 391 788 q 322 805 351 799 l 328 855 l 1032 855 l 1052 833 q 1043 789 1049 815 q 1030 734 1037 762 q 1015 682 1023 707 q 1002 644 1008 657 l 954 644 q 952 740 960 707 q 920 772 945 772 l 711 772 l 673 498 l 922 498 l 940 474 q 924 452 933 465 q 906 427 915 439 q 887 403 896 414 q 870 386 877 392 q 830 415 855 406 q 773 424 806 424 l 663 424 l 622 124 q 624 106 621 114 q 641 93 627 99 q 679 84 654 87 q 745 81 703 81 l 804 81 q 855 88 833 81 q 894 112 876 96 q 929 156 912 129 q 965 223 946 183 l 1008 206 "},"ğ":{"x_min":-13,"x_max":640.953125,"ha":652,"o":"m 640 590 q 601 544 617 571 q 576 467 584 516 q 565 323 565 386 q 565 206 565 260 q 565 102 565 151 q 555 0 565 53 q 526 -89 547 -45 q 477 -170 506 -132 q 413 -239 448 -208 q 340 -292 378 -270 q 263 -326 302 -314 q 188 -339 224 -339 q 117 -331 153 -339 q 52 -312 81 -324 q 5 -287 23 -300 q -13 -262 -13 -274 q -6 -243 -13 -254 q 8 -219 0 -231 q 29 -193 18 -206 q 50 -170 40 -180 q 69 -154 61 -160 q 80 -148 77 -148 q 99 -159 88 -148 q 130 -185 111 -171 q 178 -211 150 -199 q 248 -223 207 -223 q 295 -214 273 -223 q 334 -183 317 -205 q 366 -125 352 -161 q 390 -32 379 -88 q 400 71 400 24 q 400 162 400 118 q 349 87 377 122 q 292 27 321 52 q 234 -13 263 1 q 176 -28 205 -28 q 126 -15 153 -28 q 75 25 99 -2 q 35 98 51 54 q 20 206 20 143 q 71 409 20 314 q 223 571 122 504 q 312 615 261 596 q 424 635 362 635 q 478 620 450 635 q 533 589 507 605 q 577 615 556 604 l 617 635 l 640 590 m 245 106 q 268 115 253 106 q 304 146 283 124 q 353 202 326 167 q 411 290 380 238 q 416 367 411 327 q 428 455 421 407 q 436 485 430 470 q 391 522 414 505 q 346 538 368 538 q 293 525 317 538 q 251 489 270 511 q 217 438 232 467 q 194 377 203 409 q 179 315 184 346 q 175 257 175 283 q 195 143 175 181 q 245 106 215 106 m 624 905 q 567 813 598 850 q 502 752 535 775 q 436 718 469 728 q 376 707 403 707 q 316 718 346 707 q 259 752 286 728 q 212 813 233 776 q 180 905 191 851 q 192 919 185 911 q 206 933 198 926 q 220 946 213 940 q 232 955 227 952 q 260 898 242 921 q 299 862 278 876 q 342 842 320 848 q 384 836 365 836 q 432 842 406 836 q 484 862 458 848 q 535 898 511 876 q 579 955 560 921 q 590 946 583 952 q 602 934 596 941 q 614 919 609 926 q 624 905 620 911 "},"Ū":{"x_min":109.515625,"x_max":905.3125,"ha":860,"o":"m 898 805 q 834 784 855 795 q 812 763 813 772 l 753 347 q 708 189 741 258 q 629 73 676 120 q 522 3 581 27 q 395 -21 462 -21 q 289 -4 339 -21 q 201 45 239 12 q 141 125 163 78 q 119 236 119 173 q 125 314 119 272 l 188 763 q 171 783 190 771 q 109 805 153 795 l 115 854 l 442 854 l 435 805 q 368 784 392 795 q 343 763 345 772 l 284 346 q 279 306 281 326 q 278 269 278 287 q 319 126 278 174 q 445 78 360 78 q 522 97 489 78 q 579 147 556 115 q 618 223 603 179 q 639 318 632 267 l 701 763 q 698 772 702 767 q 686 783 695 778 q 662 794 677 789 q 625 805 647 800 l 632 855 l 905 855 l 898 805 m 822 1064 q 814 1044 820 1056 q 801 1020 808 1032 q 788 996 794 1007 q 778 980 781 985 l 299 980 l 282 1001 q 290 1020 285 1008 q 303 1043 296 1031 q 315 1067 309 1055 q 326 1085 322 1079 l 804 1085 l 822 1064 "},"ª":{"x_min":29.421875,"x_max":411.453125,"ha":417,"o":"m 401 436 q 391 416 398 425 q 381 398 385 407 l 46 398 l 29 417 q 39 437 32 427 q 50 457 46 447 l 384 457 l 401 436 m 266 647 q 272 686 269 666 q 278 726 275 707 q 283 759 281 744 q 288 781 286 773 l 288 782 q 266 795 277 790 q 244 801 255 801 q 201 785 219 801 q 171 745 183 769 q 154 694 159 721 q 149 647 149 668 q 158 584 149 606 q 183 563 168 563 q 217 584 197 563 q 266 647 237 605 m 411 541 q 352 508 380 522 q 309 494 324 494 q 294 498 303 494 q 279 511 286 502 q 266 536 271 521 q 261 573 261 551 q 208 516 234 538 q 159 494 183 494 q 127 501 144 494 q 96 522 110 508 q 73 561 82 537 q 64 619 64 585 q 94 728 64 678 q 177 815 125 779 q 222 839 196 828 q 281 849 248 849 q 312 842 297 849 q 341 826 328 834 q 389 849 367 840 l 401 826 q 390 817 395 821 q 381 808 385 813 q 374 795 377 803 q 368 775 371 788 q 358 723 362 749 q 351 674 353 697 q 349 635 349 652 q 349 609 349 617 q 352 571 349 585 q 365 556 356 556 q 379 557 372 556 q 401 565 386 559 l 411 541 "},"Œ":{"x_min":51.65625,"x_max":1089.8125,"ha":1086,"o":"m 377 73 q 418 76 400 73 q 450 82 436 78 q 479 94 465 87 q 506 111 492 101 l 590 720 q 529 769 566 753 q 451 786 492 786 q 361 757 401 786 q 292 679 322 729 q 244 561 263 629 q 217 415 225 493 q 217 279 208 342 q 247 171 225 217 q 302 99 268 125 q 377 73 335 73 m 1068 855 l 1089 833 q 1080 789 1086 815 q 1066 734 1074 762 q 1051 682 1059 707 q 1038 644 1044 657 l 991 644 q 989 740 997 707 q 957 773 981 773 l 754 773 l 716 499 l 958 499 l 976 475 q 960 452 969 465 q 942 427 952 439 q 923 403 933 414 q 906 387 914 392 q 889 404 898 397 q 866 415 879 410 q 833 422 852 420 q 788 424 815 424 l 705 424 l 665 125 q 666 107 663 115 q 680 93 668 99 q 716 85 692 88 q 781 82 739 82 l 842 82 q 892 89 871 82 q 931 113 914 96 q 966 157 949 130 q 1001 224 982 184 l 1045 206 q 1031 145 1038 177 q 1015 84 1023 113 q 1001 33 1008 55 q 991 0 995 10 l 531 0 q 469 -2 493 0 q 425 -9 444 -5 q 385 -16 405 -13 q 337 -20 365 -20 q 204 13 261 -20 q 111 103 147 47 q 61 234 75 160 q 54 390 46 309 q 80 514 61 454 q 130 629 100 575 q 200 728 160 683 q 286 806 240 773 q 386 857 333 838 q 495 875 439 875 q 540 872 522 875 q 575 865 559 869 q 608 858 592 861 q 647 855 625 855 l 1068 855 "},"T":{"x_min":64.03125,"x_max":809.34375,"ha":752,"o":"m 514 0 l 161 0 l 167 49 q 216 62 196 55 q 248 75 236 68 q 266 87 260 81 q 272 97 271 93 l 364 773 l 205 773 q 187 765 196 773 q 166 741 177 758 q 141 697 155 724 q 107 631 127 670 l 64 649 q 74 696 68 668 q 88 754 80 724 q 104 809 96 783 q 117 854 111 836 l 789 854 l 809 832 q 800 790 806 815 q 787 738 795 765 q 773 684 780 710 q 759 637 765 657 l 711 637 q 711 694 711 669 q 707 737 711 720 q 697 763 704 754 q 677 773 691 773 l 521 773 l 429 97 q 432 88 428 93 q 446 75 436 82 q 475 62 456 68 q 521 49 493 55 l 514 0 "},"š":{"x_min":-13,"x_max":580.015625,"ha":533,"o":"m 533 572 q 507 538 522 556 q 478 504 493 520 q 451 477 464 488 q 432 467 439 467 q 408 481 421 467 q 378 512 395 495 q 342 543 362 529 q 298 557 322 557 q 240 538 260 557 q 221 486 221 518 q 248 430 221 454 q 331 378 276 406 q 385 347 358 364 q 433 309 412 330 q 468 259 455 287 q 481 195 481 231 q 467 135 481 164 q 432 82 454 106 q 380 37 409 57 q 318 2 350 16 q 253 -20 286 -12 q 190 -28 220 -28 q 110 -17 147 -28 q 45 9 73 -6 q 2 43 18 25 q -13 76 -13 62 q -3 106 -13 85 q 19 148 6 127 q 45 186 32 170 q 66 202 58 202 q 79 191 72 202 q 95 164 85 180 q 116 129 104 148 q 145 95 129 111 q 184 68 162 79 q 234 57 206 57 q 305 82 279 57 q 331 146 331 106 q 319 189 331 169 q 288 226 308 208 q 245 257 269 243 q 195 285 221 272 q 136 322 159 303 q 98 360 112 341 q 78 400 84 379 q 73 442 73 421 q 98 520 73 485 q 161 581 123 556 q 245 621 199 607 q 333 635 291 635 q 398 626 370 635 q 449 607 426 618 q 492 586 472 597 q 533 572 512 576 m 379 707 l 286 707 l 149 960 q 172 982 160 972 q 195 1000 184 993 l 347 850 l 542 1000 q 561 982 550 993 q 580 960 572 972 l 379 707 "},"Þ":{"x_min":-4.390625,"x_max":711,"ha":724,"o":"m 454 804 q 401 793 422 798 q 367 782 380 787 q 348 772 354 777 q 342 762 342 767 l 331 689 q 377 694 353 692 q 426 697 401 697 q 544 680 492 697 q 634 633 597 663 q 691 560 671 603 q 711 467 711 518 q 687 355 711 408 q 623 261 664 301 q 523 197 581 221 q 396 174 465 174 q 343 179 367 174 q 300 196 319 184 l 293 266 q 340 250 317 254 q 385 247 363 247 q 449 260 420 247 q 501 299 479 274 q 536 361 523 325 q 549 441 549 397 q 535 522 549 488 q 500 578 522 556 q 448 610 477 599 q 385 621 418 621 q 353 618 369 621 q 321 613 337 616 l 251 90 q 253 81 249 86 q 269 71 258 76 q 300 60 281 66 q 350 49 320 55 l 344 0 l -4 0 l 2 49 q 67 69 45 58 q 91 90 90 81 l 184 762 q 167 783 185 770 q 106 804 148 795 l 112 854 l 461 854 l 454 804 "},"j":{"x_min":-268,"x_max":363,"ha":383,"o":"m 308 590 q 306 564 308 583 q 301 520 304 545 q 296 466 299 495 q 290 410 293 438 q 284 359 287 383 q 280 321 281 336 q 268 209 274 274 q 248 60 261 145 q 215 -60 237 -7 q 166 -154 193 -113 q 108 -225 138 -195 q 49 -277 77 -255 q -32 -322 12 -306 q -117 -339 -78 -339 q -173 -331 -145 -339 q -221 -312 -200 -323 q -255 -290 -242 -301 q -268 -272 -268 -279 q -255 -244 -268 -263 q -227 -207 -243 -225 q -195 -173 -211 -188 q -173 -159 -179 -159 q -153 -169 -165 -159 q -124 -191 -141 -179 q -87 -213 -108 -203 q -42 -224 -67 -224 q 3 -211 -15 -224 q 35 -171 22 -198 q 59 -99 48 -143 q 79 8 69 -55 q 94 103 87 58 q 106 187 100 149 q 114 256 111 226 q 120 306 118 286 q 124 347 122 322 q 127 396 127 371 q 127 442 127 421 q 127 475 127 464 q 125 500 127 491 q 119 513 123 509 q 111 519 116 518 q 100 521 106 521 q 85 518 95 521 q 65 512 75 516 q 40 504 53 509 l 27 550 q 92 577 55 562 q 162 605 128 592 q 224 626 196 618 q 264 635 252 635 q 295 626 283 635 q 308 590 308 618 m 363 856 q 355 817 363 837 q 332 779 347 796 q 295 751 317 763 q 243 740 273 740 q 191 757 208 740 q 175 798 175 775 q 182 836 175 816 q 205 874 190 857 q 243 903 220 891 q 294 915 265 915 q 346 897 329 915 q 363 856 363 879 "},"1":{"x_min":46.984375,"x_max":530.515625,"ha":632,"o":"m 523 0 l 46 0 l 54 56 q 138 70 104 62 q 192 86 171 78 q 222 102 213 94 q 232 117 231 109 l 300 617 q 304 659 304 644 q 298 684 304 674 q 285 690 295 687 q 257 693 276 693 q 209 688 238 693 q 137 674 180 684 l 127 729 q 172 741 146 733 q 230 760 199 749 q 294 782 261 770 q 357 805 327 794 q 412 827 387 817 q 454 844 438 837 l 478 816 l 383 117 q 387 102 382 110 q 409 86 393 95 q 455 70 426 78 q 530 56 484 62 l 523 0 "},"›":{"x_min":31.265625,"x_max":356.78125,"ha":403,"o":"m 31 29 l 38 42 q 56 73 44 54 q 82 119 67 93 q 112 170 97 144 q 142 222 128 197 q 168 268 157 248 q 187 299 180 288 l 194 312 l 187 332 q 171 385 181 353 q 150 453 162 416 q 130 521 139 489 q 114 573 120 552 l 107 594 l 147 625 l 356 336 q 353 312 354 323 q 351 295 352 303 q 350 287 350 288 l 62 0 l 31 29 "},"<":{"x_min":39.328125,"x_max":577.796875,"ha":600,"o":"m 577 602 l 543 514 l 202 385 l 514 254 l 524 224 q 490 193 509 210 q 451 163 472 176 l 55 329 l 39 356 q 46 376 42 365 q 55 398 50 387 q 65 420 60 410 q 73 438 69 431 l 560 624 l 577 602 "},"t":{"x_min":29.8125,"x_max":490.75,"ha":470,"o":"m 449 105 q 375 50 412 75 q 303 9 337 26 q 241 -18 269 -8 q 194 -28 213 -28 q 153 -17 174 -28 q 116 10 133 -7 q 90 53 100 28 q 80 108 80 78 q 80 134 80 121 q 80 161 80 147 q 82 190 80 175 q 88 225 84 206 l 136 532 l 45 532 l 29 559 l 111 614 l 149 614 l 153 637 q 162 681 157 665 q 172 706 166 697 q 184 721 178 716 q 200 734 191 727 l 330 797 l 349 780 q 338 759 343 774 q 326 720 332 745 q 314 653 321 695 l 308 614 l 471 614 l 490 590 q 470 567 483 580 q 443 540 457 553 q 416 516 429 527 q 397 502 403 505 q 365 526 389 521 q 298 532 341 532 l 295 532 l 255 287 q 251 260 253 274 q 250 232 250 245 q 250 207 250 219 q 250 189 250 196 q 262 129 250 147 q 293 112 274 112 q 348 122 317 112 q 431 155 380 132 l 449 105 "},"¬":{"x_min":31.203125,"x_max":569.65625,"ha":632,"o":"m 546 220 q 533 203 541 216 q 515 177 524 191 q 497 151 506 163 q 482 138 488 140 q 476 138 480 136 q 467 141 472 139 q 458 145 463 144 q 452 146 454 147 l 469 298 l 140 333 l 31 351 q 36 364 33 355 q 44 383 40 373 q 52 401 48 392 q 59 419 56 410 q 213 419 149 419 q 319 419 276 419 q 386 419 362 419 q 423 421 410 419 q 439 426 436 424 q 444 430 443 428 q 516 427 491 430 q 553 421 541 425 q 569 413 566 418 l 546 220 "},"ù":{"x_min":16.6875,"x_max":724.890625,"ha":747,"o":"m 724 72 q 670 35 697 53 q 617 3 642 17 q 569 -19 591 -10 q 531 -28 547 -28 q 501 -17 516 -28 q 472 13 485 -7 q 451 66 460 34 q 443 140 443 98 q 386 73 416 104 q 323 20 356 42 q 258 -15 291 -2 q 195 -28 225 -28 q 154 -17 175 -28 q 115 14 133 -6 q 86 66 98 35 q 75 138 75 97 q 78 187 75 159 q 86 247 81 215 q 97 311 91 278 q 108 375 103 345 q 116 432 113 406 q 120 474 120 457 q 117 499 120 490 q 112 512 115 508 q 103 518 108 517 q 92 520 98 520 q 75 517 85 520 q 53 511 64 515 q 27 503 41 508 l 16 549 q 82 577 45 562 q 155 605 119 592 q 219 626 190 618 q 260 635 248 635 q 287 622 280 635 q 294 577 294 609 q 289 526 294 558 q 279 457 285 494 q 267 380 273 420 q 254 303 260 340 q 244 234 248 265 q 240 182 240 202 q 251 124 240 144 q 276 105 262 105 q 305 114 287 105 q 345 144 322 123 q 395 196 368 164 q 452 274 421 229 q 461 330 456 302 q 470 385 466 359 q 477 435 474 412 q 481 474 481 458 q 479 499 481 490 q 474 512 477 508 q 466 518 470 517 q 455 520 462 520 q 439 517 449 520 q 420 511 430 515 q 396 503 408 508 l 384 549 q 449 577 412 562 q 519 605 485 592 q 581 626 553 618 q 621 635 609 635 q 646 622 640 635 q 653 577 653 609 q 649 528 653 558 q 640 466 645 499 q 628 396 634 432 q 617 325 622 359 q 608 261 612 291 q 604 208 604 230 q 614 122 604 146 q 640 98 623 98 q 673 102 658 98 q 712 116 688 106 l 724 72 m 493 715 q 464 700 480 707 q 436 691 449 693 l 241 937 l 268 971 q 296 977 276 973 q 338 984 315 980 q 380 991 360 988 q 409 995 400 995 l 493 715 "},"ĉ":{"x_min":48,"x_max":625.0625,"ha":592,"o":"m 614 557 q 580 525 599 543 q 540 491 560 507 q 501 464 519 475 q 472 453 483 453 q 450 466 461 453 q 426 495 439 480 q 396 524 412 511 q 361 538 380 538 q 295 512 324 538 q 247 448 267 487 q 218 359 228 408 q 208 262 208 310 q 215 184 208 218 q 235 126 222 150 q 266 89 248 102 q 305 77 283 77 q 393 103 342 77 q 517 190 444 130 q 525 179 520 187 q 535 165 530 172 q 545 151 540 157 q 551 142 549 144 q 454 61 498 94 q 372 8 410 28 q 302 -19 334 -11 q 239 -28 269 -28 q 177 -16 210 -28 q 114 23 143 -4 q 66 99 85 52 q 48 218 48 147 q 57 310 48 263 q 88 401 66 357 q 143 487 109 446 q 228 561 178 527 q 272 586 247 573 q 326 610 297 599 q 384 628 354 621 q 442 635 414 635 q 496 625 472 635 q 539 602 519 615 q 577 576 559 589 q 614 557 595 563 m 625 732 q 602 707 615 718 q 578 691 589 696 l 427 845 l 232 691 q 214 706 226 695 q 195 732 201 718 l 397 988 l 490 988 l 625 732 "},"ï":{"x_min":37.734375,"x_max":507,"ha":386,"o":"m 364 74 q 299 37 333 55 q 236 4 266 19 q 178 -19 205 -10 q 132 -28 151 -28 q 93 -6 109 -28 q 78 51 78 14 q 82 106 78 71 q 94 182 87 141 q 109 268 100 223 q 123 353 117 313 q 135 425 130 394 q 140 474 140 457 q 137 499 140 490 q 132 512 135 508 q 123 518 129 517 q 112 520 118 520 q 96 517 106 520 q 75 511 86 515 q 49 503 63 508 l 37 549 q 102 577 66 562 q 172 605 138 592 q 234 626 206 618 q 275 635 262 635 q 304 622 293 635 q 315 577 315 609 q 310 523 315 558 q 297 445 305 488 q 282 357 290 403 q 266 269 273 312 q 253 192 258 227 q 249 137 249 157 q 253 107 249 116 q 269 98 257 98 q 288 99 279 98 q 307 103 297 100 q 327 110 316 106 q 352 120 337 114 l 364 74 m 245 861 q 237 818 245 840 q 216 777 230 795 q 182 747 202 759 q 136 735 162 735 q 88 755 104 735 q 73 803 73 776 q 80 845 73 822 q 101 886 87 867 q 135 917 115 904 q 181 930 155 930 q 209 924 197 930 q 229 908 221 918 q 240 886 236 899 q 245 861 245 874 m 507 861 q 499 818 507 840 q 478 777 492 795 q 443 747 464 759 q 398 735 423 735 q 350 755 366 735 q 335 803 335 776 q 342 845 335 822 q 363 886 349 867 q 397 917 377 904 q 442 930 417 930 q 470 924 458 930 q 491 908 483 918 q 502 886 498 899 q 507 861 507 874 "},"ī":{"x_min":36.984375,"x_max":504.5625,"ha":385,"o":"m 364 74 q 299 37 332 55 q 235 4 265 19 q 177 -19 204 -10 q 131 -28 150 -28 q 92 -6 108 -28 q 77 51 77 14 q 81 106 77 71 q 93 182 86 141 q 108 268 99 223 q 122 353 116 313 q 134 425 129 394 q 139 474 139 457 q 136 499 139 490 q 131 512 134 508 q 122 518 128 517 q 111 520 117 520 q 95 517 105 520 q 74 511 85 515 q 49 503 62 508 l 36 549 q 101 577 65 562 q 171 605 137 592 q 233 626 205 618 q 274 635 261 635 q 303 622 293 635 q 314 577 314 609 q 309 523 314 558 q 297 445 304 488 q 281 357 289 403 q 265 269 273 312 q 253 192 258 227 q 249 137 249 157 q 253 107 249 116 q 269 98 257 98 q 288 99 279 98 q 306 103 297 100 q 326 110 316 106 q 351 120 337 114 l 364 74 m 504 869 q 496 849 502 861 q 483 825 490 837 q 470 801 476 812 q 460 785 463 790 l 103 785 l 87 806 q 95 825 90 813 q 108 848 101 836 q 120 872 114 860 q 130 890 126 884 l 486 890 l 504 869 "},"Ò":{"x_min":51,"x_max":784,"ha":795,"o":"m 622 512 q 611 619 622 569 q 579 706 600 669 q 526 764 558 743 q 454 785 495 785 q 379 765 413 785 q 318 713 345 746 q 272 637 292 680 q 240 547 252 594 q 221 451 227 499 q 215 360 215 403 q 225 244 215 297 q 258 153 236 192 q 309 94 279 115 q 380 73 340 73 q 458 93 423 73 q 519 148 493 114 q 566 228 546 183 q 597 322 585 273 q 616 420 610 371 q 622 512 622 470 m 784 525 q 774 427 784 476 q 748 329 765 377 q 707 236 731 281 q 651 152 682 191 q 587 84 623 116 q 512 29 552 52 q 428 -7 472 6 q 339 -21 385 -21 q 217 6 270 -21 q 126 82 163 34 q 70 194 89 130 q 51 328 51 257 q 59 428 51 379 q 83 522 67 476 q 121 611 99 569 q 170 690 143 653 q 233 762 198 728 q 309 820 267 795 q 397 860 350 845 q 498 875 444 875 q 624 847 571 875 q 713 771 678 819 q 766 659 749 723 q 784 525 784 596 m 602 955 q 581 927 592 941 q 560 908 571 914 l 272 1068 l 283 1110 q 312 1127 295 1117 q 348 1146 330 1136 q 384 1162 367 1155 q 410 1174 400 1170 l 602 955 "},"Ď":{"x_min":-5.65625,"x_max":801,"ha":819,"o":"m 387 803 q 367 801 377 803 q 346 800 356 800 l 253 109 q 268 81 250 90 q 338 72 287 72 q 425 90 385 72 q 497 139 464 108 q 554 211 529 170 q 596 299 579 252 q 621 395 613 345 q 630 493 630 445 q 616 622 630 565 q 573 720 602 680 q 497 781 543 760 q 387 803 451 803 m 801 509 q 786 388 801 449 q 745 271 772 327 q 678 165 718 215 q 589 79 639 115 q 477 21 538 42 q 346 0 416 0 l -5 0 l 1 49 q 66 70 43 59 q 91 90 89 81 l 187 786 l 92 772 l 92 835 q 173 853 130 845 q 258 866 216 861 q 342 872 301 872 q 417 872 382 872 q 588 846 515 872 q 707 774 660 821 q 777 659 754 726 q 801 509 801 592 m 530 925 l 437 925 l 296 1139 q 319 1164 306 1152 q 342 1184 332 1176 l 501 1056 l 689 1184 q 709 1164 697 1177 q 727 1139 720 1152 l 530 925 "},"&":{"x_min":42.53125,"x_max":928.578125,"ha":877,"o":"m 390 766 q 388 693 385 731 q 403 616 392 656 q 458 657 436 635 q 496 702 481 680 q 520 748 512 725 q 531 793 528 771 q 522 869 539 841 q 475 896 505 896 q 443 886 457 896 q 418 858 429 876 q 401 817 408 840 q 390 766 394 793 m 343 77 q 414 88 379 77 q 480 119 448 100 q 430 186 455 150 q 380 261 404 222 q 334 342 356 300 q 294 428 312 384 q 235 344 254 386 q 210 255 217 302 q 213 173 204 207 q 242 118 223 140 q 289 87 262 97 q 343 77 316 77 m 928 507 q 908 484 919 497 q 886 460 898 472 q 865 438 875 448 q 846 422 854 428 q 799 443 824 433 q 752 454 773 454 q 763 413 763 435 q 760 365 763 391 q 729 270 754 320 q 663 171 704 220 q 684 148 674 159 q 705 126 695 136 q 767 89 733 97 q 835 90 801 82 l 835 41 q 775 16 806 28 q 717 -2 744 5 q 670 -15 690 -10 q 643 -20 649 -20 q 599 0 627 -20 q 535 58 571 21 q 419 1 480 22 q 293 -20 358 -20 q 177 -3 227 -20 q 94 46 126 13 q 49 128 62 79 q 46 241 37 177 q 107 384 55 312 q 261 527 160 455 q 242 629 247 578 q 244 728 237 679 q 277 829 251 783 q 341 911 303 876 q 427 964 379 945 q 525 984 474 984 q 605 970 573 984 q 656 932 637 956 q 681 879 675 909 q 683 815 688 848 q 657 744 678 780 q 602 673 635 707 q 531 607 570 638 q 451 550 491 575 l 430 537 q 508 382 461 458 q 605 241 555 306 q 643 337 636 289 q 642 389 647 366 q 626 429 637 413 q 599 454 615 446 q 564 463 583 463 l 549 487 q 561 498 553 491 q 578 514 569 506 q 596 528 587 521 q 611 537 604 534 l 913 537 l 928 507 "},"˝":{"x_min":92.234375,"x_max":531.6875,"ha":473,"o":"m 139 691 q 115 700 128 692 q 92 716 101 708 l 220 995 q 241 992 227 994 q 271 987 255 989 q 301 982 287 985 q 320 978 314 979 l 333 940 l 139 691 m 337 691 q 313 700 327 692 q 290 716 299 708 l 419 995 q 440 992 425 994 q 470 987 454 989 q 499 982 486 985 q 518 978 513 979 l 531 940 l 337 691 "},"I":{"x_min":8.8125,"x_max":455.046875,"ha":429,"o":"m 448 805 q 381 784 404 795 q 356 763 357 772 l 263 90 q 281 70 262 82 q 344 49 299 59 l 337 0 l 8 0 l 15 49 q 82 70 58 59 q 107 90 105 81 l 198 763 q 181 783 200 771 q 118 805 162 795 l 125 854 l 455 854 l 448 805 "},"G":{"x_min":41,"x_max":761,"ha":760,"o":"m 761 371 q 705 345 722 360 q 687 315 689 331 q 681 268 684 297 q 674 210 677 240 q 667 153 670 179 q 662 114 663 127 q 566 47 610 73 q 485 5 522 21 q 415 -15 447 -9 q 355 -21 382 -21 q 236 3 293 -21 q 136 73 180 27 q 66 184 92 118 q 41 331 41 249 q 55 458 41 395 q 96 577 70 520 q 161 683 123 634 q 243 770 198 732 q 303 814 271 794 q 372 847 336 833 q 451 867 409 860 q 543 875 494 875 q 596 870 566 875 q 656 856 626 865 q 712 835 685 848 q 756 806 738 822 q 755 793 758 803 q 744 768 751 783 q 726 738 736 754 q 704 706 715 721 q 684 679 694 690 q 668 661 674 667 l 629 670 q 601 717 617 695 q 566 755 586 739 q 519 780 545 771 q 458 790 492 790 q 395 773 429 790 q 327 724 361 757 q 278 657 301 699 q 238 564 255 614 q 212 461 222 514 q 203 360 203 407 q 221 235 203 287 q 270 151 240 183 q 336 102 300 118 q 408 86 372 86 q 458 92 431 86 q 509 116 485 98 l 537 315 q 535 329 538 322 q 518 342 532 336 q 475 356 504 349 q 397 371 445 363 l 397 421 l 761 421 l 761 371 "},"`":{"x_min":139.03125,"x_max":391.296875,"ha":411,"o":"m 391 715 q 362 700 377 707 q 334 691 346 693 l 139 937 l 166 971 q 193 977 174 973 q 236 984 213 980 q 278 991 258 988 q 307 995 298 995 l 391 715 "},"·":{"x_min":61,"x_max":269,"ha":324,"o":"m 269 459 q 260 413 269 437 q 236 370 252 389 q 197 338 220 351 q 143 326 174 326 q 80 347 100 326 q 61 403 61 368 q 69 447 61 424 q 95 489 78 470 q 135 521 111 509 q 187 533 158 533 q 248 512 228 533 q 269 459 269 492 "},"ŏ":{"x_min":26,"x_max":615.40625,"ha":617,"o":"m 432 326 q 424 418 432 377 q 400 485 415 458 q 366 526 386 512 q 325 541 346 541 q 259 517 285 541 q 215 456 232 493 q 192 374 199 419 q 185 285 185 329 q 194 199 185 239 q 220 129 204 159 q 256 81 236 99 q 298 64 277 64 q 343 75 323 64 q 378 107 363 87 q 403 153 393 127 q 420 208 414 179 q 429 268 426 237 q 432 326 432 298 m 591 379 q 579 287 591 333 q 546 196 567 240 q 494 113 524 153 q 425 42 463 73 q 386 15 407 28 q 341 -7 364 2 q 295 -22 318 -17 q 252 -28 272 -28 q 157 -7 199 -28 q 86 46 115 12 q 41 129 57 81 q 26 233 26 177 q 35 327 26 282 q 65 415 45 373 q 117 496 85 457 q 194 569 149 535 q 233 595 212 583 q 278 616 255 607 q 325 629 301 624 q 371 635 349 635 q 465 615 424 635 q 534 563 506 596 q 576 482 562 529 q 591 379 591 435 m 615 905 q 558 813 590 850 q 494 752 527 775 q 428 718 460 728 q 368 707 395 707 q 308 718 338 707 q 252 752 278 728 q 204 813 225 776 q 172 905 184 851 q 184 919 177 911 q 198 933 191 926 q 212 946 205 940 q 224 955 219 952 q 252 898 235 921 q 291 862 270 876 q 334 842 312 848 q 376 836 357 836 q 423 842 397 836 q 476 862 450 848 q 527 898 502 876 q 570 955 551 921 q 581 946 575 952 q 594 934 587 941 q 606 919 600 926 q 615 905 612 911 "},"¿":{"x_min":-21,"x_max":484.703125,"ha":596,"o":"m 233 497 q 241 543 233 519 q 265 586 249 567 q 305 618 281 605 q 359 631 328 631 q 421 609 401 631 q 441 553 441 588 q 432 509 441 531 q 406 467 423 486 q 366 435 390 447 q 314 423 343 423 q 253 444 273 423 q 233 497 233 464 m 484 -113 q 462 -200 484 -157 q 398 -279 439 -244 q 300 -337 357 -315 q 172 -360 242 -360 q 89 -347 125 -360 q 28 -311 53 -334 q -8 -259 4 -289 q -21 -194 -21 -229 q -1 -92 -21 -137 q 47 -11 17 -48 q 112 57 76 25 q 179 122 147 89 q 233 190 210 154 q 262 270 256 226 l 270 331 q 303 349 282 340 q 340 364 324 358 l 353 349 l 353 266 q 337 186 353 222 q 297 115 321 149 q 248 50 274 82 q 200 -13 222 18 q 163 -80 178 -45 q 149 -155 149 -115 q 154 -206 149 -182 q 170 -248 159 -230 q 198 -275 182 -265 q 236 -285 214 -285 q 275 -273 258 -285 q 301 -239 291 -260 q 314 -190 311 -218 q 310 -130 316 -161 q 345 -116 324 -123 q 388 -103 366 -109 q 430 -93 409 -98 q 465 -88 450 -89 l 484 -113 "},"ý":{"x_min":-133,"x_max":655.390625,"ha":664,"o":"m 652 583 q 634 512 652 560 q 583 396 616 464 q 507 241 551 327 q 409 55 462 155 q 317 -104 362 -31 q 223 -229 271 -176 q 123 -310 175 -281 q 11 -339 71 -339 q -40 -332 -14 -339 q -86 -316 -66 -326 q -120 -296 -107 -307 q -133 -279 -133 -286 q -121 -249 -133 -269 q -95 -208 -110 -229 q -64 -170 -80 -187 q -38 -148 -48 -153 q 26 -193 -6 -178 q 83 -208 58 -208 q 163 -168 122 -208 q 250 -53 204 -127 q 232 35 242 -13 q 210 134 222 83 q 184 235 197 184 q 158 329 171 285 q 133 409 145 374 q 111 465 121 444 q 85 510 96 499 q 62 521 74 521 q 45 518 56 521 q 23 512 34 516 q -3 504 10 509 l -17 549 q 46 579 13 564 q 107 607 78 595 q 159 627 136 619 q 194 635 182 635 q 227 615 213 635 q 258 549 241 595 q 284 471 270 515 q 311 375 297 426 q 338 268 325 324 q 364 156 352 212 q 417 266 392 212 q 460 366 442 320 q 490 446 479 412 q 501 497 501 480 q 465 531 501 531 q 440 529 453 533 q 408 516 428 525 l 391 562 q 443 589 415 576 q 498 612 471 602 q 549 628 525 622 q 590 635 573 635 q 613 633 602 635 q 632 626 624 631 q 646 610 641 620 q 652 583 652 600 m 655 927 l 398 691 q 375 703 387 694 q 353 725 362 713 l 511 995 l 538 990 q 577 983 556 987 q 615 974 597 978 q 639 968 633 970 l 655 927 "},"º":{"x_min":14.984375,"x_max":372,"ha":345,"o":"m 278 688 q 259 766 278 739 q 216 793 240 793 q 182 781 195 793 q 160 749 168 769 q 150 706 153 730 q 147 659 147 682 q 152 617 147 636 q 166 582 157 597 q 186 558 175 567 q 211 550 198 550 q 243 563 230 550 q 264 596 256 576 q 274 641 271 617 q 278 688 278 666 m 346 436 q 337 416 342 425 q 328 398 331 407 l 31 398 l 14 417 q 23 437 18 427 q 32 457 28 447 l 329 457 l 346 436 m 372 712 q 348 616 372 663 q 283 537 324 570 q 236 506 261 518 q 181 494 211 494 q 129 504 152 494 q 89 534 105 515 q 63 578 72 553 q 55 634 55 604 q 76 729 55 686 q 145 810 97 772 q 193 839 167 828 q 245 850 219 850 q 302 839 279 850 q 341 811 326 829 q 364 767 357 793 q 372 712 372 742 "},"ź":{"x_min":-12.203125,"x_max":590,"ha":532,"o":"m 531 593 q 464 516 494 553 q 409 445 435 480 q 360 376 383 411 q 311 305 337 341 q 257 228 286 268 q 193 142 229 187 q 211 147 202 145 q 229 151 219 149 q 248 153 239 153 q 283 147 262 153 q 326 135 303 141 q 370 122 348 128 q 410 117 392 117 q 424 119 416 117 q 442 129 432 121 q 462 151 451 136 q 486 190 474 165 l 526 166 q 491 91 507 124 q 454 34 474 57 q 411 -1 435 10 q 354 -13 387 -13 q 295 -6 324 -13 q 239 9 266 0 q 189 24 212 17 q 149 32 166 32 q 95 18 127 32 q 12 -20 63 4 l -12 13 q 55 98 21 53 q 121 189 88 143 q 184 279 153 234 q 242 363 214 323 q 294 436 270 403 q 338 494 318 470 l 181 494 q 153 490 165 494 q 130 475 141 486 q 111 447 120 465 q 92 400 103 429 l 48 411 q 63 475 54 442 q 78 539 71 508 q 91 595 86 569 q 100 635 97 620 q 135 626 113 631 q 181 620 158 620 l 512 620 l 531 593 m 590 927 l 333 691 q 310 703 322 694 q 288 725 297 713 l 446 995 l 473 990 q 512 983 491 987 q 550 974 532 979 q 574 968 568 970 l 590 927 "},"ű":{"x_min":16.6875,"x_max":735.734375,"ha":747,"o":"m 724 72 q 670 35 697 53 q 617 3 642 17 q 569 -19 591 -10 q 531 -28 547 -28 q 501 -17 516 -28 q 472 13 485 -7 q 451 66 460 34 q 443 140 443 98 q 386 73 416 104 q 323 20 356 42 q 258 -15 291 -2 q 195 -28 225 -28 q 154 -17 175 -28 q 115 14 133 -6 q 86 66 98 35 q 75 138 75 97 q 78 187 75 159 q 86 247 81 215 q 97 311 91 278 q 108 375 103 345 q 116 432 113 406 q 120 474 120 457 q 117 499 120 490 q 112 512 115 508 q 103 518 108 517 q 92 520 98 520 q 75 517 85 520 q 53 511 64 515 q 27 503 41 508 l 16 549 q 82 577 45 562 q 155 605 119 592 q 219 626 190 618 q 260 635 248 635 q 287 622 280 635 q 294 577 294 609 q 289 526 294 558 q 279 457 285 494 q 267 380 273 420 q 254 303 260 340 q 244 234 248 265 q 240 182 240 202 q 251 124 240 144 q 276 105 262 105 q 305 114 287 105 q 345 144 322 123 q 395 196 368 164 q 452 274 421 229 q 461 330 456 302 q 470 385 466 359 q 477 435 474 412 q 481 474 481 458 q 479 499 481 490 q 474 512 477 508 q 466 518 470 517 q 455 520 462 520 q 439 517 449 520 q 420 511 430 515 q 396 503 408 508 l 384 549 q 449 577 412 562 q 519 605 485 592 q 581 626 553 618 q 621 635 609 635 q 646 622 640 635 q 653 577 653 609 q 649 528 653 558 q 640 466 645 499 q 628 396 634 432 q 617 325 622 359 q 608 261 612 291 q 604 208 604 230 q 614 122 604 146 q 640 98 623 98 q 673 102 658 98 q 712 116 688 106 l 724 72 m 342 691 q 319 700 332 692 q 296 716 305 708 l 424 995 q 445 992 431 994 q 475 987 459 989 q 505 982 491 985 q 524 978 518 979 l 537 940 l 342 691 m 541 691 q 518 700 531 692 q 495 716 504 708 l 622 995 q 643 992 629 994 q 673 987 657 989 q 703 982 689 985 q 722 978 716 979 l 735 940 l 541 691 "},"ń":{"x_min":21.203125,"x_max":715.3125,"ha":732,"o":"m 715 74 q 651 38 684 56 q 585 5 617 19 q 527 -18 554 -9 q 483 -28 500 -28 q 444 -6 460 -28 q 429 51 429 14 q 433 92 429 63 q 443 158 437 121 q 456 238 449 196 q 469 318 463 280 q 479 388 475 356 q 484 434 484 419 q 476 490 484 474 q 448 506 469 506 q 423 500 439 506 q 387 481 406 494 q 346 446 367 468 q 304 393 324 425 q 273 315 284 360 q 250 204 262 270 q 241 151 245 173 q 236 109 238 128 q 235 75 235 91 q 235 42 235 59 q 204 28 226 38 q 158 7 182 18 q 112 -13 133 -3 q 82 -28 90 -23 l 55 -2 q 73 92 64 43 q 90 188 82 140 q 105 281 98 236 q 116 364 112 326 q 124 431 121 402 q 127 476 127 460 q 125 501 127 492 q 120 514 123 510 q 112 520 116 519 q 101 522 107 522 q 84 519 95 522 q 61 512 73 516 q 34 503 49 508 l 21 551 q 86 578 49 563 q 159 605 124 593 q 222 626 194 618 q 260 635 250 635 q 275 631 269 635 q 285 620 281 628 q 290 597 289 612 q 292 558 292 582 q 292 525 292 544 q 288 490 292 507 q 434 599 362 564 q 567 635 506 635 q 605 630 588 635 q 633 613 622 626 q 650 580 644 601 q 657 527 657 559 q 652 470 657 503 q 642 401 648 438 q 628 325 636 364 q 614 251 620 286 q 604 186 608 215 q 600 137 600 156 q 606 106 600 114 q 624 98 612 98 q 654 103 639 98 q 697 120 669 108 l 715 74 m 672 927 l 416 691 q 393 703 405 694 q 371 725 380 713 l 529 995 l 556 990 q 594 983 574 987 q 633 974 615 978 q 657 968 650 970 l 672 927 "},";":{"x_min":-8.453125,"x_max":303,"ha":324,"o":"m 303 577 q 294 531 303 555 q 270 488 286 507 q 231 456 254 469 q 177 444 208 444 q 114 465 134 444 q 95 520 95 486 q 103 565 95 542 q 129 607 112 588 q 169 639 145 627 q 221 651 192 651 q 282 630 262 651 q 303 577 303 610 m 254 78 q 244 19 254 50 q 217 -44 234 -12 q 177 -107 200 -76 q 130 -166 155 -139 q 79 -217 105 -194 q 30 -253 54 -239 l -8 -219 q 69 -110 43 -164 q 95 -16 95 -56 q 90 9 95 -3 q 77 31 86 21 q 53 46 68 41 q 18 49 39 51 l 18 102 q 39 116 25 108 q 71 132 53 124 q 108 148 88 141 q 146 161 127 156 q 180 171 164 167 q 205 175 195 175 q 226 160 218 168 q 241 140 235 151 q 250 114 247 129 q 254 78 254 99 "},"Ġ":{"x_min":41,"x_max":761,"ha":760,"o":"m 761 371 q 706 345 722 360 q 687 315 689 331 q 681 268 685 297 q 674 210 677 240 q 667 153 670 179 q 662 114 664 127 q 566 47 611 73 q 485 5 522 21 q 415 -15 447 -9 q 355 -21 383 -21 q 236 3 293 -21 q 136 73 180 27 q 66 184 92 118 q 41 331 41 249 q 55 458 41 395 q 96 577 70 520 q 161 683 123 634 q 243 770 198 732 q 303 814 271 794 q 372 847 336 833 q 451 867 409 860 q 543 875 494 875 q 596 870 566 875 q 656 856 626 865 q 712 835 685 848 q 756 806 738 822 q 755 793 758 803 q 744 768 751 783 q 726 738 736 754 q 705 706 715 721 q 684 679 694 690 q 668 661 674 667 l 629 670 q 601 717 617 695 q 566 755 586 739 q 519 780 545 771 q 459 790 492 790 q 395 773 429 790 q 327 724 361 757 q 278 657 301 699 q 238 564 255 614 q 212 461 222 514 q 203 360 203 407 q 221 235 203 287 q 270 151 240 183 q 336 102 300 118 q 408 86 372 86 q 458 92 431 86 q 509 116 485 98 l 537 315 q 535 329 538 322 q 518 342 533 336 q 475 356 504 349 q 397 371 446 363 l 397 421 l 761 421 l 761 371 m 603 1052 q 595 1009 603 1031 q 574 968 588 987 q 540 937 560 949 q 495 926 520 926 q 447 946 462 926 q 432 993 432 967 q 439 1036 432 1014 q 460 1077 446 1058 q 494 1108 474 1096 q 539 1120 514 1120 q 567 1114 555 1120 q 587 1099 579 1109 q 598 1077 594 1090 q 603 1052 603 1065 "},"6":{"x_min":39,"x_max":594.125,"ha":633,"o":"m 334 437 q 274 417 306 437 q 208 364 242 398 q 203 309 203 336 q 203 253 203 281 q 210 166 203 202 q 232 109 218 131 q 266 77 246 87 q 308 67 285 67 q 347 78 330 67 q 378 108 364 89 q 400 152 391 127 q 415 202 410 176 q 424 254 421 228 q 427 301 427 280 q 418 369 427 343 q 396 411 410 396 q 366 431 383 426 q 334 437 350 437 m 594 787 q 455 742 515 772 q 350 669 395 712 q 276 575 306 627 q 228 462 246 522 q 312 515 271 497 q 390 533 353 533 q 471 518 435 533 q 533 475 507 503 q 572 411 558 448 q 586 327 586 373 q 576 250 586 291 q 548 171 566 210 q 503 98 530 133 q 443 36 477 63 q 367 -5 408 10 q 277 -21 326 -21 q 184 -1 228 -21 q 108 52 141 17 q 57 136 76 87 q 39 244 39 185 q 54 387 39 317 q 102 521 70 458 q 179 640 133 585 q 287 737 226 695 q 422 809 347 780 q 585 847 497 837 l 594 787 "},"n":{"x_min":21.203125,"x_max":715.3125,"ha":732,"o":"m 715 74 q 651 38 684 56 q 585 5 617 19 q 527 -18 554 -9 q 483 -28 500 -28 q 444 -6 460 -28 q 429 51 429 14 q 433 92 429 63 q 443 158 437 121 q 456 238 449 196 q 469 318 463 280 q 479 388 475 356 q 484 434 484 419 q 476 490 484 474 q 448 506 469 506 q 423 500 439 506 q 387 481 406 494 q 346 446 367 468 q 304 393 324 425 q 273 315 284 360 q 250 204 262 270 q 241 151 245 173 q 236 109 238 128 q 235 75 235 91 q 235 42 235 59 q 204 28 226 38 q 158 7 182 18 q 112 -13 133 -3 q 82 -28 90 -23 l 55 -2 q 73 92 64 43 q 90 188 82 140 q 105 281 98 236 q 116 364 112 326 q 124 431 121 402 q 127 476 127 460 q 125 501 127 492 q 120 514 123 510 q 112 520 116 519 q 101 522 107 522 q 84 519 95 522 q 61 512 73 516 q 34 503 49 508 l 21 551 q 86 578 49 563 q 159 605 124 593 q 222 626 194 618 q 260 635 250 635 q 275 631 269 635 q 285 620 281 628 q 290 597 289 612 q 292 558 292 582 q 292 525 292 544 q 288 490 292 507 q 434 599 362 564 q 567 635 506 635 q 605 630 588 635 q 633 613 622 626 q 650 580 644 601 q 657 527 657 559 q 652 470 657 503 q 642 401 648 438 q 628 325 636 364 q 614 251 620 286 q 604 186 608 215 q 600 137 600 156 q 606 106 600 114 q 624 98 612 98 q 654 103 639 98 q 697 120 669 108 l 715 74 "},"¤":{"x_min":33.234375,"x_max":604.25,"ha":632,"o":"m 341 555 q 285 542 311 555 q 238 510 259 530 q 204 462 218 489 q 187 407 191 436 q 189 354 183 380 q 210 307 195 327 q 247 273 225 286 q 300 260 270 260 q 355 272 329 260 q 402 305 381 284 q 435 352 422 326 q 453 408 448 379 q 450 461 457 435 q 430 508 444 487 q 393 542 415 529 q 341 555 370 555 m 484 123 l 413 216 q 355 186 386 197 q 289 176 324 176 q 225 187 254 176 q 174 218 195 198 l 75 124 l 50 124 q 41 150 46 135 q 33 180 36 166 l 131 275 q 112 337 118 304 q 111 405 107 370 q 131 476 116 442 q 168 540 146 510 l 94 636 l 101 666 q 127 679 112 673 q 155 692 141 686 l 226 597 q 286 629 254 618 q 353 641 318 641 q 415 629 387 641 q 465 597 443 617 l 562 691 l 588 691 l 604 633 l 507 539 q 527 474 522 508 q 528 405 533 440 q 509 336 523 370 q 472 273 495 302 l 545 179 l 541 148 l 484 123 "},"Ĝ":{"x_min":41,"x_max":761,"ha":760,"o":"m 761 371 q 705 345 722 360 q 687 315 689 331 q 681 268 684 297 q 674 210 677 240 q 667 153 670 179 q 662 114 663 127 q 566 47 610 73 q 485 5 522 21 q 415 -15 447 -9 q 355 -21 382 -21 q 236 3 293 -21 q 136 73 180 27 q 66 184 92 118 q 41 331 41 249 q 55 458 41 395 q 96 577 70 520 q 161 683 123 634 q 243 770 198 732 q 303 814 271 794 q 372 847 336 833 q 451 867 409 860 q 543 875 494 875 q 596 870 566 875 q 656 856 626 865 q 712 835 685 848 q 756 806 738 822 q 755 793 758 803 q 744 768 751 783 q 726 738 736 754 q 704 706 715 721 q 684 679 694 690 q 668 661 674 667 l 629 670 q 601 717 617 695 q 566 755 586 739 q 519 780 545 771 q 458 790 492 790 q 395 773 429 790 q 327 724 361 757 q 278 657 301 699 q 238 564 255 614 q 212 461 222 514 q 203 360 203 407 q 221 235 203 287 q 270 151 240 183 q 336 102 300 118 q 408 86 372 86 q 458 92 431 86 q 509 116 485 98 l 537 315 q 535 329 538 322 q 518 342 532 336 q 475 356 504 349 q 397 371 445 363 l 397 421 l 761 421 l 761 371 m 720 948 q 701 924 711 935 q 680 908 691 913 l 521 1027 l 333 908 q 317 923 327 912 q 300 948 307 935 l 497 1158 l 580 1158 l 720 948 "},"p":{"x_min":-14.234375,"x_max":651,"ha":695,"o":"m 423 515 q 392 503 412 515 q 348 471 372 492 q 300 419 325 449 q 254 348 276 388 q 242 277 248 315 q 228 195 236 239 q 257 162 240 178 q 295 134 275 147 q 335 115 314 122 q 372 107 355 107 q 424 124 401 107 q 459 168 446 141 q 483 255 476 205 q 491 355 491 304 q 485 421 491 391 q 469 471 479 450 q 448 503 460 491 q 423 515 436 515 m 287 590 q 276 493 287 562 q 345 565 314 537 q 404 608 377 592 q 456 629 432 624 q 502 635 480 635 q 559 621 532 635 q 606 581 586 607 q 639 515 627 554 q 651 425 651 476 q 643 343 651 385 q 624 260 636 301 q 595 180 612 218 q 560 112 579 142 q 524 61 544 86 q 482 16 505 36 q 433 -15 459 -2 q 379 -28 407 -28 q 341 -18 362 -28 q 299 6 320 -9 q 255 46 277 23 q 212 98 232 70 l 196 3 q 178 -115 185 -65 q 169 -197 172 -165 q 166 -249 166 -230 q 170 -278 166 -268 q 137 -289 159 -281 q 90 -307 115 -297 q 43 -326 65 -317 q 12 -339 21 -335 l -14 -314 q -4 -255 -11 -295 q 11 -164 2 -216 q 32 -49 21 -111 q 54 75 43 12 q 76 201 66 139 q 95 317 87 263 q 108 411 103 370 q 113 474 113 452 q 111 499 113 490 q 103 512 108 508 q 93 518 99 517 q 82 520 88 520 q 65 517 75 520 q 44 511 54 515 q 18 503 31 508 l 6 549 q 73 578 36 563 q 146 606 111 594 q 209 626 181 618 q 250 635 238 635 q 277 625 268 635 q 287 590 287 616 "},"‡":{"x_min":38.71875,"x_max":658.3125,"ha":620,"o":"m 658 754 q 639 721 652 743 q 612 674 627 699 q 582 627 597 650 q 558 591 568 604 q 486 630 522 616 q 404 650 451 644 q 409 571 404 609 q 427 488 414 533 q 387 407 404 445 q 361 331 371 368 q 588 385 475 331 l 603 351 q 584 317 597 339 q 557 271 572 295 q 527 224 542 246 q 503 188 513 201 q 467 208 485 199 q 431 225 450 218 q 393 238 413 233 q 349 246 372 244 q 347 192 347 217 q 350 145 347 168 q 360 101 354 123 q 376 54 367 79 q 341 33 363 46 q 296 9 319 21 q 252 -12 273 -2 q 220 -27 231 -22 l 192 -5 q 247 119 225 58 q 280 246 269 180 q 167 226 223 241 q 53 188 111 212 l 38 223 q 57 256 44 234 q 84 302 69 278 q 114 349 99 326 q 138 385 128 372 q 209 345 174 360 q 291 326 244 331 q 286 405 291 365 q 269 488 281 445 q 310 571 294 533 q 334 650 326 610 q 221 630 277 645 q 108 591 166 615 l 93 626 q 112 659 99 637 q 140 705 125 681 q 169 752 155 730 q 194 788 184 775 q 265 748 230 762 q 347 730 300 735 q 347 784 347 759 q 343 831 347 808 q 333 876 339 854 q 318 923 326 899 q 353 943 331 931 q 399 967 376 955 q 444 989 423 979 q 475 1004 465 999 l 503 982 q 452 858 474 920 q 416 733 429 797 q 529 748 473 733 q 643 788 585 763 l 658 754 "},"ň":{"x_min":21.203125,"x_max":715.3125,"ha":732,"o":"m 715 74 q 651 38 684 56 q 585 5 617 19 q 527 -18 554 -9 q 483 -28 500 -28 q 444 -6 460 -28 q 429 51 429 14 q 433 92 429 63 q 443 158 437 121 q 456 238 449 196 q 469 318 463 280 q 479 388 475 356 q 484 434 484 419 q 476 490 484 474 q 448 506 469 506 q 423 500 439 506 q 387 481 406 494 q 346 446 367 468 q 304 393 324 425 q 273 315 284 360 q 250 204 262 270 q 241 151 245 173 q 236 109 238 128 q 235 75 235 91 q 235 42 235 59 q 204 28 226 38 q 158 7 182 18 q 112 -13 133 -3 q 82 -28 90 -23 l 55 -2 q 73 92 64 43 q 90 188 82 140 q 105 281 98 236 q 116 364 112 326 q 124 431 121 402 q 127 476 127 460 q 125 501 127 492 q 120 514 123 510 q 112 520 116 519 q 101 522 107 522 q 84 519 95 522 q 61 512 73 516 q 34 503 49 508 l 21 551 q 86 578 49 563 q 159 605 124 593 q 222 626 194 618 q 260 635 250 635 q 275 631 269 635 q 285 620 281 628 q 290 597 289 612 q 292 558 292 582 q 292 525 292 544 q 288 490 292 507 q 434 599 362 564 q 567 635 506 635 q 605 630 588 635 q 633 613 622 626 q 650 580 644 601 q 657 527 657 559 q 652 470 657 503 q 642 401 648 438 q 628 325 636 364 q 614 251 620 286 q 604 186 608 215 q 600 137 600 156 q 606 106 600 114 q 624 98 612 98 q 654 103 639 98 q 697 120 669 108 l 715 74 m 475 707 l 383 707 l 246 960 q 268 982 257 972 q 292 1000 280 993 l 444 850 l 639 1000 q 658 982 647 993 q 676 960 669 972 l 475 707 "},"S":{"x_min":17,"x_max":653.21875,"ha":661,"o":"m 651 812 q 651 800 654 810 q 642 776 648 790 q 626 746 635 762 q 608 715 617 729 q 590 690 599 701 q 577 677 582 680 l 537 681 q 515 731 529 710 q 484 766 501 752 q 446 787 466 780 q 406 794 426 794 q 346 784 372 794 q 304 756 321 773 q 280 718 288 740 q 272 674 272 697 q 276 643 272 659 q 296 609 281 627 q 338 572 311 592 q 411 529 365 552 q 503 475 464 501 q 567 421 542 449 q 604 362 592 394 q 616 293 616 331 q 588 172 616 229 q 511 72 560 116 q 398 4 463 29 q 258 -21 332 -21 q 208 -16 235 -21 q 154 -5 180 -12 q 102 11 127 1 q 59 32 77 21 q 28 57 40 44 q 17 83 17 70 q 22 102 17 90 q 35 128 27 114 q 55 158 44 143 q 76 185 65 172 q 97 205 87 197 q 114 213 107 213 q 131 202 121 213 q 152 177 140 192 q 178 144 163 162 q 213 110 193 126 q 255 85 232 95 q 308 75 279 75 q 369 86 340 75 q 419 116 398 97 q 453 164 440 136 q 466 229 466 193 q 456 283 466 258 q 424 332 446 308 q 366 377 402 355 q 280 424 331 400 q 206 469 235 445 q 160 517 176 492 q 136 571 143 543 q 130 629 130 598 q 152 718 130 674 q 217 797 175 762 q 319 853 260 831 q 451 875 378 875 q 567 856 516 875 q 651 812 619 837 "},"/":{"x_min":-75.28125,"x_max":676.140625,"ha":602,"o":"m 69 -183 q 45 -194 62 -187 q 10 -207 29 -200 q -25 -219 -8 -214 q -50 -227 -42 -225 l -75 -206 l 533 1041 q 558 1053 542 1047 q 590 1066 573 1060 q 623 1077 607 1072 q 649 1084 639 1082 l 676 1065 l 69 -183 "},"ⱡ":{"x_min":3.09375,"x_max":483.734375,"ha":467,"o":"m 427 398 l 301 398 q 288 314 294 354 q 278 240 282 274 q 271 180 273 207 q 269 137 269 154 q 275 106 269 114 q 292 98 281 98 q 326 103 308 98 q 375 120 345 108 l 386 74 q 318 35 352 53 q 253 2 285 16 q 193 -19 221 -11 q 144 -28 165 -28 q 110 -7 125 -28 q 96 52 96 12 q 99 101 96 67 q 110 180 103 134 q 125 283 116 227 q 143 398 133 339 l 20 398 l 3 418 q 9 432 5 424 l 17 449 q 26 466 22 458 q 34 480 30 474 l 156 480 q 162 522 159 501 q 169 565 165 543 l 45 565 l 27 585 q 33 598 29 590 q 42 615 38 607 q 51 632 47 624 q 59 646 55 640 l 181 646 q 199 782 192 722 q 207 872 207 842 q 203 897 207 888 q 196 910 200 906 q 185 916 191 915 q 172 918 178 918 q 156 914 167 918 q 134 908 145 911 q 107 899 122 904 l 94 946 q 160 973 123 959 q 233 1001 197 988 q 298 1022 269 1014 q 340 1031 327 1031 q 370 1018 359 1031 q 382 975 382 1006 q 378 919 382 953 q 369 842 375 885 q 356 749 364 799 q 340 646 348 699 l 466 646 l 483 624 l 451 565 l 327 565 q 321 522 324 543 l 314 480 l 441 480 l 459 458 l 427 398 "},"y":{"x_min":-133,"x_max":652,"ha":664,"o":"m 652 583 q 634 512 652 560 q 583 396 616 464 q 507 241 551 327 q 409 55 462 155 q 317 -104 362 -31 q 223 -229 271 -176 q 123 -310 175 -281 q 11 -339 71 -339 q -40 -332 -14 -339 q -86 -316 -66 -326 q -120 -296 -107 -307 q -133 -279 -133 -286 q -121 -249 -133 -269 q -95 -208 -110 -229 q -64 -170 -80 -187 q -38 -148 -48 -153 q 26 -193 -6 -178 q 83 -208 58 -208 q 163 -168 122 -208 q 250 -53 204 -127 q 232 35 242 -13 q 210 134 222 83 q 184 235 197 184 q 158 329 171 285 q 133 409 145 374 q 111 465 121 444 q 85 510 96 499 q 62 521 74 521 q 45 518 56 521 q 23 512 34 516 q -3 504 10 509 l -17 549 q 46 579 13 564 q 107 607 78 595 q 159 627 136 619 q 194 635 182 635 q 227 615 213 635 q 258 549 241 595 q 284 471 270 515 q 311 375 297 426 q 338 268 325 324 q 364 156 352 212 q 417 266 392 212 q 460 366 442 320 q 490 446 479 412 q 501 497 501 480 q 465 531 501 531 q 440 529 453 533 q 408 516 428 525 l 391 562 q 443 589 415 576 q 498 612 471 602 q 549 628 525 622 q 590 635 573 635 q 613 633 602 635 q 632 626 624 631 q 646 610 641 620 q 652 583 652 600 "},"ˊ":{"x_min":135.640625,"x_max":437.421875,"ha":302,"o":"m 437 927 l 181 691 q 157 703 170 694 q 135 725 145 713 l 294 995 l 320 990 q 359 983 339 987 q 397 974 379 978 q 421 968 415 970 l 437 927 "},"g":{"x_min":-13,"x_max":640.953125,"ha":652,"o":"m 640 590 q 601 544 617 571 q 576 467 584 516 q 565 323 565 386 q 565 206 565 260 q 565 102 565 151 q 555 0 565 53 q 526 -89 547 -45 q 477 -170 506 -132 q 413 -239 448 -208 q 340 -292 378 -270 q 263 -326 302 -314 q 188 -339 224 -339 q 117 -331 153 -339 q 52 -312 81 -324 q 5 -287 23 -300 q -13 -262 -13 -274 q -6 -243 -13 -254 q 8 -219 0 -231 q 29 -193 18 -206 q 50 -170 40 -180 q 69 -154 61 -160 q 80 -148 77 -148 q 99 -159 88 -148 q 130 -185 111 -171 q 178 -211 150 -199 q 248 -223 207 -223 q 295 -214 273 -223 q 334 -183 317 -205 q 366 -125 352 -161 q 390 -32 379 -88 q 400 71 400 24 q 400 162 400 118 q 349 87 377 122 q 292 27 321 52 q 234 -13 263 1 q 176 -28 205 -28 q 126 -15 153 -28 q 75 25 99 -2 q 35 98 51 54 q 20 206 20 143 q 71 409 20 314 q 223 571 122 504 q 312 615 261 596 q 424 635 362 635 q 478 620 450 635 q 533 589 507 605 q 577 615 556 604 l 617 635 l 640 590 m 245 106 q 268 115 253 106 q 304 146 283 124 q 353 202 326 167 q 411 290 380 238 q 416 367 411 327 q 428 455 421 407 q 436 485 430 470 q 391 522 414 505 q 346 538 368 538 q 293 525 317 538 q 251 489 270 511 q 217 438 232 467 q 194 377 203 409 q 179 315 184 346 q 175 257 175 283 q 195 143 175 181 q 245 106 215 106 "},"²":{"x_min":49.21875,"x_max":469,"ha":450,"o":"m 469 835 q 456 776 469 805 q 411 709 443 746 q 325 620 379 671 q 188 496 271 569 l 347 496 q 371 508 361 496 q 389 536 382 520 q 403 576 397 554 l 438 568 l 410 419 l 57 419 l 49 450 q 194 589 137 532 q 284 687 251 646 q 330 759 317 728 q 343 817 343 789 q 332 853 343 838 q 294 868 322 868 q 247 845 262 868 q 233 792 233 823 q 210 784 224 788 q 179 776 195 780 q 146 770 162 773 q 121 767 131 767 l 109 794 q 131 838 112 815 q 181 878 150 860 q 249 909 211 897 q 329 921 287 921 q 433 896 398 921 q 469 835 469 872 "},"–":{"x_min":18.984375,"x_max":581.1875,"ha":612,"o":"m 581 372 q 573 355 578 365 q 562 334 568 345 q 551 313 556 323 q 543 299 545 304 l 36 299 l 18 320 q 26 337 21 328 q 36 358 31 347 q 48 377 42 368 q 58 393 54 387 l 562 393 l 581 372 "},"ë":{"x_min":33,"x_max":609,"ha":587,"o":"m 270 499 q 214 410 236 460 q 192 294 192 360 q 298 349 258 324 q 357 395 337 373 q 383 437 377 416 q 390 479 390 457 q 376 527 390 511 q 343 543 362 543 q 329 539 337 543 q 310 531 320 536 q 289 517 299 526 q 270 499 278 509 m 560 515 q 555 475 560 496 q 537 431 551 454 q 499 382 524 408 q 434 330 475 357 q 334 275 393 303 q 193 217 275 246 q 207 158 198 184 q 230 114 217 132 q 259 86 243 96 q 291 77 274 77 q 375 103 320 77 q 512 195 430 129 q 521 186 516 193 q 531 172 526 180 q 539 157 536 164 q 544 147 542 150 q 443 65 488 99 q 360 11 398 32 q 290 -18 322 -9 q 227 -28 258 -28 q 165 -15 199 -28 q 102 24 132 -2 q 53 96 73 52 q 33 205 33 140 q 45 306 33 258 q 82 399 58 355 q 140 482 106 443 q 217 558 174 522 q 254 584 232 571 q 302 609 276 598 q 356 627 328 620 q 410 635 384 635 q 477 624 449 635 q 524 596 505 613 q 551 558 542 580 q 560 515 560 537 m 347 861 q 339 818 347 840 q 318 777 332 795 q 284 747 304 759 q 238 735 264 735 q 190 755 206 735 q 175 803 175 776 q 182 845 175 822 q 203 886 189 867 q 237 917 217 904 q 283 930 257 930 q 311 924 299 930 q 331 908 323 918 q 342 886 338 899 q 347 861 347 874 m 609 861 q 601 818 609 840 q 580 777 594 795 q 545 747 566 759 q 500 735 525 735 q 452 755 468 735 q 437 803 437 776 q 444 845 437 822 q 465 886 451 867 q 499 917 479 904 q 544 930 519 930 q 572 924 560 930 q 593 908 585 918 q 604 886 600 899 q 609 861 609 874 "},"J":{"x_min":-230,"x_max":472.59375,"ha":433,"o":"m 464 804 q 397 783 421 795 q 372 762 373 771 l 288 138 q 256 9 277 62 q 208 -82 235 -44 q 151 -147 180 -121 q 93 -196 121 -174 q 51 -223 75 -210 q 1 -247 27 -237 q -49 -263 -23 -257 q -95 -269 -74 -269 q -144 -261 -120 -269 q -187 -244 -168 -254 q -218 -223 -206 -234 q -230 -204 -230 -212 q -222 -189 -230 -199 q -204 -167 -215 -180 q -179 -143 -193 -155 q -153 -120 -166 -130 q -128 -102 -139 -109 q -112 -96 -118 -96 q -95 -105 -105 -96 q -71 -125 -85 -114 q -40 -145 -57 -136 q -2 -155 -23 -155 q 31 -146 14 -155 q 66 -112 49 -138 q 97 -38 82 -86 q 123 89 112 10 l 215 762 q 212 771 216 766 q 195 781 208 776 q 161 792 183 786 q 102 804 139 798 l 109 854 l 472 854 l 464 804 "},"Ã":{"x_min":-33.90625,"x_max":768.359375,"ha":810,"o":"m 251 291 l 165 95 q 176 65 156 74 q 246 49 195 56 l 240 0 l -33 0 l -27 49 q 40 66 16 57 q 73 95 64 75 l 390 817 q 426 843 407 831 q 466 864 446 854 q 506 881 486 873 q 543 893 526 888 l 697 95 q 702 78 699 86 q 714 65 706 71 q 735 56 722 60 q 768 49 748 52 l 762 0 l 449 0 l 456 50 q 524 61 505 50 q 539 95 543 72 l 503 291 l 251 291 m 487 373 l 426 693 l 287 373 l 487 373 m 757 1106 q 735 1067 748 1088 q 708 1025 722 1046 q 677 984 693 1004 q 643 950 661 965 q 606 926 625 935 q 567 918 587 918 q 517 928 540 918 q 473 952 495 939 q 430 977 452 966 q 385 988 409 988 q 359 983 371 988 q 336 968 347 978 q 311 944 324 958 q 284 911 299 930 l 240 930 q 276 990 255 957 q 321 1052 297 1023 q 373 1100 345 1081 q 430 1120 401 1120 q 483 1108 459 1120 q 529 1084 507 1097 q 570 1060 550 1071 q 610 1048 590 1048 q 662 1068 638 1048 q 712 1126 685 1087 l 757 1106 "},"ŷ":{"x_min":-133,"x_max":652,"ha":664,"o":"m 652 583 q 634 512 652 560 q 583 396 616 464 q 507 241 551 327 q 409 55 462 155 q 317 -104 362 -31 q 223 -229 271 -176 q 123 -310 175 -281 q 11 -339 71 -339 q -40 -332 -14 -339 q -86 -316 -66 -326 q -120 -296 -107 -307 q -133 -279 -133 -286 q -121 -249 -133 -269 q -95 -208 -110 -229 q -64 -170 -80 -187 q -38 -148 -48 -153 q 26 -193 -6 -178 q 83 -208 58 -208 q 163 -168 122 -208 q 250 -53 204 -127 q 232 35 242 -13 q 210 134 222 83 q 184 235 197 184 q 158 329 171 285 q 133 409 145 374 q 111 465 121 444 q 85 510 96 499 q 62 521 74 521 q 45 518 56 521 q 23 512 34 516 q -3 504 10 509 l -17 549 q 46 579 13 564 q 107 607 78 595 q 159 627 136 619 q 194 635 182 635 q 227 615 213 635 q 258 549 241 595 q 284 471 270 515 q 311 375 297 426 q 338 268 325 324 q 364 156 352 212 q 417 266 392 212 q 460 366 442 320 q 490 446 479 412 q 501 497 501 480 q 465 531 501 531 q 440 529 453 533 q 408 516 428 525 l 391 562 q 443 589 415 576 q 498 612 471 602 q 549 628 525 622 q 590 635 573 635 q 613 633 602 635 q 632 626 624 631 q 646 610 641 620 q 652 583 652 600 m 628 732 q 606 707 619 718 q 582 691 593 696 l 430 845 l 235 691 q 217 707 229 695 q 198 732 205 718 l 401 988 l 494 988 l 628 732 "},"ŕ":{"x_min":17.546875,"x_max":604.703125,"ha":567,"o":"m 604 576 q 591 555 599 569 q 573 526 583 542 q 554 494 564 510 q 535 464 544 477 q 518 442 526 450 q 507 434 511 434 q 482 442 494 434 q 460 460 471 450 q 439 477 450 469 q 419 486 429 486 q 380 469 401 486 q 336 421 358 452 q 295 349 315 391 q 261 259 275 308 q 238 152 247 208 q 230 42 230 96 q 198 27 220 37 q 151 7 175 18 q 107 -13 128 -3 q 77 -28 86 -23 l 50 -2 q 78 142 65 70 q 101 277 91 214 q 116 392 111 341 q 122 474 122 444 q 119 499 122 490 q 113 512 117 508 q 104 518 109 517 q 94 520 99 520 q 76 517 87 520 q 55 511 66 515 q 29 503 43 508 l 17 549 q 82 577 45 562 q 153 605 118 592 q 216 626 188 618 q 256 635 244 635 q 271 631 265 635 q 281 621 277 628 q 286 600 285 613 q 288 566 288 587 q 288 546 288 559 q 285 518 288 534 q 281 488 283 503 q 277 459 279 472 q 338 547 309 513 q 391 601 366 581 q 439 627 416 620 q 484 635 462 635 q 510 628 496 635 q 541 611 525 621 q 573 592 557 602 q 604 576 589 582 m 603 927 l 347 691 q 323 703 336 694 q 301 725 311 713 l 460 995 l 486 990 q 525 983 505 987 q 563 974 545 978 q 587 968 581 970 l 603 927 "},"ˀ":{"x_min":81,"x_max":447.796875,"ha":398,"o":"m 159 536 l 170 610 q 187 665 174 641 q 219 710 201 690 q 256 749 236 731 q 293 786 276 767 q 323 826 311 805 q 340 873 336 847 q 327 946 347 922 q 271 971 307 971 q 245 965 258 971 q 221 949 232 959 q 203 925 211 939 q 194 896 196 912 q 196 873 194 885 q 175 866 188 870 q 145 858 161 861 q 115 851 130 854 q 91 848 100 848 l 81 859 q 81 866 81 862 q 82 873 81 869 q 106 932 87 904 q 156 981 126 960 q 226 1014 187 1002 q 307 1025 265 1025 q 374 1015 345 1025 q 419 986 402 1004 q 443 943 436 968 q 446 891 450 918 q 428 838 442 861 q 398 797 415 816 q 361 762 381 778 q 324 726 341 745 q 293 686 306 707 q 276 636 280 665 l 263 536 l 159 536 "},"©":{"x_min":54,"x_max":879,"ha":923,"o":"m 708 639 q 681 618 697 631 q 648 594 665 606 q 617 574 632 583 q 595 566 603 566 q 576 578 587 566 q 554 605 566 590 q 526 631 541 619 q 492 643 511 643 q 446 631 467 643 q 408 598 425 619 q 378 551 391 578 q 356 494 365 524 q 343 435 347 465 q 339 379 339 405 q 349 315 339 341 q 377 271 360 288 q 418 247 395 254 q 466 239 441 239 q 538 260 496 239 q 638 332 579 280 q 645 322 641 328 q 654 311 649 317 q 662 300 658 305 q 667 292 666 295 q 587 224 623 251 q 520 180 551 197 q 460 157 488 164 q 404 151 432 151 q 342 160 375 151 q 280 194 309 170 q 232 257 251 217 q 214 356 214 297 q 220 427 214 390 q 243 501 226 464 q 288 574 260 538 q 360 644 316 611 q 397 668 376 656 q 442 688 418 679 q 494 702 467 697 q 549 708 521 708 q 605 698 580 708 q 649 677 629 689 q 682 653 668 665 q 708 639 696 642 m 804 488 q 783 614 804 556 q 725 716 763 673 q 636 782 688 758 q 520 807 584 807 q 414 789 464 807 q 320 742 363 772 q 240 670 276 712 q 179 580 205 628 q 140 477 154 531 q 127 370 127 424 q 147 242 127 300 q 205 139 167 183 q 295 72 243 96 q 412 47 348 47 q 519 64 468 47 q 613 112 569 82 q 692 185 656 143 q 752 276 727 227 q 790 379 776 325 q 804 488 804 433 m 879 510 q 863 380 879 446 q 819 254 848 315 q 749 142 790 194 q 655 51 708 90 q 538 -8 602 13 q 402 -31 475 -31 q 256 0 321 -31 q 146 83 191 30 q 78 207 102 136 q 54 357 54 277 q 69 484 54 420 q 115 606 85 547 q 186 716 144 665 q 281 804 229 766 q 397 863 334 842 q 529 885 459 885 q 675 856 611 885 q 785 776 739 827 q 854 657 830 725 q 879 510 879 588 "},"˘":{"x_min":64.421875,"x_max":507.265625,"ha":423,"o":"m 507 906 q 450 813 482 851 q 385 752 419 775 q 320 718 352 729 q 260 708 287 708 q 200 718 230 708 q 143 752 170 729 q 96 814 117 776 q 64 906 75 851 q 75 919 69 912 q 90 933 82 926 q 104 946 97 940 q 116 955 111 952 q 144 898 126 921 q 183 862 162 876 q 226 842 204 848 q 268 836 248 836 q 315 842 289 836 q 368 862 341 848 q 419 898 394 876 q 462 955 444 921 q 473 946 467 952 q 485 934 479 941 q 498 919 492 927 q 507 906 503 912 "},"Ă":{"x_min":-33.90625,"x_max":768.359375,"ha":810,"o":"m 251 291 l 165 95 q 176 65 156 74 q 246 49 195 56 l 240 0 l -33 0 l -27 49 q 40 66 16 57 q 73 95 64 75 l 390 817 q 426 843 407 831 q 466 864 446 854 q 506 881 486 873 q 543 893 526 888 l 697 95 q 702 78 699 86 q 714 65 706 71 q 735 56 722 60 q 768 49 748 52 l 762 0 l 449 0 l 456 50 q 524 61 505 50 q 539 95 543 72 l 503 291 l 251 291 m 487 373 l 426 693 l 287 373 l 487 373 m 739 1122 q 683 1030 714 1067 q 618 969 651 992 q 552 935 585 945 q 493 924 520 924 q 433 935 463 924 q 376 969 402 945 q 329 1030 349 993 q 297 1122 308 1068 q 308 1136 301 1128 q 322 1150 315 1143 q 337 1163 330 1157 q 349 1172 343 1169 q 377 1115 359 1138 q 415 1079 394 1093 q 459 1059 436 1065 q 501 1053 481 1053 q 548 1059 522 1053 q 600 1079 574 1065 q 651 1115 627 1093 q 695 1172 676 1138 q 705 1163 699 1169 q 718 1151 712 1158 q 730 1136 724 1143 q 739 1122 736 1128 "},"D":{"x_min":-5.65625,"x_max":801,"ha":819,"o":"m 387 803 q 367 801 377 803 q 346 800 356 800 l 253 109 q 268 81 250 90 q 338 72 287 72 q 425 90 385 72 q 497 139 464 108 q 554 211 529 170 q 596 299 579 252 q 621 395 613 345 q 630 493 630 445 q 616 622 630 565 q 573 720 602 680 q 497 781 543 760 q 387 803 451 803 m 801 509 q 786 388 801 449 q 745 271 772 327 q 678 165 718 215 q 589 79 639 115 q 477 21 538 42 q 346 0 416 0 l -5 0 l 1 49 q 66 70 43 59 q 91 90 89 81 l 187 786 l 92 772 l 92 835 q 173 853 130 845 q 258 866 216 861 q 342 872 301 872 q 417 872 382 872 q 588 846 515 872 q 707 774 660 821 q 777 659 754 726 q 801 509 801 592 "},"ÿ":{"x_min":-133,"x_max":652,"ha":664,"o":"m 652 583 q 634 512 652 560 q 583 396 616 464 q 507 241 551 327 q 409 55 462 155 q 317 -104 362 -31 q 223 -229 271 -176 q 123 -310 175 -281 q 11 -339 71 -339 q -40 -332 -14 -339 q -86 -316 -66 -326 q -120 -296 -107 -307 q -133 -279 -133 -286 q -121 -249 -133 -269 q -95 -208 -110 -229 q -64 -170 -80 -187 q -38 -148 -48 -153 q 26 -193 -6 -178 q 83 -208 58 -208 q 163 -168 122 -208 q 249 -53 203 -127 q 232 35 242 -13 q 209 134 222 83 q 184 235 197 184 q 158 329 171 285 q 133 409 145 374 q 111 465 121 444 q 85 510 95 499 q 62 521 74 521 q 45 518 56 521 q 23 512 34 516 q -3 504 10 509 l -17 549 q 45 579 13 564 q 107 607 78 595 q 158 627 135 619 q 194 635 182 635 q 227 615 213 635 q 257 549 241 595 q 283 471 270 515 q 311 375 297 426 q 338 268 325 324 q 364 156 352 212 q 417 266 392 212 q 460 366 442 320 q 490 446 479 412 q 501 497 501 480 q 465 531 501 531 q 441 529 453 533 q 408 516 428 525 l 391 562 q 443 589 415 576 q 498 612 471 602 q 549 628 525 622 q 590 635 573 635 q 613 633 602 635 q 632 626 624 631 q 646 610 641 620 q 652 583 652 600 m 381 861 q 373 818 381 840 q 352 777 366 795 q 318 747 338 759 q 272 735 298 735 q 224 755 240 735 q 209 803 209 776 q 216 845 209 822 q 237 886 223 867 q 271 917 251 904 q 317 930 291 930 q 345 924 333 930 q 365 908 357 918 q 376 886 372 899 q 381 861 381 874 m 644 861 q 636 818 644 840 q 615 777 629 795 q 580 747 601 759 q 535 735 560 735 q 487 755 503 735 q 472 803 472 776 q 479 845 472 822 q 500 886 486 867 q 534 917 514 904 q 579 930 554 930 q 607 924 595 930 q 628 908 620 918 q 639 886 635 899 q 644 861 644 874 "},"ĺ":{"x_min":59.3125,"x_max":539,"ha":370,"o":"m 350 74 q 282 35 316 53 q 217 2 249 16 q 157 -19 185 -11 q 108 -28 129 -28 q 74 -7 89 -28 q 60 52 60 12 q 64 108 60 69 q 77 201 69 147 q 95 318 85 254 q 116 448 105 382 q 136 581 126 515 q 154 703 146 646 q 167 804 162 760 q 172 872 172 848 q 168 897 172 888 q 161 910 165 906 q 149 916 156 915 q 137 918 143 918 q 120 914 131 918 q 98 908 109 911 q 71 899 85 904 l 59 946 q 125 973 87 959 q 197 1001 162 988 q 262 1022 233 1014 q 304 1031 291 1031 q 334 1018 323 1031 q 346 975 346 1006 q 341 904 346 948 q 328 802 336 859 q 310 681 320 746 q 290 550 300 616 q 269 420 279 484 q 251 301 259 356 q 238 203 243 246 q 234 138 234 161 q 240 106 234 114 q 257 98 246 98 q 291 103 273 98 q 339 120 309 108 l 350 74 m 539 1285 l 220 1125 q 202 1144 210 1131 q 187 1172 193 1158 l 427 1391 q 456 1375 440 1384 q 487 1358 471 1367 q 516 1341 503 1349 q 539 1327 530 1333 l 539 1285 "},"ł":{"x_min":4.140625,"x_max":436.625,"ha":398,"o":"m 364 74 q 296 35 330 53 q 231 2 263 16 q 171 -19 199 -11 q 122 -28 143 -28 q 88 -7 103 -28 q 74 52 74 12 q 78 102 74 68 q 88 183 82 136 q 104 286 95 230 q 122 403 113 343 l 21 339 l 4 358 q 8 376 6 367 q 15 394 11 384 q 23 416 18 404 q 35 442 28 427 l 139 509 q 156 624 147 568 q 171 728 164 680 q 182 814 178 776 q 186 872 186 851 q 182 897 186 888 q 175 910 179 906 q 163 916 170 915 q 151 918 157 918 q 134 914 145 918 q 112 908 123 911 q 85 899 99 904 l 73 946 q 139 973 101 959 q 211 1001 176 988 q 276 1022 247 1014 q 318 1031 305 1031 q 348 1018 337 1031 q 360 975 360 1006 q 356 915 360 952 q 346 832 352 878 q 332 731 340 785 q 314 620 323 677 l 416 686 l 436 666 q 422 625 429 643 q 404 584 415 608 l 298 517 q 279 396 288 455 q 263 287 270 337 q 252 198 256 237 q 248 138 248 159 q 254 106 248 114 q 271 98 260 98 q 305 103 287 98 q 353 120 323 108 l 364 74 "},"Ł":{"x_min":-5.421875,"x_max":636.125,"ha":673,"o":"m 514 586 q 505 563 511 575 q 493 537 500 550 q 480 512 486 524 q 468 493 473 500 l 292 402 l 255 130 q 258 108 254 118 q 275 93 262 99 q 309 84 287 87 q 366 81 331 81 l 436 81 q 486 88 465 81 q 524 112 507 96 q 557 156 541 129 q 592 223 573 183 l 636 206 q 621 144 630 177 q 606 83 613 112 q 592 32 598 54 q 581 0 585 10 l -5 0 l 1 49 q 68 70 45 59 q 93 90 92 81 l 124 314 l 35 267 l 21 282 q 28 306 23 293 q 41 334 34 320 q 54 359 48 348 q 65 377 61 371 l 137 414 l 185 763 q 168 783 187 771 q 105 805 149 795 l 111 854 l 442 854 l 435 805 q 367 784 391 795 q 342 763 343 772 l 306 502 l 500 603 l 514 586 "},"$":{"x_min":-6,"x_max":616.328125,"ha":633,"o":"m 210 644 q 213 614 210 628 q 226 587 216 601 q 253 561 236 574 q 296 534 269 548 l 326 752 q 279 738 300 748 q 242 713 257 728 q 218 681 226 699 q 210 644 210 663 m 437 232 q 416 298 437 270 q 348 353 395 326 l 310 80 q 403 130 370 91 q 437 232 437 170 m 615 775 q 614 763 617 773 q 605 737 611 752 q 589 704 598 722 q 572 670 581 686 q 555 644 563 655 q 543 630 547 632 l 504 635 q 469 702 494 672 q 403 745 445 732 l 369 501 q 456 458 418 480 q 519 411 494 436 q 559 354 545 386 q 573 283 573 323 q 555 182 573 230 q 503 94 537 133 q 416 26 468 54 q 297 -13 365 -1 l 287 -88 q 258 -107 275 -99 q 225 -119 241 -115 l 206 -99 l 217 -20 q 213 -20 215 -20 q 208 -21 210 -21 q 140 -10 177 -21 q 70 16 102 0 q 15 51 37 32 q -6 88 -6 71 q -1 108 -6 95 q 10 138 2 122 q 27 170 17 154 q 46 199 36 186 q 65 221 56 213 q 81 230 74 230 q 93 220 87 230 q 108 197 100 211 q 128 164 117 182 q 153 130 138 147 q 187 100 168 114 q 231 80 206 87 l 275 389 l 251 399 q 175 436 208 416 q 121 479 143 455 q 87 531 99 503 q 76 595 76 560 q 91 670 76 632 q 138 741 106 708 q 219 796 170 773 q 337 829 268 820 l 348 907 q 378 927 366 918 q 408 942 390 936 l 428 921 l 416 835 l 418 835 q 474 829 447 835 q 527 816 502 824 q 575 798 553 808 q 615 775 597 787 "},"w":{"x_min":-7.875,"x_max":943,"ha":941,"o":"m 943 583 q 938 543 943 565 q 922 491 933 521 q 892 420 911 461 q 844 324 873 380 q 776 197 816 269 q 685 30 737 124 q 664 18 679 26 q 630 1 648 10 q 597 -16 613 -7 q 574 -27 581 -24 l 546 -1 q 531 112 539 56 q 515 218 523 167 q 499 312 507 269 q 481 387 490 355 q 462 326 475 363 q 429 243 449 289 q 383 145 409 198 q 326 37 357 93 q 303 25 320 34 q 265 5 285 16 q 227 -15 245 -5 q 203 -27 209 -24 l 176 -1 q 167 82 172 37 q 157 174 163 127 q 148 266 152 220 q 138 350 143 311 q 129 417 133 388 q 122 460 125 446 q 112 489 118 478 q 100 506 106 500 q 87 514 93 512 q 74 516 80 516 q 57 513 68 516 q 34 507 46 511 q 7 499 21 504 l -7 544 q 54 576 21 559 q 117 605 87 592 q 171 626 147 618 q 206 635 195 635 q 235 612 225 635 q 255 542 244 590 q 263 499 259 527 q 272 436 268 471 q 281 362 276 401 q 290 287 286 323 q 297 222 294 252 q 300 175 300 192 q 351 282 327 228 q 394 388 376 337 q 423 481 412 438 q 435 555 435 525 q 467 582 448 568 q 505 607 486 596 q 542 627 524 619 q 569 635 559 635 q 576 623 572 635 q 586 594 581 612 q 597 552 592 576 q 609 502 603 528 q 619 452 614 477 q 628 407 624 427 q 638 343 633 375 q 649 279 644 310 q 658 219 654 248 q 665 166 662 191 q 773 377 736 294 q 810 501 810 460 q 800 523 810 515 q 772 532 790 532 q 746 529 763 532 q 715 522 730 526 l 698 567 q 751 595 723 582 q 803 616 778 607 q 850 630 828 625 q 886 635 871 635 q 907 633 897 635 q 925 626 917 631 q 938 610 933 620 q 943 583 943 600 "},"\\":{"x_min":93.59375,"x_max":493.03125,"ha":581,"o":"m 464 -227 q 441 -219 457 -225 q 407 -207 425 -214 q 375 -194 390 -200 q 356 -183 360 -187 l 93 1065 l 123 1084 q 147 1077 132 1082 q 178 1066 162 1072 q 209 1053 194 1060 q 231 1041 223 1047 l 493 -206 l 464 -227 "},"Ì":{"x_min":8.8125,"x_max":455.046875,"ha":429,"o":"m 448 805 q 381 784 404 795 q 356 763 357 772 l 263 90 q 281 70 262 82 q 344 49 299 59 l 337 0 l 8 0 l 15 49 q 82 70 58 59 q 107 90 105 81 l 198 763 q 181 783 200 771 q 118 805 162 795 l 125 854 l 455 854 l 448 805 m 402 955 q 382 928 393 941 q 360 908 371 914 l 73 1068 l 84 1110 q 113 1127 95 1118 q 149 1146 130 1137 q 184 1162 168 1155 q 210 1174 201 1170 l 402 955 "},"Ç":{"x_min":41,"x_max":729.046875,"ha":704,"o":"m 431 -150 q 407 -216 431 -186 q 347 -263 384 -246 q 261 -280 309 -280 q 162 -254 212 -280 l 162 -208 q 213 -221 189 -221 q 253 -216 236 -221 q 279 -200 270 -211 q 289 -177 289 -190 q 275 -154 289 -163 q 241 -146 261 -146 q 259 -105 251 -124 q 274 -69 267 -86 q 285 -34 280 -51 q 290 -17 288 -25 q 214 2 250 -12 q 124 67 162 24 q 63 170 85 109 q 41 310 41 232 q 54 440 41 374 q 95 569 68 507 q 164 689 122 632 q 263 791 206 746 q 318 826 288 810 q 380 852 348 841 q 446 869 412 863 q 511 875 480 875 q 577 869 545 875 q 638 854 610 864 q 690 833 667 845 q 728 806 713 820 q 725 794 730 804 q 714 769 721 784 q 697 738 707 755 q 677 705 687 721 q 657 677 667 690 q 642 660 648 665 l 601 670 q 579 712 592 692 q 548 748 565 732 q 507 772 530 763 q 456 782 484 782 q 404 774 429 782 q 352 745 379 766 q 281 661 309 712 q 235 556 252 611 q 211 446 218 501 q 204 349 204 391 q 222 225 204 275 q 270 145 241 175 q 333 102 299 115 q 397 90 367 90 q 436 93 414 90 q 486 108 458 97 q 547 138 513 119 q 623 188 581 157 q 630 180 626 187 q 637 165 634 173 q 643 151 641 157 q 648 142 646 144 q 557 65 601 96 q 472 15 513 34 q 393 -11 431 -2 q 357 -17 375 -15 q 353 -38 356 -27 q 346 -68 349 -57 q 410 -92 389 -68 q 431 -150 431 -116 "},"Ŝ":{"x_min":17,"x_max":653.21875,"ha":661,"o":"m 651 812 q 651 800 654 810 q 642 776 648 790 q 626 746 635 762 q 608 715 617 729 q 590 690 599 701 q 577 677 582 680 l 537 681 q 515 731 529 710 q 484 766 501 752 q 446 787 466 780 q 406 794 426 794 q 346 784 372 794 q 304 756 321 773 q 280 718 288 740 q 272 674 272 697 q 276 643 272 659 q 296 609 281 627 q 338 572 311 592 q 411 529 365 552 q 503 475 464 501 q 567 421 542 449 q 604 362 592 394 q 616 293 616 331 q 588 172 616 229 q 511 72 560 116 q 398 4 463 29 q 258 -21 332 -21 q 208 -16 235 -21 q 154 -5 180 -12 q 102 11 127 1 q 59 32 77 21 q 28 57 40 44 q 17 83 17 70 q 22 102 17 90 q 35 128 27 114 q 55 158 44 143 q 76 185 65 172 q 97 205 87 197 q 114 213 107 213 q 131 202 121 213 q 152 177 140 192 q 178 144 163 162 q 213 110 193 126 q 255 85 232 95 q 308 75 279 75 q 369 86 340 75 q 419 116 398 97 q 453 164 440 136 q 466 229 466 193 q 456 283 466 258 q 424 332 446 308 q 366 377 402 355 q 280 424 331 400 q 206 469 235 445 q 160 517 176 492 q 136 571 143 543 q 130 629 130 598 q 152 718 130 674 q 217 797 175 762 q 319 853 260 831 q 451 875 378 875 q 567 856 516 875 q 651 812 619 837 m 627 948 q 607 924 618 935 q 586 908 597 913 l 428 1026 l 240 908 q 224 923 234 912 q 208 948 214 935 l 404 1157 l 487 1157 l 627 948 "},"C":{"x_min":41,"x_max":729.234375,"ha":704,"o":"m 728 807 q 726 795 730 805 q 714 770 722 785 q 697 738 707 755 q 677 706 687 721 q 658 678 667 691 q 642 661 648 666 l 602 671 q 579 713 592 693 q 548 749 566 733 q 507 773 530 764 q 456 783 484 783 q 404 775 429 783 q 352 746 379 767 q 281 662 309 713 q 235 557 252 612 q 211 447 218 502 q 204 350 204 392 q 222 226 204 276 q 270 146 241 176 q 333 103 299 116 q 397 91 367 91 q 436 94 414 91 q 486 109 458 98 q 547 139 513 120 q 623 189 581 158 q 630 181 627 188 q 638 166 634 174 q 644 152 641 158 q 648 143 646 145 q 557 66 602 97 q 472 16 513 35 q 394 -9 431 -1 q 324 -18 356 -18 q 214 4 265 -18 q 124 68 162 26 q 63 171 85 110 q 41 311 41 232 q 54 441 41 375 q 95 570 68 507 q 165 689 123 632 q 263 791 207 746 q 318 826 288 810 q 380 852 348 841 q 446 869 413 863 q 512 875 480 875 q 577 869 545 875 q 639 855 610 864 q 690 833 667 845 q 728 807 714 821 "},"Ē":{"x_min":-5.421875,"x_max":720.21875,"ha":684,"o":"m 642 206 q 627 144 635 177 q 612 83 619 112 q 598 32 604 54 q 587 0 592 10 l -5 0 l 1 49 q 68 70 45 59 q 93 90 92 81 l 185 763 q 168 783 187 771 q 105 805 149 795 l 111 855 l 665 855 l 687 833 q 678 789 684 815 q 664 734 672 762 q 649 682 657 707 q 636 644 642 657 l 589 644 q 586 740 594 707 q 554 773 578 773 l 343 773 l 305 498 l 556 498 l 574 474 q 559 452 568 465 q 540 427 550 439 q 521 403 531 414 q 504 386 512 392 q 485 403 495 396 q 460 415 474 411 q 424 421 445 419 q 374 424 403 424 l 295 424 l 254 124 q 257 106 253 114 q 273 93 260 99 q 311 84 286 87 q 377 81 336 81 l 440 81 q 489 88 468 81 q 528 112 511 96 q 562 156 546 129 q 598 223 579 183 l 642 206 m 720 1064 q 712 1044 718 1056 q 699 1020 705 1032 q 685 996 692 1007 q 676 980 679 985 l 196 980 l 180 1001 q 188 1020 183 1008 q 200 1043 193 1031 q 213 1067 207 1055 q 223 1085 219 1079 l 701 1085 l 720 1064 "},"!":{"x_min":30,"x_max":345.15625,"ha":324,"o":"m 238 113 q 229 66 238 90 q 205 23 221 42 q 165 -8 189 4 q 111 -21 142 -21 q 49 0 69 -21 q 30 56 30 21 q 38 101 30 78 q 64 143 47 124 q 104 175 80 162 q 156 187 127 187 q 217 166 197 187 q 238 113 238 145 m 203 279 q 169 261 189 270 q 132 247 149 253 l 135 261 l 135 896 q 174 915 150 904 q 225 938 199 926 q 276 959 252 949 q 316 974 301 969 l 345 952 l 203 279 "},"ç":{"x_min":48,"x_max":614,"ha":592,"o":"m 378 -149 q 354 -215 378 -185 q 294 -262 331 -245 q 207 -279 256 -279 q 108 -254 159 -279 l 108 -207 q 159 -221 135 -221 q 200 -215 183 -221 q 226 -200 216 -210 q 236 -176 236 -190 q 222 -154 236 -162 q 188 -145 208 -145 q 206 -105 198 -124 q 221 -68 214 -86 q 232 -33 227 -50 q 234 -27 233 -30 q 176 -16 208 -27 q 114 23 143 -5 q 66 99 85 51 q 48 218 48 146 q 57 310 48 263 q 88 401 66 357 q 143 486 109 446 q 228 560 178 527 q 272 586 247 573 q 325 610 297 599 q 384 628 354 621 q 442 635 414 635 q 496 625 472 635 q 539 602 519 615 q 577 577 559 589 q 614 558 595 564 q 580 526 599 544 q 540 491 560 508 q 501 464 519 475 q 472 453 483 453 q 450 467 461 453 q 425 496 439 480 q 396 525 412 512 q 361 538 380 538 q 295 513 324 538 q 247 448 266 488 q 218 359 228 409 q 208 263 208 310 q 215 184 208 218 q 235 126 222 150 q 266 89 248 101 q 305 76 283 76 q 393 103 342 76 q 517 190 444 130 q 525 179 520 186 q 535 165 529 172 q 545 151 540 157 q 550 142 549 144 q 453 61 498 93 q 371 8 409 28 q 304 -18 336 -10 l 300 -37 q 293 -67 296 -56 q 357 -91 336 -67 q 378 -149 378 -116 "},"È":{"x_min":-5.421875,"x_max":687.65625,"ha":684,"o":"m 642 206 q 627 144 635 177 q 612 83 619 112 q 598 32 604 54 q 587 0 592 10 l -5 0 l 1 49 q 68 70 45 59 q 93 90 92 81 l 185 763 q 168 783 187 771 q 105 805 149 795 l 111 855 l 665 855 l 687 833 q 678 789 684 815 q 664 734 672 762 q 649 682 657 707 q 636 644 642 657 l 589 644 q 586 740 594 707 q 554 773 578 773 l 343 773 l 305 498 l 556 498 l 574 474 q 559 452 568 465 q 540 427 550 439 q 521 403 531 414 q 504 386 512 392 q 485 403 495 396 q 460 415 474 411 q 424 421 445 419 q 374 424 403 424 l 295 424 l 254 124 q 257 106 253 114 q 273 93 260 99 q 311 84 286 87 q 377 81 336 81 l 440 81 q 489 88 468 81 q 528 112 511 96 q 562 156 546 129 q 598 223 579 183 l 642 206 m 532 955 q 512 928 522 941 q 490 908 501 914 l 202 1068 l 213 1110 q 242 1127 225 1118 q 279 1146 260 1137 q 314 1163 297 1155 q 340 1174 330 1170 l 532 955 "},"ﬁ":{"x_min":-57.6875,"x_max":835,"ha":840,"o":"m 835 856 q 827 816 835 837 q 804 779 819 796 q 767 751 789 762 q 716 740 745 740 q 663 757 680 740 q 647 797 647 774 q 654 836 647 815 q 677 873 662 856 q 715 902 693 891 q 766 914 737 914 q 818 896 801 914 q 835 856 835 879 m 700 946 q 663 918 685 936 q 617 882 640 900 q 574 852 594 865 q 546 840 554 840 q 525 852 535 840 q 502 880 514 865 q 477 907 490 895 q 445 920 463 920 q 411 908 426 920 q 384 874 396 896 q 364 826 372 853 q 348 768 355 799 q 338 706 342 738 q 330 645 333 674 l 326 614 l 564 614 q 612 617 586 614 q 662 624 638 620 q 704 631 685 628 q 730 635 723 635 q 758 622 748 635 q 769 578 769 609 q 764 523 769 558 q 752 446 759 488 q 737 358 745 403 q 721 269 728 312 q 709 192 714 227 q 705 138 705 157 q 709 107 705 116 q 725 98 713 98 q 744 99 735 98 q 762 103 753 100 q 782 110 771 106 q 806 120 792 114 l 819 74 q 754 37 787 55 q 690 4 721 19 q 633 -19 659 -10 q 587 -28 606 -28 q 548 -6 564 -28 q 533 51 533 14 q 537 108 533 71 q 549 187 542 144 q 565 279 557 231 q 581 368 573 326 q 593 444 588 411 q 598 495 598 478 q 597 505 598 502 q 566 527 589 521 q 495 532 543 532 l 317 532 l 271 131 q 232 -13 262 56 q 161 -142 203 -82 q 70 -250 119 -202 q -29 -329 20 -298 l -57 -271 q 3 -213 -23 -252 q 51 -125 31 -175 q 86 -18 72 -75 q 105 94 99 38 l 155 532 l 60 532 l 45 559 l 134 614 l 165 614 q 184 718 172 668 q 217 813 197 768 q 269 897 238 858 q 342 967 299 936 q 417 1012 379 994 q 498 1031 456 1031 q 561 1019 530 1031 q 620 992 593 1007 q 668 963 647 977 q 700 946 689 950 "},"X":{"x_min":-23.71875,"x_max":842.984375,"ha":822,"o":"m 758 0 l 423 0 l 429 49 q 475 56 458 52 q 501 67 493 61 q 510 83 510 73 q 503 106 510 92 l 385 341 l 210 106 q 195 81 198 91 q 198 64 191 71 q 220 54 204 57 q 265 50 236 50 l 258 0 l -23 0 l -16 50 q 54 64 24 50 q 104 104 84 77 l 343 428 l 183 748 q 168 772 175 763 q 150 788 160 782 q 127 798 141 794 q 92 805 113 801 l 99 854 l 439 854 l 432 805 q 360 788 378 799 q 357 748 342 777 l 459 542 l 607 748 q 621 774 618 764 q 618 790 624 784 q 595 800 612 797 q 552 804 579 804 l 558 854 l 842 854 l 836 805 q 794 798 813 802 q 761 788 776 794 q 735 772 747 781 q 713 748 723 762 l 501 458 l 678 106 q 692 82 684 92 q 710 66 700 72 q 733 55 720 59 q 764 49 746 52 l 758 0 "},"ô":{"x_min":26,"x_max":591,"ha":617,"o":"m 432 326 q 424 418 432 377 q 400 485 415 458 q 366 526 386 512 q 325 541 346 541 q 259 517 285 541 q 215 456 232 493 q 192 374 199 419 q 185 285 185 329 q 194 199 185 239 q 220 129 204 159 q 256 81 236 99 q 298 64 277 64 q 343 75 323 64 q 378 107 363 87 q 403 153 393 127 q 420 208 414 179 q 429 268 426 237 q 432 326 432 298 m 591 379 q 579 287 591 333 q 546 196 567 240 q 494 113 524 153 q 425 42 463 73 q 386 15 407 28 q 341 -7 364 2 q 295 -22 318 -17 q 252 -28 272 -28 q 157 -7 199 -28 q 86 46 115 12 q 41 129 57 81 q 26 233 26 177 q 35 327 26 282 q 65 415 45 373 q 117 496 85 457 q 194 569 149 535 q 233 595 212 583 q 278 616 255 607 q 325 629 301 624 q 371 635 349 635 q 465 615 424 635 q 534 563 506 596 q 576 482 562 529 q 591 379 591 435 m 586 731 q 563 707 576 718 q 540 691 550 696 l 388 845 l 193 691 q 175 706 187 695 q 156 731 163 718 l 359 988 l 451 988 l 586 731 "},"Ė":{"x_min":-5.390625,"x_max":687.78125,"ha":684,"o":"m 642 206 q 627 144 635 177 q 612 83 619 112 q 598 32 605 54 q 588 0 592 10 l -5 0 l 1 49 q 68 70 45 59 q 93 90 92 81 l 185 763 q 168 783 187 771 q 105 805 149 795 l 111 855 l 666 855 l 687 833 q 678 789 684 815 q 664 734 672 762 q 649 682 657 707 q 636 644 642 657 l 589 644 q 586 740 594 707 q 554 773 578 773 l 343 773 l 305 498 l 556 498 l 574 474 q 559 452 568 465 q 540 427 550 439 q 521 403 531 414 q 504 386 512 392 q 485 403 495 396 q 460 415 474 411 q 424 421 445 419 q 374 424 403 424 l 295 424 l 255 124 q 257 106 253 114 q 273 93 260 99 q 311 84 286 87 q 377 81 336 81 l 440 81 q 490 88 468 81 q 529 112 511 96 q 563 156 546 129 q 598 223 579 183 l 642 206 m 523 1052 q 515 1009 523 1032 q 494 968 508 987 q 460 938 480 949 q 415 926 440 926 q 367 946 382 926 q 352 994 352 967 q 359 1036 352 1014 q 380 1077 366 1058 q 414 1108 394 1096 q 459 1120 434 1120 q 487 1115 475 1120 q 507 1099 499 1109 q 518 1078 514 1090 q 523 1052 523 1065 "},"Ā":{"x_min":-33.90625,"x_max":783.28125,"ha":810,"o":"m 251 291 l 165 95 q 176 65 156 74 q 246 49 195 56 l 240 0 l -33 0 l -27 49 q 40 66 16 57 q 73 95 64 75 l 390 817 q 426 843 407 831 q 466 864 446 855 q 506 881 486 874 q 543 893 526 888 l 697 95 q 702 78 699 86 q 714 65 706 71 q 735 56 722 60 q 768 49 748 52 l 762 0 l 449 0 l 456 50 q 524 61 505 50 q 539 95 543 72 l 503 291 l 251 291 m 487 373 l 426 693 l 287 373 l 487 373 m 783 1064 q 775 1044 781 1056 q 762 1020 769 1032 q 749 996 755 1007 q 739 980 742 985 l 259 980 l 243 1001 q 251 1020 246 1008 q 263 1043 257 1031 q 276 1067 270 1055 q 286 1085 282 1079 l 764 1085 l 783 1064 "},"ċ":{"x_min":48,"x_max":614.21875,"ha":592,"o":"m 614 557 q 580 525 599 543 q 540 491 560 507 q 501 464 519 475 q 472 453 483 453 q 450 466 461 453 q 425 495 439 480 q 396 524 412 511 q 361 538 380 538 q 295 512 324 538 q 247 448 266 487 q 218 359 228 408 q 208 262 208 310 q 215 184 208 218 q 235 126 222 150 q 266 89 248 102 q 305 77 283 77 q 393 103 342 77 q 517 190 444 130 q 525 179 520 187 q 535 165 530 172 q 545 151 540 157 q 551 142 549 144 q 454 61 498 94 q 372 8 410 28 q 302 -19 334 -11 q 239 -28 269 -28 q 177 -16 210 -28 q 114 23 143 -4 q 66 99 85 52 q 48 218 48 147 q 57 310 48 263 q 88 401 66 357 q 143 487 109 446 q 228 561 178 527 q 272 586 247 573 q 326 610 297 599 q 384 628 354 621 q 442 635 414 635 q 496 625 472 635 q 539 602 519 615 q 577 576 559 589 q 614 557 595 563 m 503 861 q 495 818 503 840 q 474 777 488 795 q 440 747 460 759 q 395 735 420 735 q 347 755 363 735 q 332 803 332 776 q 339 845 332 822 q 360 886 346 867 q 394 917 374 904 q 439 930 414 930 q 467 924 455 930 q 487 908 479 918 q 498 886 494 899 q 503 861 503 874 "},"đ":{"x_min":26,"x_max":750.875,"ha":691,"o":"m 399 258 q 414 361 405 302 q 434 485 424 420 q 393 522 415 505 q 347 538 372 538 q 295 524 318 538 q 253 489 272 511 q 220 437 234 467 q 197 377 207 408 q 184 314 188 346 q 180 256 180 283 q 200 143 180 180 q 250 105 221 105 q 274 113 259 105 q 307 139 288 121 q 349 187 326 157 q 399 258 372 216 m 670 70 q 613 33 641 50 q 560 1 584 15 q 515 -19 535 -11 q 480 -28 494 -28 q 454 -19 469 -28 q 427 7 440 -11 q 403 58 413 27 q 394 136 394 90 q 283 14 337 56 q 182 -28 229 -28 q 128 -14 156 -28 q 77 29 100 0 q 40 104 55 58 q 26 213 26 150 q 39 317 26 267 q 77 414 52 368 q 140 499 103 459 q 225 571 177 539 q 267 594 244 583 q 315 614 290 605 q 366 629 340 624 q 416 635 392 635 q 435 631 425 635 q 456 621 445 627 q 465 679 460 651 q 472 733 469 707 l 291 733 l 272 753 q 279 766 274 758 q 288 783 283 775 q 297 800 293 792 q 305 814 301 808 l 481 814 q 486 872 486 849 q 483 897 486 888 q 476 910 481 906 q 467 916 472 915 q 455 918 461 918 q 438 914 449 918 q 415 908 427 911 q 387 899 402 904 l 377 946 q 447 978 411 962 q 516 1005 484 993 q 574 1023 549 1016 q 612 1031 600 1031 q 647 1018 635 1031 q 660 975 660 1006 q 654 907 660 948 q 642 814 649 865 l 733 814 l 750 792 l 718 733 l 629 733 q 612 631 621 683 q 594 528 603 579 q 577 429 585 477 q 563 339 569 381 q 553 265 557 298 q 549 212 549 232 q 559 127 549 155 q 585 99 569 99 q 619 102 603 99 q 658 116 634 106 l 670 70 "},"}":{"x_min":-55.671875,"x_max":408,"ha":466,"o":"m 408 431 q 298 373 335 410 q 254 285 261 336 q 249 220 249 247 q 249 168 249 193 q 249 115 249 143 q 246 50 249 88 q 215 -33 239 4 q 152 -104 190 -72 q 66 -164 115 -137 q -38 -214 17 -191 l -55 -161 q 34 -84 -2 -128 q 77 11 70 -39 q 82 74 82 47 q 82 128 82 102 q 82 181 82 154 q 86 245 82 209 q 103 300 90 273 q 136 352 116 327 q 180 395 155 376 q 234 427 205 415 q 149 487 172 440 q 136 610 126 534 q 149 678 141 646 q 166 737 157 709 q 182 794 174 766 q 194 851 190 821 q 198 902 198 879 q 189 945 198 925 q 162 984 180 965 q 113 1022 143 1002 l 146 1084 q 243 1037 201 1062 q 311 984 285 1013 q 349 918 338 955 q 353 832 360 881 q 340 767 348 796 q 324 710 332 739 q 307 652 315 682 q 294 585 299 623 q 305 507 286 530 q 364 484 324 484 l 377 484 q 384 484 381 484 q 392 485 387 484 q 408 488 397 486 l 408 431 "},"â":{"x_min":26,"x_max":664.890625,"ha":669,"o":"m 395 256 q 404 317 399 285 q 414 381 409 350 q 424 442 419 413 q 433 491 429 470 q 392 523 413 509 q 349 538 370 538 q 297 524 320 538 q 254 488 273 510 q 222 437 236 466 q 198 377 207 408 q 184 315 189 346 q 180 257 180 284 q 185 190 180 219 q 199 143 190 162 q 220 115 209 125 q 245 106 232 106 q 306 144 267 106 q 395 256 345 183 m 664 72 q 607 33 636 51 q 554 1 579 15 q 510 -20 530 -12 q 478 -28 491 -28 q 452 -20 467 -28 q 424 5 437 -13 q 400 55 411 24 q 390 134 390 87 q 342 75 366 104 q 290 23 317 46 q 235 -14 263 0 q 180 -28 207 -28 q 129 -15 156 -28 q 79 25 101 -2 q 41 98 56 54 q 26 206 26 143 q 39 311 26 260 q 78 409 53 362 q 141 497 104 456 q 227 571 179 538 q 268 594 245 583 q 315 615 290 606 q 368 629 340 624 q 424 635 395 635 q 480 622 452 635 q 531 594 507 609 q 577 615 554 605 q 618 635 600 625 l 639 590 q 620 573 628 581 q 607 556 613 566 q 597 532 601 546 q 588 495 593 518 q 570 400 578 446 q 556 316 562 354 q 548 249 550 278 q 545 205 545 220 q 555 128 545 158 q 581 98 565 98 q 610 101 595 98 q 654 116 626 105 l 664 72 m 622 731 q 600 707 613 718 q 576 691 587 696 l 424 845 l 230 691 q 211 706 224 695 q 192 731 199 718 l 395 988 l 488 988 l 622 731 "},"ø":{"x_min":-9.265625,"x_max":625.578125,"ha":617,"o":"m 185 285 q 185 254 185 269 q 189 225 185 239 l 401 483 q 366 526 386 512 q 325 541 347 541 q 259 517 286 541 q 215 456 232 493 q 192 374 199 419 q 185 285 185 329 m 432 326 q 432 356 432 341 q 429 385 432 371 l 219 130 q 255 82 235 100 q 298 64 276 64 q 342 75 323 64 q 377 107 362 87 q 402 153 392 127 q 419 208 413 179 q 428 268 425 237 q 432 326 432 298 m 591 379 q 579 287 591 333 q 546 196 567 240 q 494 113 524 153 q 425 42 463 73 q 386 15 408 28 q 341 -7 364 2 q 295 -22 318 -17 q 252 -28 272 -28 q 181 -17 213 -28 q 122 12 148 -7 l 111 0 q 91 -9 105 -3 q 62 -22 78 -15 q 32 -34 46 -28 q 9 -41 17 -39 l -9 -16 l 65 74 q 26 233 26 140 q 35 327 26 281 q 65 415 45 372 q 117 496 85 457 q 195 569 149 535 q 234 595 212 583 q 278 616 255 607 q 325 629 301 624 q 372 635 349 635 q 440 625 409 635 q 496 598 471 616 l 504 608 q 526 618 512 612 q 554 630 539 624 q 582 642 569 637 q 605 649 596 647 l 625 623 l 553 536 q 591 379 591 471 "},"ŋ":{"x_min":14.734375,"x_max":651,"ha":714,"o":"m 651 526 q 647 479 651 510 q 639 409 644 449 q 626 322 634 369 q 611 225 619 274 q 594 125 602 175 q 577 29 585 75 q 547 -69 566 -25 q 504 -151 528 -114 q 450 -217 479 -188 q 390 -273 421 -247 q 309 -322 353 -304 q 217 -340 264 -340 q 161 -331 191 -340 q 107 -311 132 -323 q 66 -287 82 -299 q 50 -267 50 -275 q 55 -250 50 -261 q 70 -227 61 -240 q 90 -201 79 -214 q 111 -177 100 -188 q 131 -159 122 -166 q 145 -153 140 -153 q 166 -164 152 -153 q 199 -188 181 -175 q 237 -213 217 -202 q 280 -223 258 -223 q 323 -215 304 -223 q 357 -183 341 -207 q 384 -117 372 -159 q 410 -7 397 -75 q 439 151 427 77 q 460 282 452 225 q 473 379 469 340 q 478 434 478 418 q 470 490 478 474 q 441 506 463 506 q 416 500 432 506 q 380 482 400 495 q 339 447 361 469 q 297 393 318 426 q 266 315 278 360 q 243 204 255 270 q 234 150 238 173 q 229 108 231 127 q 228 73 228 89 q 228 42 228 57 q 198 28 219 38 q 151 7 176 18 q 105 -13 127 -3 q 75 -27 83 -22 l 47 -1 q 66 92 57 43 q 83 188 75 140 q 98 281 91 236 q 109 364 105 326 q 117 431 114 402 q 120 476 120 460 q 118 501 120 492 q 113 514 116 510 q 105 520 110 519 q 94 522 100 522 q 77 519 88 522 q 54 512 66 516 q 26 503 41 508 l 14 551 q 84 580 47 565 q 156 607 121 595 q 217 627 190 619 q 254 635 243 635 q 269 631 263 635 q 278 620 275 628 q 283 597 282 612 q 285 558 285 582 q 285 525 285 544 q 282 490 285 507 q 357 555 319 528 q 430 600 395 582 q 499 626 466 618 q 560 635 532 635 q 598 630 581 635 q 627 613 615 625 q 644 580 638 601 q 651 526 651 559 "},"‰":{"x_min":54,"x_max":1328,"ha":1381,"o":"m 1199 281 q 1183 365 1199 339 q 1144 390 1167 390 q 1108 375 1123 390 q 1081 338 1092 361 q 1062 287 1070 315 q 1050 229 1054 258 q 1046 175 1046 201 q 1046 132 1046 149 q 1059 54 1046 79 q 1101 29 1072 29 q 1132 41 1118 29 q 1157 74 1146 53 q 1175 120 1168 94 q 1188 174 1183 146 q 1196 230 1194 203 q 1199 281 1199 258 m 1328 270 q 1311 167 1328 219 q 1262 72 1294 114 q 1183 4 1230 30 q 1076 -22 1136 -22 q 1009 -8 1039 -22 q 956 29 978 5 q 922 83 934 52 q 911 148 911 114 q 928 252 911 200 q 978 346 945 304 q 1059 414 1012 388 q 1168 441 1107 441 q 1232 429 1203 441 q 1282 394 1261 417 q 1316 341 1304 372 q 1328 270 1328 309 m 756 281 q 740 365 756 339 q 701 390 724 390 q 665 375 680 390 q 638 338 649 361 q 619 287 627 315 q 607 229 611 258 q 603 175 603 201 q 603 132 603 149 q 616 54 603 79 q 659 29 630 29 q 689 41 676 29 q 714 74 703 53 q 733 120 725 94 q 746 174 741 146 q 753 230 751 203 q 756 281 756 258 m 886 270 q 869 167 886 219 q 820 72 852 114 q 741 4 788 30 q 633 -22 694 -22 q 566 -8 597 -22 q 514 29 536 5 q 480 83 492 52 q 469 148 469 114 q 486 252 469 200 q 536 346 503 304 q 617 414 569 388 q 725 441 664 441 q 789 429 760 441 q 840 394 818 417 q 873 341 861 372 q 886 270 886 309 m 181 3 q 161 -4 174 0 q 133 -10 148 -7 q 106 -16 119 -13 q 84 -21 93 -19 l 71 0 l 758 813 q 778 820 765 816 q 805 827 791 824 q 833 833 819 831 q 854 838 846 836 l 868 818 l 181 3 m 342 681 q 337 730 342 710 q 326 764 333 751 q 308 783 318 777 q 286 789 298 789 q 250 774 265 789 q 223 737 234 760 q 204 685 212 714 q 192 628 196 657 q 188 574 188 600 q 188 531 188 548 q 201 453 188 477 q 244 428 215 428 q 275 440 261 428 q 299 473 288 453 q 318 519 311 493 q 331 573 326 545 q 339 629 337 601 q 342 681 342 657 m 470 670 q 453 566 470 618 q 404 472 436 514 q 326 403 373 429 q 218 377 279 377 q 151 390 182 377 q 99 427 121 404 q 65 481 77 450 q 54 547 54 512 q 71 651 54 598 q 121 745 88 703 q 202 813 154 786 q 310 839 249 839 q 374 828 345 839 q 424 793 403 816 q 458 740 446 771 q 470 670 470 708 "},"Ä":{"x_min":-33.421875,"x_max":768.828125,"ha":810,"o":"m 252 291 l 165 95 q 176 65 157 74 q 247 49 196 56 l 241 0 l -33 0 l -26 49 q 40 66 16 57 q 73 95 64 75 l 391 817 q 427 842 408 831 q 466 864 446 854 q 506 880 487 873 q 543 893 526 888 l 697 95 q 703 78 699 86 q 714 65 707 71 q 735 56 722 60 q 768 49 748 52 l 762 0 l 450 0 l 457 50 q 524 61 505 50 q 539 95 544 72 l 503 291 l 252 291 m 488 373 l 427 693 l 288 373 l 488 373 m 458 1052 q 450 1009 458 1031 q 429 968 443 987 q 394 937 415 949 q 349 926 374 926 q 301 946 316 926 q 286 993 286 967 q 293 1036 286 1014 q 314 1077 300 1058 q 348 1108 328 1096 q 393 1120 368 1120 q 442 1100 426 1120 q 458 1052 458 1079 m 720 1052 q 712 1009 720 1031 q 691 968 705 987 q 656 937 677 949 q 611 926 636 926 q 563 946 579 926 q 548 993 548 967 q 555 1036 548 1014 q 576 1077 562 1058 q 610 1108 590 1096 q 655 1120 630 1120 q 704 1100 688 1120 q 720 1052 720 1079 "},"ř":{"x_min":17.546875,"x_max":607.421875,"ha":567,"o":"m 604 576 q 591 555 599 569 q 573 526 583 542 q 554 494 564 510 q 535 464 544 477 q 518 442 526 450 q 507 434 511 434 q 482 442 494 434 q 460 460 471 450 q 439 477 450 469 q 419 486 429 486 q 380 469 401 486 q 336 421 358 452 q 295 349 315 391 q 261 259 275 308 q 238 152 247 208 q 230 42 230 96 q 198 27 220 37 q 151 7 175 18 q 107 -13 128 -3 q 77 -28 86 -23 l 50 -2 q 78 142 65 70 q 101 277 91 214 q 116 392 111 341 q 122 474 122 444 q 119 499 122 490 q 113 512 117 508 q 104 518 109 517 q 94 520 99 520 q 76 517 87 520 q 55 511 66 515 q 29 503 43 508 l 17 549 q 82 577 45 562 q 153 605 118 592 q 216 626 188 618 q 256 635 244 635 q 271 631 265 635 q 281 621 277 628 q 286 600 285 613 q 288 566 288 587 q 288 546 288 559 q 285 518 288 534 q 281 488 283 503 q 277 459 279 472 q 338 547 309 513 q 391 601 366 581 q 439 627 416 620 q 484 635 462 635 q 510 628 496 635 q 541 611 525 621 q 573 592 557 602 q 604 576 589 582 m 406 708 l 313 708 l 177 961 q 199 983 187 973 q 223 1001 211 994 l 374 851 l 570 1001 q 589 983 578 994 q 607 961 599 973 l 406 708 "},"—":{"x_min":18.984375,"x_max":1014.546875,"ha":1046,"o":"m 1014 372 q 1006 355 1011 365 l 996 334 q 985 313 990 323 q 976 299 979 304 l 36 299 l 18 320 q 26 337 21 328 q 36 358 31 347 q 48 377 42 368 q 58 393 54 387 l 996 393 l 1014 372 "},"N":{"x_min":-1.359375,"x_max":915.53125,"ha":858,"o":"m 909 805 q 840 785 862 798 q 817 763 819 773 l 710 -20 q 616 4 651 -14 q 566 54 582 23 l 263 625 l 190 90 q 193 81 189 86 q 206 69 196 75 q 231 58 215 63 q 270 49 246 52 l 263 0 l -1 0 l 5 49 q 73 68 52 55 q 96 90 94 81 l 187 756 q 107 805 153 797 l 113 854 l 286 854 q 304 853 297 854 q 316 846 310 852 q 327 830 322 841 q 343 801 333 820 l 650 223 l 724 763 q 721 773 724 767 q 709 784 718 778 q 684 795 700 790 q 644 805 668 801 l 650 855 l 915 855 l 909 805 "},"⁄":{"x_min":68.5,"x_max":832.109375,"ha":803,"o":"m 166 2 q 147 -5 158 -2 q 124 -10 136 -8 q 101 -15 112 -13 q 80 -20 89 -18 l 68 0 l 736 816 q 754 821 743 818 q 777 828 764 824 q 800 833 789 831 q 819 837 811 836 l 832 818 l 166 2 "},"2":{"x_min":-5.484375,"x_max":601,"ha":632,"o":"m 601 692 q 593 634 601 664 q 567 569 586 605 q 517 490 548 534 q 438 393 486 447 q 325 270 391 338 q 173 116 260 202 l 417 116 q 437 121 428 116 q 455 137 447 127 q 469 159 462 147 q 480 184 475 171 q 499 253 492 215 l 549 240 l 506 0 l 5 0 l -5 50 q 200 268 115 173 q 337 436 284 363 q 414 565 390 510 q 438 662 438 620 q 416 735 438 711 q 353 759 394 759 q 310 747 328 759 q 281 715 292 734 q 264 672 269 696 q 259 623 259 648 q 229 610 248 617 q 191 597 211 603 q 151 586 170 591 q 117 580 131 581 l 100 626 q 132 698 105 661 q 201 767 159 736 q 296 817 243 797 q 408 838 350 838 q 480 830 445 838 q 542 805 515 823 q 585 760 569 788 q 601 692 601 733 "},"ü":{"x_min":16.6875,"x_max":725.71875,"ha":747,"o":"m 725 72 q 670 35 698 53 q 617 3 643 17 q 570 -19 592 -10 q 531 -28 547 -28 q 501 -17 516 -28 q 472 13 485 -7 q 451 66 460 34 q 443 140 443 98 q 385 73 416 104 q 323 20 355 42 q 258 -15 291 -2 q 195 -28 225 -28 q 154 -17 175 -28 q 115 14 133 -6 q 86 66 98 35 q 75 138 75 97 q 78 187 75 159 q 86 247 81 215 q 97 311 91 278 q 108 375 103 345 q 116 432 113 406 q 120 474 120 457 q 117 499 120 490 q 112 512 115 508 q 103 518 108 517 q 92 520 98 520 q 75 517 85 520 q 53 511 64 515 q 27 503 41 508 l 16 549 q 82 577 45 562 q 155 605 119 592 q 219 626 190 618 q 260 635 248 635 q 287 622 280 635 q 294 577 294 609 q 289 526 294 558 q 279 457 285 494 q 267 380 273 420 q 254 303 260 340 q 244 234 248 265 q 240 182 240 202 q 251 124 240 144 q 276 105 262 105 q 305 114 287 105 q 345 144 322 123 q 395 196 368 164 q 452 274 421 229 q 461 330 456 302 q 470 385 466 359 q 477 435 474 412 q 481 474 481 458 q 479 499 481 490 q 474 512 477 508 q 466 518 470 517 q 455 520 461 520 q 439 517 449 520 q 420 511 429 515 q 396 503 408 508 l 384 549 q 448 577 412 562 q 519 605 485 592 q 581 626 553 618 q 621 635 609 635 q 646 622 640 635 q 653 577 653 609 q 649 528 653 558 q 640 466 645 499 q 628 396 634 432 q 617 325 622 359 q 608 261 612 291 q 604 208 604 230 q 614 122 604 146 q 640 98 623 98 q 673 102 658 98 q 713 116 689 106 l 725 72 m 401 861 q 393 818 401 840 q 372 777 386 795 q 338 747 358 759 q 293 735 318 735 q 245 755 261 735 q 230 803 230 776 q 237 845 230 822 q 258 886 244 867 q 292 917 272 904 q 337 930 312 930 q 365 924 353 930 q 385 908 377 918 q 396 886 392 899 q 401 861 401 874 m 664 861 q 656 818 664 840 q 635 777 649 795 q 600 747 621 759 q 555 735 580 735 q 507 755 523 735 q 492 803 492 776 q 499 845 492 822 q 520 886 506 867 q 554 917 534 904 q 599 930 574 930 q 627 924 615 930 q 648 908 640 918 q 659 886 655 899 q 664 861 664 874 "},"˜":{"x_min":72.5625,"x_max":588.65625,"ha":505,"o":"m 588 909 q 566 870 579 891 q 540 828 554 849 q 509 787 525 807 q 475 753 493 768 q 438 729 457 738 q 399 721 419 721 q 349 731 372 721 q 305 756 326 742 q 262 780 284 769 q 217 792 241 792 q 191 786 203 792 q 167 771 179 781 q 143 747 155 761 q 116 714 130 733 l 72 732 q 108 793 87 760 q 153 855 128 827 q 205 904 177 884 q 262 923 233 923 q 315 912 291 923 q 361 887 339 901 q 402 863 382 874 q 442 852 421 852 q 494 871 470 852 q 543 930 517 890 l 588 909 "},"Ó":{"x_min":51,"x_max":784,"ha":795,"o":"m 622 512 q 611 619 622 569 q 579 706 600 669 q 526 764 558 743 q 454 785 495 785 q 379 765 413 785 q 318 713 345 746 q 272 637 292 680 q 240 547 252 594 q 221 451 227 499 q 215 360 215 403 q 225 244 215 297 q 258 153 236 192 q 309 94 279 115 q 380 73 340 73 q 458 93 423 73 q 519 148 493 114 q 566 228 546 183 q 597 322 585 273 q 616 420 610 371 q 622 512 622 470 m 784 525 q 774 427 784 476 q 748 329 765 377 q 707 236 731 281 q 651 152 682 191 q 587 84 623 116 q 512 29 552 52 q 428 -7 472 6 q 339 -21 385 -21 q 217 6 270 -21 q 126 82 163 34 q 70 194 89 130 q 51 328 51 257 q 59 428 51 379 q 83 522 67 476 q 121 611 99 569 q 170 690 143 653 q 233 762 198 728 q 309 820 267 795 q 397 860 350 845 q 498 875 444 875 q 624 847 571 875 q 713 771 678 819 q 766 659 749 723 q 784 525 784 596 m 734 1068 l 414 908 q 396 927 404 914 q 381 955 387 941 l 622 1174 q 650 1158 634 1167 q 682 1141 666 1150 q 711 1124 698 1132 q 734 1110 725 1116 l 734 1068 "},"ˇ":{"x_min":76.640625,"x_max":506.59375,"ha":378,"o":"m 306 708 l 213 708 l 76 961 q 99 983 87 973 q 122 1001 111 994 l 274 851 l 469 1001 q 488 983 478 994 q 506 961 499 973 l 306 708 "},"Ÿ":{"x_min":81,"x_max":855.59375,"ha":793,"o":"m 543 0 l 188 0 l 195 49 q 244 62 224 55 q 276 75 264 69 q 293 87 288 82 q 300 98 299 93 l 335 361 q 301 470 321 414 q 260 581 281 527 q 216 681 238 634 q 175 760 194 727 q 164 774 170 768 q 148 783 159 779 q 122 788 138 787 q 81 790 106 790 l 81 839 q 124 847 100 843 q 174 854 149 851 q 220 860 198 858 q 255 862 242 862 q 287 854 270 862 q 312 831 303 846 q 352 751 331 797 q 393 656 373 706 q 431 555 413 607 q 462 459 448 504 l 650 760 q 647 788 662 778 q 586 805 633 798 l 592 855 l 855 855 l 848 805 q 810 796 827 800 q 783 787 794 792 q 763 775 771 781 q 749 760 755 768 l 492 354 l 456 98 q 460 88 456 94 q 474 75 463 82 q 503 62 484 69 q 550 49 521 55 l 543 0 m 459 1052 q 451 1009 459 1031 q 430 968 444 987 q 396 937 416 949 q 350 926 375 926 q 303 946 318 926 q 288 993 288 967 q 295 1036 288 1014 q 316 1077 302 1058 q 350 1108 330 1096 q 394 1120 369 1120 q 443 1100 427 1120 q 459 1052 459 1079 m 722 1052 q 714 1009 722 1031 q 693 968 707 987 q 658 937 679 949 q 613 926 638 926 q 565 946 581 926 q 550 993 550 967 q 557 1036 550 1014 q 578 1077 564 1058 q 612 1108 592 1096 q 657 1120 632 1120 q 706 1100 690 1120 q 722 1052 722 1079 "},"€":{"x_min":-14.5,"x_max":656.5625,"ha":633,"o":"m 401 296 l 213 296 q 225 191 213 233 q 256 124 237 149 q 300 87 276 98 q 350 77 325 77 q 385 80 367 77 q 425 94 403 83 q 475 123 448 104 q 539 173 503 142 q 553 151 547 164 q 565 128 560 139 q 484 53 521 82 q 414 7 447 23 q 351 -14 381 -8 q 292 -20 321 -20 q 199 0 243 -20 q 124 59 156 19 q 72 158 91 99 q 54 296 54 217 l 1 296 l -14 318 q -9 331 -12 323 q -1 347 -5 339 q 5 364 1 356 q 11 378 9 372 l 58 378 q 59 387 59 382 q 61 396 59 391 q 65 426 63 411 q 70 455 67 440 l 41 455 l 26 477 q 31 490 28 482 q 38 506 35 498 q 46 523 42 515 q 52 537 49 531 l 91 537 q 152 669 116 613 q 237 763 189 726 q 342 819 285 801 q 465 838 400 838 q 578 818 528 838 q 655 770 627 798 q 654 758 657 768 q 642 736 650 749 q 624 707 634 723 q 605 677 615 692 q 586 652 595 663 q 571 635 577 641 l 532 645 q 481 721 510 695 q 405 748 452 748 q 365 740 386 748 q 322 709 343 732 q 281 645 301 686 q 245 537 261 603 l 472 537 l 489 516 l 461 455 l 228 455 q 224 431 226 443 q 221 405 222 418 q 219 391 219 398 l 217 378 l 412 378 l 430 357 l 401 296 "},"Ŭ":{"x_min":109.515625,"x_max":905.3125,"ha":860,"o":"m 898 805 q 834 784 855 795 q 812 763 813 772 l 753 347 q 708 189 741 258 q 629 73 676 120 q 522 3 581 27 q 395 -21 462 -21 q 289 -4 339 -21 q 201 45 239 12 q 141 125 163 78 q 119 236 119 173 q 125 314 119 272 l 188 763 q 171 783 190 771 q 109 805 153 795 l 115 854 l 442 854 l 435 805 q 368 784 392 795 q 343 763 345 772 l 284 346 q 279 306 281 326 q 278 269 278 287 q 319 126 278 174 q 445 78 360 78 q 522 97 489 78 q 579 147 556 115 q 618 223 603 179 q 639 318 632 267 l 701 763 q 698 772 702 767 q 686 783 695 778 q 662 794 677 789 q 625 805 647 800 l 632 855 l 905 855 l 898 805 m 779 1122 q 722 1030 754 1067 q 657 969 691 992 q 591 935 624 945 q 532 924 559 924 q 472 935 502 924 q 415 969 442 945 q 368 1030 389 993 q 336 1122 347 1068 q 347 1136 341 1128 q 362 1150 354 1143 q 376 1163 369 1157 q 388 1172 383 1169 q 416 1115 398 1138 q 455 1079 433 1093 q 498 1059 476 1065 q 540 1053 520 1053 q 587 1059 561 1053 q 640 1079 613 1065 q 691 1115 666 1093 q 734 1172 715 1138 q 745 1163 739 1169 q 757 1151 751 1158 q 770 1136 764 1143 q 779 1122 775 1128 "},"ĝ":{"x_min":-13,"x_max":640.953125,"ha":652,"o":"m 640 590 q 601 544 617 571 q 576 467 584 516 q 565 323 565 386 q 565 206 565 260 q 565 102 565 151 q 555 0 565 53 q 526 -89 547 -45 q 477 -170 506 -132 q 413 -239 448 -208 q 340 -292 378 -270 q 263 -326 302 -314 q 188 -339 224 -339 q 117 -331 153 -339 q 52 -312 81 -324 q 5 -287 23 -300 q -13 -262 -13 -274 q -6 -243 -13 -254 q 8 -219 0 -231 q 29 -193 18 -206 q 50 -170 40 -180 q 69 -154 61 -160 q 80 -148 77 -148 q 99 -159 88 -148 q 130 -185 111 -171 q 178 -211 150 -199 q 248 -223 207 -223 q 295 -214 273 -223 q 334 -183 317 -205 q 366 -125 352 -161 q 390 -32 379 -88 q 400 71 400 24 q 400 162 400 118 q 349 87 377 122 q 292 27 321 52 q 234 -13 263 1 q 176 -28 205 -28 q 126 -15 153 -28 q 75 25 99 -2 q 35 98 51 54 q 20 206 20 143 q 71 409 20 314 q 223 571 122 504 q 312 615 261 596 q 424 635 362 635 q 478 620 450 635 q 533 589 507 605 q 577 615 556 604 l 617 635 l 640 590 m 245 106 q 268 115 253 106 q 304 146 283 124 q 353 202 326 167 q 411 290 380 238 q 416 367 411 327 q 428 455 421 407 q 436 485 430 470 q 391 522 414 505 q 346 538 368 538 q 293 525 317 538 q 251 489 270 511 q 217 438 232 467 q 194 377 203 409 q 179 315 184 346 q 175 257 175 283 q 195 143 175 181 q 245 106 215 106 m 594 732 q 572 707 585 718 q 548 691 559 696 l 396 845 l 201 691 q 183 707 195 695 q 164 732 170 718 l 367 989 l 460 989 l 594 732 "}}}
